<svg width="48" height="48" viewBox="0 0 48 48" fill="none" xmlns="http://www.w3.org/2000/svg">
<path d="M24 30C27.3137 30 30 27.3137 30 24C30 20.6863 27.3137 18 24 18C20.6863 18 18 20.6863 18 24C18 27.3137 20.6863 30 24 30Z" fill="#5A189A"/>
<path d="M40 8H33.66L31.18 5.3C30.8073 4.89079 30.3533 4.56381 29.8471 4.33997C29.3409 4.11613 28.7935 4.00034 28.24 4H19.76C18.64 4 17.56 4.48 16.8 5.3L14.34 8H8C5.8 8 4 9.8 4 12V36C4 38.2 5.8 40 8 40H40C42.2 40 44 38.2 44 36V12C44 9.8 42.2 8 40 8ZM24 34C18.48 34 14 29.52 14 24C14 18.48 18.48 14 24 14C29.52 14 34 18.48 34 24C34 29.52 29.52 34 24 34Z" fill="#7B2CBF"/>
</svg>
