<svg width="36" height="36" viewBox="0 0 36 36" fill="none" xmlns="http://www.w3.org/2000/svg">
<path d="M24.4609 26.8969C19.8653 30.6944 17.213 34.8479 17.0686 35.0721C16.8585 34.8347 12.9719 30.312 9.93883 26.8969C9.00658 25.842 7.22086 24.1147 5.42201 21.9918H6.41991C6.77443 21.9918 7.10269 21.7808 7.24712 21.4512L10.1883 14.6473L13.1032 25.9211C13.2083 26.3035 13.5497 26.5804 13.9436 26.6068C13.9567 26.6068 13.9698 26.6068 13.983 26.6068C14.3637 26.6068 14.7183 26.3563 14.8364 26.0003L17.8695 17.1394L19.13 19.882C19.2745 20.2117 19.6027 20.4095 19.9573 20.4095H30.8423C28.6758 23.1653 26.1679 25.486 24.4609 26.8969ZM32.129 18.5635H20.5219L18.5654 14.2781C18.4079 13.9353 18.0665 13.7243 17.6988 13.7507C17.3312 13.777 17.0029 14.0144 16.8848 14.3704L14.1011 22.5192L11.2781 11.6277C11.1862 11.2585 10.858 10.9816 10.4772 10.9553C10.0833 10.9157 9.72875 11.1399 9.57119 11.4959L5.81592 20.1721H3.95142C0.458755 15.5439 -2.19357 9.6235 2.61213 4.63928C5.12001 2.02849 7.50973 1.14504 9.59745 1.14504C14.0749 1.14504 17.0292 5.00848 17.1868 5.20627C17.3968 5.00848 21.3622 1 26.1679 1C28.3738 1 30.6978 1.88345 32.825 4.45468C36.554 8.96422 35.0177 14.1726 32.129 18.5635Z" fill="#F9F9F9"/>
</svg>
