<svg width="32" height="32" viewBox="0 0 32 32" fill="none" xmlns="http://www.w3.org/2000/svg">
<path d="M26.6667 16C26.3111 16 25.9947 15.872 25.7173 15.616C25.4391 15.3609 25.2778 15.0444 25.2333 14.6667C24.9444 12.6 24.0724 10.8387 22.6173 9.38267C21.1613 7.92756 19.4 7.05556 17.3333 6.76667C16.9556 6.72222 16.6391 6.56667 16.384 6.3C16.128 6.03333 16 5.71111 16 5.33333C16 4.95556 16.1333 4.63867 16.4 4.38267C16.6667 4.12756 16.9778 4.02222 17.3333 4.06667C20.1333 4.37778 22.5222 5.52222 24.5 7.5C26.4778 9.47778 27.6222 11.8667 27.9333 14.6667C27.9778 15.0222 27.872 15.3333 27.616 15.6C27.3609 15.8667 27.0444 16 26.6667 16ZM21.1 16C20.8111 16 20.5556 15.9 20.3333 15.7C20.1111 15.5 19.9444 15.2333 19.8333 14.9C19.6556 14.2556 19.3169 13.6831 18.8173 13.1827C18.3169 12.6831 17.7444 12.3444 17.1 12.1667C16.7667 12.0556 16.5 11.8889 16.3 11.6667C16.1 11.4444 16 11.1778 16 10.8667C16 10.4222 16.1556 10.0609 16.4667 9.78267C16.7778 9.50533 17.1222 9.41111 17.5 9.5C18.7444 9.78889 19.8169 10.3831 20.7173 11.2827C21.6169 12.1831 22.2111 13.2556 22.5 14.5C22.5889 14.8778 22.4889 15.2222 22.2 15.5333C21.9111 15.8444 21.5444 16 21.1 16ZM26.6 28C23.7333 28 20.9391 27.3609 18.2173 26.0827C15.4947 24.8053 13.0836 23.1164 10.984 21.016C8.88356 18.9164 7.19467 16.5053 5.91733 13.7827C4.63911 11.0609 4 8.26667 4 5.4C4 5 4.13333 4.66667 4.4 4.4C4.66667 4.13333 5 4 5.4 4H10.8C11.1111 4 11.3889 4.1 11.6333 4.3C11.8778 4.5 12.0222 4.75556 12.0667 5.06667L12.9333 9.73333C12.9778 10.0444 12.9724 10.3276 12.9173 10.5827C12.8613 10.8387 12.7333 11.0667 12.5333 11.2667L9.33333 14.5333C10.2667 16.1333 11.4333 17.6333 12.8333 19.0333C14.2333 20.4333 15.7778 21.6444 17.4667 22.6667L20.6 19.5333C20.8 19.3333 21.0613 19.1831 21.384 19.0827C21.7058 18.9831 22.0222 18.9556 22.3333 19L26.9333 19.9333C27.2444 20 27.5 20.1498 27.7 20.3827C27.9 20.6164 28 20.8889 28 21.2V26.6C28 27 27.8667 27.3333 27.6 27.6C27.3333 27.8667 27 28 26.6 28Z" fill="#F9F9F9"/>
</svg>
