<svg width="36" height="36" viewBox="0 0 36 36" fill="none" xmlns="http://www.w3.org/2000/svg">
<path d="M33.8219 5.61503C31.7939 3.19615 29.344 2.01329 26.3634 2C26.3497 2 26.3497 2 26.3361 2C23.3691 2 20.7287 3.28918 19.9937 3.6879C19.7895 3.79422 19.6534 3.87397 19.5582 3.92713L19.4629 3.99358C19.3132 4.08662 19.1362 4.09991 18.9729 4.02016L18.6871 3.87397V3.88726C18.5918 3.84739 18.4693 3.79422 18.3196 3.72777C17.7344 3.48854 17.1083 3.2626 16.4822 3.04995C15.0803 2.59807 12.9299 2.06645 10.6297 2.06645H10.6161C7.05019 2.07974 4.3145 3.24931 2.20489 5.62832C0.734962 7.32951 0 9.12373 0 11.1306C0 13.2172 0.803014 15.4899 2.47709 18.0683C3.17122 19.1448 3.89258 20.1017 4.53227 20.939C5.09029 21.6833 5.58027 22.3212 5.8797 22.8263C6.51939 23.9693 6.84603 25.5774 7.1863 27.2653C7.25435 27.5976 7.3224 27.9299 7.39045 28.2621C7.78515 30.2424 8.31596 32.4353 9.24147 33.6847C9.92199 34.5884 10.6025 34.9605 11.6233 34.9738C12.2494 34.9473 12.6168 34.7479 13.0524 34.1897C13.5151 33.5783 13.801 32.5948 13.9643 31.8904C14.2229 30.8139 14.3726 29.5247 14.5359 28.2754C14.6584 27.3185 14.7809 26.335 14.9442 25.4312C15.1892 24.1952 15.475 22.9193 16.2644 22.0421C16.6864 21.577 17.2988 21.2979 17.9385 21.2979C18.864 21.2979 19.6806 21.8295 20.1842 22.7465C20.7014 23.6503 20.9736 24.7667 21.205 25.8432C21.3411 26.5343 21.4636 27.252 21.5997 27.9697C21.9128 29.7905 22.2122 31.4917 22.743 32.7144C23.2194 33.7644 23.7638 34.4688 24.8254 34.4821C25.9687 34.4422 26.4586 34.0435 26.9486 33.3258C27.3705 32.6746 27.6836 31.6512 27.9013 30.1892C28.0102 29.5779 28.0783 28.9266 28.1599 28.2621C28.4049 26.242 28.6635 24.1686 29.6435 22.6136C30.0926 21.9491 30.6915 21.1915 31.3312 20.3941C33.4272 17.7759 36.0404 14.5197 35.9995 11.011C35.9859 9.15031 35.2782 7.36938 33.8219 5.61503Z" fill="#F9F9F9"/>
</svg>
