<svg width="1000" height="1000" viewBox="0 0 1000 1000" fill="none" xmlns="http://www.w3.org/2000/svg">
<rect width="1000" height="1000" fill="white"/>
<g clip-path="url(#clip0_701_5601)">
<path d="M646.257 213.219C643.841 213.219 641.86 215.2 641.86 217.616C641.86 220.032 643.841 222.012 646.257 222.012C648.673 222.012 650.653 220.032 650.653 217.616C650.653 215.16 648.712 213.219 646.257 213.219Z" fill="#E6E6E7"/>
<path d="M646.257 215.199C644.95 215.199 643.841 216.269 643.841 217.616C643.841 218.962 644.91 220.032 646.257 220.032C647.603 220.032 648.673 218.962 648.673 217.616C648.673 216.269 647.603 215.199 646.257 215.199Z" fill="#4B4B70"/>
<path d="M811.062 74C808.646 74 806.666 75.9804 806.666 78.3964C806.666 80.8124 808.646 82.7928 811.062 82.7928C813.478 82.7928 815.459 80.8124 815.459 78.3964C815.459 75.9804 813.518 74 811.062 74Z" fill="#E6E6E7"/>
<path d="M811.063 80.8124C812.397 80.8124 813.479 79.7307 813.479 78.3964C813.479 77.062 812.397 75.9803 811.063 75.9803C809.728 75.9803 808.646 77.062 808.646 78.3964C808.646 79.7307 809.728 80.8124 811.063 80.8124Z" fill="#4B4B70"/>
<path d="M646.257 74.0396C643.841 74.0396 641.86 75.9803 641.86 78.4359C641.86 80.8916 643.841 82.8323 646.257 82.8323C648.673 82.8323 650.653 80.852 650.653 78.4359C650.653 76.0199 648.712 74.0396 646.257 74.0396Z" fill="#E6E6E7"/>
<path d="M646.257 76.0199C644.95 76.0199 643.841 77.0893 643.841 78.4359C643.841 79.7826 644.91 80.852 646.257 80.852C647.603 80.852 648.673 79.7826 648.673 78.4359C648.673 77.0893 647.603 76.0199 646.257 76.0199Z" fill="#4B4B70"/>
<path d="M949.172 772.314H51V802.456H949.172V772.314Z" fill="#A0CFE6"/>
<path d="M949.172 802.416H51V925H949.172V802.416Z" fill="#629ABF"/>
<path d="M703.964 80.9708H588.549V196.386H703.964V80.9708Z" fill="#8BB8DC"/>
<path d="M696.003 88.9319H596.55V188.386H696.003V88.9319Z" fill="#F0F1F1"/>
<path d="M895.782 80.9708H726.382V333.585H895.782V80.9708Z" fill="#8BB8DC"/>
<path d="M887.742 88.5754H734.383V326.139H887.742V88.5754Z" fill="#F0F1F1"/>
<path d="M703.964 220.111H588.628V335.447H703.964V220.111Z" fill="#8BB8DC"/>
<path d="M695.964 228.112H596.589V327.486H695.964V228.112Z" fill="#F0F1F1"/>
<path d="M811.062 114.241C783.892 114.241 761.87 120.736 761.87 128.737C761.87 136.738 783.892 143.233 811.062 143.233C838.233 143.233 860.254 136.738 860.254 128.737C860.254 120.697 838.233 114.241 811.062 114.241Z" fill="#C3DFED"/>
<path d="M804.131 172.067H744.721V176.583H804.131V172.067Z" fill="#C3DFED"/>
<path d="M804.131 181.652H744.721V186.168H804.131V181.652Z" fill="#C3DFED"/>
<path d="M804.131 191.277H744.721V195.792H804.131V191.277Z" fill="#C3DFED"/>
<path d="M804.131 200.901H744.721V205.417H804.131V200.901Z" fill="#C3DFED"/>
<path d="M804.131 210.526H744.721V215.041H804.131V210.526Z" fill="#C3DFED"/>
<path d="M804.131 220.151H744.721V224.666H804.131V220.151Z" fill="#C3DFED"/>
<path d="M804.131 240.231H744.721V244.747H804.131V240.231Z" fill="#C3DFED"/>
<path d="M804.131 249.856H744.721V254.371H804.131V249.856Z" fill="#C3DFED"/>
<path d="M804.131 259.48H744.721V263.996H804.131V259.48Z" fill="#C3DFED"/>
<path d="M804.131 269.105H744.721V273.62H804.131V269.105Z" fill="#C3DFED"/>
<path d="M804.131 278.69H744.721V283.205H804.131V278.69Z" fill="#C3DFED"/>
<path d="M804.131 288.315H744.721V292.83H804.131V288.315Z" fill="#C3DFED"/>
<path d="M878.791 172.067H819.38V176.583H878.791V172.067Z" fill="#C3DFED"/>
<path d="M878.791 181.652H819.38V186.167H878.791V181.652Z" fill="#C3DFED"/>
<path d="M878.791 191.277H819.38V195.792H878.791V191.277Z" fill="#C3DFED"/>
<path d="M878.791 200.901H819.38V205.417H878.791V200.901Z" fill="#C3DFED"/>
<path d="M878.791 210.526H819.38V215.041H878.791V210.526Z" fill="#C3DFED"/>
<path d="M878.791 220.151H819.38V224.666H878.791V220.151Z" fill="#C3DFED"/>
<path d="M833.955 312.673L850.234 303.246L866.512 312.673V262.134H833.955V312.673Z" fill="#8BB8DC"/>
<path d="M850.234 239.479C837.718 239.479 827.618 249.618 827.618 262.095C827.618 274.61 837.758 284.71 850.234 284.71C862.75 284.71 872.85 274.571 872.85 262.095C872.85 249.618 862.71 239.479 850.234 239.479Z" fill="#A0CFE6"/>
<path d="M850.234 245.856C841.243 245.856 833.955 253.143 833.955 262.134C833.955 271.125 841.243 278.413 850.234 278.413C859.224 278.413 866.512 271.125 866.512 262.134C866.512 253.143 859.224 245.856 850.234 245.856Z" fill="#8BB8DC"/>
<path d="M664.832 114.835C656.277 111.033 653.742 116.023 652.356 114.835C649.108 112.023 651.881 110.32 654.376 105.765C655.643 103.468 658.376 101.487 657.663 100.458C656.713 99.1505 654.336 97.4474 654.336 97.4474L647.88 105.25C647.88 105.25 638.454 115.825 637.939 130.876C637.424 145.966 631.126 149.214 622.928 156.858C614.729 164.502 615.086 174.087 615.521 178.365C615.838 181.335 621.858 178.919 621.858 178.919C621.858 178.919 618.135 169.334 624.552 164.582C631.008 159.829 642.018 175.83 657.941 166.126C675.724 155.155 684.557 123.588 664.832 114.835Z" fill="#A0CFE6"/>
<path d="M653.94 147.551C650.613 147.551 647.919 150.244 647.919 153.571C647.919 156.898 650.613 159.591 653.94 159.591C657.267 159.591 659.96 156.898 659.96 153.571C660 150.244 657.306 147.551 653.94 147.551Z" fill="#8BB8DC"/>
<path d="M640.196 153.571C638.414 153.571 636.988 154.997 636.988 156.779C636.988 158.561 638.414 159.987 640.196 159.987C641.979 159.987 643.405 158.561 643.405 156.779C643.405 154.997 641.979 153.571 640.196 153.571Z" fill="#8BB8DC"/>
<path d="M646.89 138.679C645.108 138.797 643.761 140.302 643.88 142.045C643.999 143.827 645.504 145.174 647.286 145.055C649.068 144.936 650.415 143.431 650.296 141.649C650.177 139.906 648.672 138.56 646.89 138.679Z" fill="#8BB8DC"/>
<path d="M656.317 133.886C655.01 133.886 653.94 134.955 653.94 136.223C653.94 137.53 655.01 138.599 656.317 138.599C657.624 138.599 658.693 137.53 658.693 136.223C658.693 134.955 657.624 133.886 656.317 133.886Z" fill="#8BB8DC"/>
<path d="M651.604 126.361C650.297 126.361 649.228 127.43 649.228 128.737C649.228 130.044 650.297 131.113 651.604 131.113C652.911 131.113 653.98 130.044 653.98 128.737C653.941 127.43 652.911 126.361 651.604 126.361Z" fill="#8BB8DC"/>
<path d="M633.266 270.056C626.889 266.253 631.365 273.858 631.365 273.858C631.365 273.858 635.84 279.561 635.84 283.522C635.84 287.483 629.978 286.097 629.107 285.265C628.236 284.393 628.077 290.255 628.077 290.255C628.077 290.255 632.909 289.225 635.84 288.513C638.771 287.839 640.157 312.673 641.029 315.604C641.9 318.535 645.702 315.604 645.702 315.604C645.702 315.604 639.642 273.858 633.266 270.056Z" fill="#A0CFE6"/>
<path d="M637.582 253.539C635.642 247.757 621.502 243.36 613.224 254.846C604.946 266.332 603.916 289.146 612.155 298.771C620.393 308.395 627.403 308.712 633.028 305.108C640.711 300.236 631.166 292.236 631.998 278.611C632.829 265.065 641.147 263.956 637.582 253.539Z" fill="#8BB8DC"/>
<path d="M663.406 285.225C662.535 286.097 656.673 287.483 656.673 283.483C656.673 279.522 661.149 273.818 661.149 273.818C661.149 273.818 665.624 266.214 659.248 270.016C652.871 273.818 646.811 315.604 646.811 315.604C646.811 315.604 650.613 318.535 651.485 315.604C652.356 312.673 653.742 287.8 656.673 288.513C659.604 289.226 664.436 290.255 664.436 290.255C664.436 290.255 664.278 284.393 663.406 285.225Z" fill="#A0CFE6"/>
<path d="M654.97 253.539C651.445 263.956 659.723 265.065 660.555 278.65C661.386 292.236 651.841 300.276 659.525 305.147C665.149 308.712 672.16 308.435 680.398 298.81C688.636 289.186 687.606 266.372 679.328 254.886C671.051 243.36 656.911 247.796 654.97 253.539Z" fill="#8BB8DC"/>
<path d="M532.426 676.346H507.196V699.318H532.426V676.346Z" fill="#78ABCE"/>
<path d="M532.426 764.076H507.196V775.562H532.426V764.076Z" fill="#78ABCE"/>
<path d="M528.584 699.358H510.998V764.076H528.584V699.358Z" fill="#8BB8DC"/>
<path d="M599.005 775.087H440.577V787.84H599.005V775.087Z" fill="#78ABCE"/>
<path d="M440.576 778.652C434.002 778.652 428.694 783.959 428.694 790.534C428.694 797.109 434.002 802.416 440.576 802.416C447.151 802.416 452.459 797.109 452.459 790.534C452.459 783.999 447.151 778.652 440.576 778.652Z" fill="#629ABF"/>
<path d="M599.005 778.652C592.43 778.652 587.123 783.959 587.123 790.534C587.123 797.109 592.43 802.416 599.005 802.416C605.58 802.416 610.887 797.109 610.887 790.534C610.887 783.999 605.58 778.652 599.005 778.652Z" fill="#629ABF"/>
<path d="M521.019 391.016C478.956 391.016 426.952 414.978 426.952 453.833C426.952 492.688 454.201 635.234 454.201 635.234L592.787 637.135C592.787 637.135 612.591 492.49 612.591 457.279C612.591 414.978 563.121 391.016 521.019 391.016Z" fill="#78ABCE"/>
<path d="M519.236 620.975C464.578 620.975 420.218 620.975 420.218 650.641C420.218 667.039 464.539 680.307 519.236 680.307C573.894 680.307 618.215 667.039 618.215 650.641C618.215 620.975 573.894 620.975 519.236 620.975Z" fill="#8BB8DC"/>
<path d="M397.285 540.177H132.472V802.416H397.285V540.177Z" fill="#8BB8DC"/>
<path d="M706.657 540.177H642.295V802.416H706.657V540.177Z" fill="#8BB8DC"/>
<path d="M695.528 512.848L696.241 514.075L697.073 513.046L697.429 509.877L695.885 509.719L695.528 512.848Z" fill="#F0F1F1"/>
<path d="M695.092 511.224L697.865 511.501L698.895 507.303L694.974 506.867L695.092 511.224Z" fill="#BE1E2C"/>
<path d="M707.212 412.087L706.737 412.047C704.558 411.81 702.618 413.394 702.42 415.533L695.211 483.499C695.013 485.479 693.706 507.184 694.538 507.936C694.974 508.332 698.182 508.768 698.895 508.293C699.568 507.817 703.331 485.756 703.449 484.37L710.658 416.404C710.935 414.265 709.391 412.325 707.212 412.087Z" fill="#8BB8DC"/>
<path d="M702.459 415.533L695.25 483.499C695.052 485.479 693.745 507.184 694.577 507.936C694.775 508.134 695.765 508.332 696.755 508.451L706.974 412.087L706.776 412.047C704.598 411.81 702.657 413.394 702.459 415.533Z" fill="#A0CFE6"/>
<path d="M710.499 417.949L701.825 417.038C701.35 416.998 700.954 417.236 700.914 417.553C700.875 417.909 700.677 418.147 701.152 418.186L710.381 419.177C710.856 419.216 711.252 418.979 711.291 418.662C711.331 418.305 710.975 417.988 710.499 417.949Z" fill="#78ABCE"/>
<path d="M700.122 419.335C700.004 420.444 697.746 445.198 697.944 445.793C698.102 446.426 699.291 445.357 699.409 444.248C699.528 443.178 699.013 442.386 699.053 442.426C699.093 442.426 701.311 418.741 701.311 418.741L701.865 416.998C701.865 417.038 700.4 416.562 700.122 419.335Z" fill="#78ABCE"/>
<path d="M671.487 420.048C671.329 419.652 670.893 419.454 670.497 419.573L665.942 421.196C665.546 421.355 665.348 421.791 665.467 422.187L667.051 426.583C667.21 426.979 667.645 427.177 668.041 427.019L672.596 425.395C672.992 425.236 673.19 424.801 673.071 424.405L671.487 420.048Z" fill="#8BB8DC"/>
<path d="M702.341 515.026V505.956L696.32 508.134L702.341 515.026Z" fill="#F7CF9C"/>
<path d="M702.341 515.026L702.46 512.134L700.321 512.887L702.341 515.026Z" fill="#221F1F"/>
<path d="M673.072 424.328L667.031 426.492L696.289 508.149L702.329 505.985L673.072 424.328Z" fill="#A0CFE6"/>
<path d="M666.497 424.92L667.052 426.464L673.111 424.325L672.517 422.781L666.497 424.92Z" fill="#F0F1F1"/>
<path d="M673.077 424.315L670.02 425.411L699.277 507.068L702.334 505.972L673.077 424.315Z" fill="#8BB8DC"/>
<path d="M718.104 459.814H672.873V517.997H718.104V459.814Z" fill="#8BB8DC"/>
<path d="M718.104 459.814H695.488V517.997H718.104V459.814Z" fill="#78ABCE"/>
<path d="M169.861 350.735C164.316 350.735 159.841 355.211 159.841 360.756V437.871V447.892V466.903C159.841 472.448 164.316 476.924 169.861 476.924H298.189L221.984 350.735H169.861Z" fill="#78ABCE"/>
<path d="M337.122 350.735H221.984L298.149 476.924H337.122C342.667 476.924 347.143 472.448 347.143 466.903V447.892V360.756C347.143 355.211 342.667 350.735 337.122 350.735Z" fill="#81B2D3"/>
<path d="M252.918 429.871C243.412 429.871 235.728 437.554 235.728 447.06V502.748C235.728 512.254 243.412 514.115 252.918 514.115C262.423 514.115 270.107 512.254 270.107 502.748V447.06C270.107 437.554 262.423 429.871 252.918 429.871Z" fill="#8BB8DC"/>
<path d="M291.732 498.035H236.164H228.955H215.251C211.251 498.035 208.042 501.243 208.042 505.243V517.957H298.941V505.243C298.941 501.282 295.733 498.035 291.732 498.035Z" fill="#78ABCE"/>
<path d="M743.769 517.997H95.3203V540.177H743.769V517.997Z" fill="#A0CFE6"/>
<path d="M420.139 232.587H345.44V259.758H420.139V232.587Z" fill="#8BB8DC"/>
<path d="M210.775 232.587H136.076V259.758H210.775V232.587Z" fill="#8BB8DC"/>
<path d="M409.366 140.382H385.047V215.992H409.366V140.382Z" fill="#A0CFE6"/>
<path d="M409.366 140.382H385.047V150.006H409.366V140.382Z" fill="#8BB8DC"/>
<path d="M409.366 208.625H385.047V215.992H409.366V208.625Z" fill="#8BB8DC"/>
<path d="M385.047 118.281H357.876V215.992H385.047V118.281Z" fill="#78ABCE"/>
<path d="M377.68 129.054H365.244V197.812H377.68V129.054Z" fill="#8BB8DC"/>
<path d="M357.877 133.371H337.123V215.992H357.877V133.371Z" fill="#8BB8DC"/>
<path d="M272.998 87.7438H235.648V215.992H272.998V87.7438Z" fill="#8BB8DC"/>
<path d="M240.917 102.438V163.948H267.691V102.438L254.304 110.755L240.917 102.438Z" fill="white"/>
<path d="M254.304 172.345C248.838 172.345 244.402 176.781 244.402 182.246C244.402 187.712 248.838 192.148 254.304 192.148C259.769 192.148 264.205 187.712 264.205 182.246C264.205 176.781 259.769 172.345 254.304 172.345Z" fill="#C3DFED"/>
<path d="M254.303 174.246C249.907 174.246 246.303 177.81 246.303 182.246C246.303 186.643 249.867 190.247 254.303 190.247C258.7 190.247 262.304 186.682 262.304 182.246C262.304 177.81 258.739 174.246 254.303 174.246Z" fill="#629ABF"/>
<path d="M235.648 87.7438H198.299V215.992H235.648V87.7438Z" fill="#78ABCE"/>
<path d="M203.567 102.438V163.948H230.341V102.438L216.954 110.755L203.567 102.438Z" fill="white"/>
<path d="M216.954 172.345C211.488 172.345 207.052 176.781 207.052 182.246C207.052 187.712 211.488 192.148 216.954 192.148C222.42 192.148 226.856 187.712 226.856 182.246C226.856 176.781 222.42 172.345 216.954 172.345Z" fill="#C3DFED"/>
<path d="M216.954 174.246C212.557 174.246 208.953 177.81 208.953 182.246C208.953 186.643 212.518 190.247 216.954 190.247C221.35 190.247 224.954 186.682 224.954 182.246C224.954 177.81 221.39 174.246 216.954 174.246Z" fill="#629ABF"/>
<path d="M198.299 87.7438H160.95V215.992H198.299V87.7438Z" fill="#8BB8DC"/>
<path d="M166.217 102.438V163.948H193.031V102.438L179.605 110.755L166.217 102.438Z" fill="white"/>
<path d="M179.605 172.345C174.139 172.345 169.703 176.781 169.703 182.246C169.703 187.712 174.139 192.148 179.605 192.148C185.071 192.148 189.507 187.712 189.507 182.246C189.507 176.781 185.071 172.345 179.605 172.345Z" fill="#C3DFED"/>
<path d="M179.604 174.246C175.208 174.246 171.604 177.81 171.604 182.246C171.604 186.643 175.168 190.247 179.604 190.247C184.001 190.247 187.605 186.682 187.605 182.246C187.605 177.81 184.04 174.246 179.604 174.246Z" fill="#629ABF"/>
<path d="M160.949 87.7438H123.6V215.992H160.949V87.7438Z" fill="#78ABCE"/>
<path d="M128.868 102.438V163.948H155.682V102.438L142.295 110.755L128.868 102.438Z" fill="white"/>
<path d="M142.295 172.345C136.829 172.345 132.393 176.781 132.393 182.246C132.393 187.712 136.829 192.148 142.295 192.148C147.761 192.148 152.197 187.712 152.197 182.246C152.197 176.781 147.761 172.345 142.295 172.345Z" fill="#C3DFED"/>
<path d="M142.294 174.246C137.898 174.246 134.293 177.81 134.293 182.246C134.293 186.643 137.858 190.247 142.294 190.247C146.691 190.247 150.295 186.682 150.295 182.246C150.255 177.81 146.691 174.246 142.294 174.246Z" fill="#629ABF"/>
<path d="M324.191 139.553L303.83 212.374L316.799 216L337.161 143.18L324.191 139.553Z" fill="#78ABCE"/>
<path d="M455.548 215.992H95.3203V232.587H455.548V215.992Z" fill="white"/>
<path d="M949.171 392.64H798.308V408.958H949.171V392.64Z" fill="#629ABF"/>
<path d="M949.171 408.918H812.328V801.029H949.171V408.918Z" fill="#F0F1F1"/>
<path d="M949.171 426.108H828.013V483.38H949.171V426.108Z" fill="#A0CFE6"/>
<path d="M949.171 494.193H828.013V551.464H949.171V494.193Z" fill="#A0CFE6"/>
<path d="M949.171 562.277H828.013V619.549H949.171V562.277Z" fill="#A0CFE6"/>
<path d="M949.171 630.322H828.013V687.594H949.171V630.322Z" fill="#A0CFE6"/>
<path d="M949.171 698.407H828.013V755.679H949.171V698.407Z" fill="#A0CFE6"/>
<path d="M377.561 722.251L370.273 722.568C373.957 724.707 377.561 722.251 377.561 722.251Z" fill="white"/>
<path d="M341.242 470.864C284.683 483.023 292.762 590.121 290.228 688.783L299.139 725.736L370.274 722.568C365.244 719.676 360.015 708.428 363.224 671.355C368.729 606.915 367.145 581.17 367.145 581.17L431.625 434.425C431.625 434.425 362.748 466.23 341.242 470.864Z" fill="white"/>
<path d="M358.154 681.614L365.996 679.752L364.412 579.982L358.154 681.614Z" fill="#E6E6E7"/>
<path d="M390.83 883.333L390.552 925H495.709L497.135 880.204L390.83 883.333Z" fill="#343444"/>
<path d="M509.651 883.333L510.998 925H616.234L615.996 886.462L509.651 883.333Z" fill="#343444"/>
<path d="M638.216 722.409L635.681 722.251C635.681 722.251 637.107 724.825 638.216 722.409Z" fill="#F0F1F1"/>
<path d="M656.396 470.864C634.849 466.23 566.012 434.425 566.012 434.425L630.532 581.17C630.532 581.17 632.037 606.915 637.582 671.355C640.711 707.675 639.721 719.201 638.256 722.37L698.538 725.697L707.449 688.743C704.875 590.121 712.955 483.023 656.396 470.864Z" fill="#F0F1F1"/>
<path d="M455.429 453.199L361.243 488.608L361.164 828.953L636.117 829.071L636.235 488.687L547.357 441L455.429 453.199Z" fill="#D34A4A"/>
<path d="M489.253 494.628L474.836 697.061L501.017 742.886L528.108 699.081L510.641 494.628H489.253Z" fill="#3D3D77"/>
<path d="M499.63 448.367C499.63 448.367 478.282 448.803 473.093 458.388C461.607 479.538 489.253 497.678 489.253 497.678H510.601C510.601 497.678 533.494 481.241 526.999 465.359C521.81 452.526 499.63 448.367 499.63 448.367Z" fill="#262260"/>
<path d="M427.704 440.564L460.736 486.192L500.818 446.664L433.764 402.938L427.704 440.564Z" fill="#EA5E5E"/>
<path d="M498.442 446.664L538.524 486.232L568.586 443.654L565.536 402.977L498.442 446.664Z" fill="#EA5E5E"/>
<path d="M433.724 437.554L365.521 468.329L352.173 550.672C352.173 550.672 347.183 785.583 345.519 924.96H503.274L507.75 711.121L433.724 437.554Z" fill="white"/>
<path d="M413.485 437.554L395.701 510.749L424.456 538.949L421.842 561.089L507.75 711.201L429.922 421.949L413.485 437.554Z" fill="#F0F1F1"/>
<path d="M375.581 824.002H436.735V815.962L375.581 815.922V824.002Z" fill="#D0D2D3"/>
<path d="M633.107 468.448L564.903 437.634L490.719 711.201L490.838 925.04H652.91C651.286 785.622 646.415 550.831 646.415 550.831L633.107 468.448Z" fill="#F0F1F1"/>
<path d="M585.142 437.634L568.745 421.989L490.758 711.2L585.776 561.168L574.131 538.988L602.886 510.828L585.142 437.634Z" fill="white"/>
<path d="M508.304 740.391C504.977 740.391 502.245 743.084 502.245 746.411C502.245 749.738 504.978 752.471 508.265 752.471C511.592 752.471 514.325 749.778 514.325 746.451C514.325 743.124 511.632 740.391 508.304 740.391Z" fill="#D0D2D3"/>
<path d="M508.265 803.841C504.938 803.802 502.245 806.535 502.205 809.862C502.205 813.189 504.898 815.922 508.265 815.922C511.592 815.922 514.285 813.228 514.325 809.862C514.325 806.535 511.632 803.841 508.265 803.841Z" fill="#D0D2D3"/>
<path d="M508.661 871.253C505.334 871.253 502.601 873.946 502.601 877.273C502.601 880.64 505.334 883.333 508.661 883.333C511.988 883.333 514.721 880.64 514.721 877.313C514.721 873.986 511.988 871.253 508.661 871.253Z" fill="#D0D2D3"/>
<path d="M559.913 824.041L621.026 824.081V816.001H559.913V824.041Z" fill="#D0D2D3"/>
<path d="M428.337 716.032L648.831 758.254V739.48L431.466 695.674L428.337 716.032Z" fill="#D0D2D3"/>
<path d="M523.197 652.384L525.019 674.683L635.127 689.02L634.612 669.256L523.197 652.384Z" fill="#D0D2D3"/>
<path d="M628.512 679.752L636.315 681.614L630.057 579.982L628.512 679.752Z" fill="#D0D2D3"/>
<path d="M392.097 631.946C389.245 638.323 399.702 644.977 399.702 644.977C399.702 644.977 374.63 638.165 365.6 640.898C356.57 643.591 351.539 654.8 350.312 662.642C349.084 670.524 357.005 685.099 370.749 689.971C384.532 694.882 426.516 700.982 430.516 696.11C434.517 691.238 441.25 652.621 441.25 652.621L407.702 629.966C407.702 629.926 394.989 625.57 392.097 631.946Z" fill="#FFBA7F"/>
<path d="M649.147 682.96L439.309 641.452L427.704 707.754C427.704 707.754 621.7 745.619 666.773 753.025C711.806 760.472 706.063 678.128 706.063 678.128L649.147 682.96Z" fill="#F0F1F1"/>
<path d="M348.767 739.48V758.254L569.26 716.032L566.131 695.674L348.767 739.48Z" fill="#D0D2D3"/>
<path d="M583.439 643.116C558.922 641.452 544.624 649.572 544.624 649.572C544.624 649.572 551.397 688.228 555.358 693.06C559.358 697.932 577.775 678.128 591.559 673.217C605.342 668.306 618.689 670.286 627.165 669.256C635.087 668.306 605.896 644.621 583.439 643.116Z" fill="#FFBA7F"/>
<path d="M348.45 676.703L291.574 678.168C291.574 678.168 285.791 760.511 330.864 753.065C375.898 745.619 569.894 707.794 569.894 707.794L558.289 635.234L348.45 676.703Z" fill="white"/>
<path d="M395.82 683.159C388.255 684.307 378.789 683.99 375.502 680.941C373.363 679.396 370.947 672.861 369.877 663.909C367.461 646.086 368.253 619.034 368.016 597.726L361.758 597.805C361.995 618.955 361.164 646.047 363.659 664.741C365.045 674.168 366.748 681.535 371.422 685.733C378.155 691.08 388.453 690.367 396.612 689.377C403.227 688.466 408.415 687.04 408.494 687L406.831 680.98C406.87 680.98 401.999 682.327 395.82 683.159Z" fill="#BBBDBF"/>
<path d="M402.83 678.643C398.592 679.554 395.662 682.564 396.256 685.376C396.85 688.188 400.771 689.733 404.969 688.862C409.168 687.951 412.138 684.941 411.544 682.129C410.95 679.277 407.068 677.732 402.83 678.643Z" fill="#57585A"/>
<path d="M457.766 584.933L451.706 586.517C457.092 607.152 464.935 633.016 467.311 650.879C468.618 659.79 468.024 666.682 466.36 668.781C464.024 672.583 454.954 675.395 447.349 676.267C441.17 677.099 436.14 677.059 436.101 677.059V683.317C436.18 683.317 441.566 683.317 448.181 682.445C456.3 681.218 466.44 679.237 471.549 672.306C474.955 667.038 474.678 659.473 473.529 650.047C471.034 631.313 463.113 605.41 457.766 584.933Z" fill="#BBBDBF"/>
<path d="M439.428 673.732C435.111 673.97 431.744 676.504 431.902 679.396C432.061 682.247 435.705 684.386 440.022 684.149C444.339 683.911 447.706 681.376 447.547 678.485C447.389 675.633 443.745 673.494 439.428 673.732Z" fill="#57585A"/>
<path d="M401.801 531.384C373.838 535.384 356.767 567.149 361.283 601.409L369.362 600.34C367.303 584.774 370.194 570.08 376.413 559.109C382.67 548.098 391.939 540.929 402.87 539.503C413.762 538.038 424.614 542.513 433.526 551.465C442.398 560.416 449.092 573.803 451.151 589.369L459.231 588.299C454.637 553.999 429.843 527.859 401.801 531.384Z" fill="#57585A"/>
<path d="M409.801 424.722C402.276 434.544 395.741 447.1 393.206 460.408C392.216 465.675 391.82 471.062 391.82 476.33C391.859 497.44 397.602 537.523 397.682 537.761L405.524 535.463C405.524 535.424 405.326 531.027 403.86 523.977C402.395 516.888 399.702 486.152 399.702 476.369C399.702 471.498 400.058 466.547 400.929 461.873C403.108 450.149 409.128 438.505 416.02 429.514C422.832 420.523 430.912 414.345 435.586 413.315L433.685 405.75C425.763 407.809 417.446 414.939 409.801 424.722Z" fill="#57585A"/>
<path d="M589.42 424.722C581.776 414.939 573.459 407.809 565.577 405.71L563.676 413.315C568.31 414.345 576.39 420.523 583.202 429.514C590.133 438.465 596.114 450.149 598.292 461.873C599.124 466.468 599.52 472.448 599.52 478.944C599.52 505.164 593.54 539.899 593.54 539.939L601.263 541.286C601.263 541.167 607.323 506.233 607.362 478.944C607.362 472.131 607.006 465.794 606.016 460.408C603.481 447.1 596.985 434.544 589.42 424.722Z" fill="#57585A"/>
<path d="M589.183 537.76C573.617 537.76 561.022 550.356 561.022 565.921C561.022 581.447 573.617 594.082 589.183 594.082C604.709 594.082 617.343 581.487 617.343 565.921C617.343 550.356 604.709 537.76 589.183 537.76Z" fill="#929597"/>
<path d="M589.182 552.336C581.697 552.336 575.597 558.396 575.597 565.882C575.597 573.367 581.697 579.427 589.182 579.427C596.668 579.427 602.728 573.367 602.728 565.882C602.728 558.396 596.668 552.336 589.182 552.336Z" fill="#D0D2D3"/>
<path d="M359.738 266.887C346.272 270.808 349.361 291.047 349.361 298.573C349.361 306.098 360.61 332.793 368.175 335.685C387.305 343.131 387.345 315.208 387.345 315.208V282.73C387.345 282.73 373.205 262.966 359.738 266.887Z" fill="#FFBA7F"/>
<path d="M634.176 267.204C620.71 263.283 606.57 283.007 606.57 283.007V315.485C606.57 315.485 606.53 344.24 625.7 336.002C633.146 332.793 644.553 306.415 644.553 298.89C644.553 291.364 647.682 271.125 634.176 267.204Z" fill="#FFBA7F"/>
<path d="M531.039 124.578H464.063C415.465 124.539 376.056 175.949 376.017 239.32V326.694C375.977 390.105 442.081 434.544 463.984 441.515C487.036 448.842 509.612 447.813 530.96 441.515C553.972 434.703 618.967 390.145 619.007 326.773L619.046 239.439C619.046 176.028 579.637 124.618 531.039 124.578Z" fill="#FFBA7F"/>
<path d="M376.017 288.988C385.008 281.74 407.465 159.631 408.574 153.175L370.194 165.413C370.194 165.413 368.174 295.325 376.017 288.988Z" fill="#3B2314"/>
<path d="M590.371 160.898C590.371 160.898 613.105 285.74 620.155 291.681C627.205 297.622 625.463 180.028 625.463 180.028L590.371 160.898Z" fill="#3B2314"/>
<path d="M443.348 280.512C435.387 280.512 428.931 286.968 428.931 294.929C428.931 302.89 435.387 309.346 443.348 309.346C451.309 309.346 457.765 302.89 457.765 294.929C457.765 286.968 451.309 280.512 443.348 280.512Z" fill="#221F1F"/>
<path d="M553.179 280.552C545.218 280.552 538.762 287.007 538.762 294.969C538.762 302.93 545.218 309.386 553.179 309.386C561.14 309.386 567.596 302.93 567.596 294.969C567.596 287.007 561.14 280.552 553.179 280.552Z" fill="#221F1F"/>
<path d="M589.816 256.668C573.023 245.42 540.981 249.341 536.069 249.816C531.792 250.212 523.038 254.054 523.474 258.332C523.91 262.609 538.921 265.778 543.199 265.342C559.477 263.718 574.567 262.174 597.54 267.481C601.738 268.471 593.381 259.084 589.816 256.668Z" fill="#3B2314"/>
<path d="M462.598 250.49C457.726 250.014 425.644 246.093 408.851 257.302C405.286 259.678 396.929 269.184 401.088 268.115C424.496 262.174 439.15 264.392 455.429 266.016C459.707 266.451 474.757 263.322 475.193 259.045C475.589 254.728 466.875 250.925 462.598 250.49Z" fill="#3B2314"/>
<path d="M453.924 372.005C460.934 386.58 471.272 410.305 502.601 410.265C535.435 410.225 555.754 360.083 555.754 360.083C514.364 379.728 490.759 382.065 453.924 372.005Z" fill="#D15C58"/>
<path d="M462.162 374.104C464.776 382.698 476.896 386.263 501.334 384.52C533.732 382.184 540.941 374.222 544.941 364.994C518.84 376.955 483.233 378.658 462.162 374.104Z" fill="white"/>
<path d="M502.125 395.531C502.125 395.531 495.986 390.66 488.738 390.66C481.49 390.66 467.865 395.214 467.865 395.214C474.123 403.849 485.609 410.107 501.65 410.146C521.969 410.265 534.326 393.828 534.326 393.828C534.326 393.828 521.652 390.739 512.819 390.66C507.235 390.62 502.125 395.531 502.125 395.531Z" fill="#F88976"/>
<path d="M516.741 341.982C504.186 352.438 486.402 349.27 481.213 341.982C481.213 341.982 486.442 360.756 498.997 360.201C511.513 359.568 529.297 331.526 516.741 341.982Z" fill="#F69D5E"/>
<path d="M531.831 90.0012C476.183 77.1289 445.29 98.6356 445.29 98.6356C445.29 98.6356 437.131 92.1004 443.428 83.6641C428.021 85.7632 423.783 101.646 418.872 113.845C403.465 108.933 391.067 115.469 391.067 115.469C391.067 115.469 403.465 125.054 390.117 136.025C352.728 166.879 370.472 202.882 370.472 202.882C370.472 202.882 384.255 237.142 390.79 230.25C415.347 204.308 434.635 190.603 438.834 170.998C438.834 170.998 464.935 204.783 500.066 212.744C529.059 219.279 564.943 224.903 580.113 221.854C567.003 208.744 563.28 183.989 563.28 183.989C563.28 183.989 604.907 260.273 624.987 203.634C646.375 143.55 571.597 99.1901 531.831 90.0012Z" fill="#3B2314"/>
<path d="M478.757 280.789C478.757 280.789 478.757 312.871 463.39 320.674C451.151 326.852 416.772 326.258 407.385 317.466C397.959 308.673 393.998 277.74 393.998 277.74" stroke="#221F1F" stroke-width="3.94785" stroke-miterlimit="10"/>
<path d="M391.146 280.116C391.146 280.116 448.537 268.392 481.609 281.304" stroke="#221F1F" stroke-width="8.53277" stroke-miterlimit="10" stroke-linecap="round"/>
<path d="M396.533 284.116L366.273 263.441" stroke="#221F1F" stroke-width="7.71556" stroke-miterlimit="10"/>
<path d="M517.969 280.789C517.969 280.789 517.969 313.029 533.416 320.832C545.733 327.05 580.192 326.417 589.658 317.624C599.124 308.791 603.124 277.779 603.124 277.779" stroke="#221F1F" stroke-width="3.94785" stroke-miterlimit="10"/>
<path d="M515.117 281.304C550.763 269.422 605.896 280.116 605.896 280.116" stroke="#221F1F" stroke-width="8.56533" stroke-miterlimit="10" stroke-linecap="round"/>
<path d="M600.51 284.116L630.77 263.441" stroke="#221F1F" stroke-width="7.71556" stroke-miterlimit="10"/>
<path d="M481.57 286.73C481.57 286.73 491.907 281.462 499.037 281.462C507.631 281.462 515.117 285.78 515.117 285.78" stroke="#221F1F" stroke-width="7.12929" stroke-miterlimit="10" stroke-linecap="square"/>
</g>
<defs>
<clipPath id="clip0_701_5601">
<rect width="898.172" height="851" fill="white" transform="translate(51 74)"/>
</clipPath>
</defs>
</svg>
