<svg width="48" height="48" viewBox="0 0 48 48" fill="none" xmlns="http://www.w3.org/2000/svg">
<path d="M24 28C24.5667 28 25.042 27.808 25.426 27.424C25.8087 27.0413 26 26.5667 26 26V22H30C30.5667 22 31.042 21.808 31.426 21.424C31.8087 21.0413 32 20.5667 32 20C32 19.4333 31.8087 18.958 31.426 18.574C31.042 18.1913 30.5667 18 30 18H26V14C26 13.4333 25.8087 12.958 25.426 12.574C25.042 12.1913 24.5667 12 24 12C23.4333 12 22.9587 12.1913 22.576 12.574C22.192 12.958 22 13.4333 22 14V18H18C17.4333 18 16.9587 18.1913 16.576 18.574C16.192 18.958 16 19.4333 16 20C16 20.5667 16.192 21.0413 16.576 21.424C16.9587 21.808 17.4333 22 18 22H22V26C22 26.5667 22.192 27.0413 22.576 27.424C22.9587 27.808 23.4333 28 24 28ZM24 43.25C23.7333 43.25 23.4667 43.2 23.2 43.1C22.9333 43 22.7 42.8667 22.5 42.7C17.6333 38.4 14 34.4087 11.6 30.726C9.2 27.042 8 23.6 8 20.4C8 15.4 9.60867 11.4167 12.826 8.45C16.042 5.48333 19.7667 4 24 4C28.2333 4 31.958 5.48333 35.174 8.45C38.3913 11.4167 40 15.4 40 20.4C40 23.6 38.8 27.042 36.4 30.726C34 34.4087 30.3667 38.4 25.5 42.7C25.3 42.8667 25.0667 43 24.8 43.1C24.5333 43.2 24.2667 43.25 24 43.25Z" fill="#5A189A"/>
</svg>
