<svg width="32" height="32" viewBox="0 0 32 32" fill="none" xmlns="http://www.w3.org/2000/svg">
<path fill-rule="evenodd" clip-rule="evenodd" d="M8 2.66663C6.93913 2.66663 5.92172 3.08805 5.17157 3.8382C4.42143 4.58834 4 5.60576 4 6.66663V25.3333C4 26.3942 4.42143 27.4116 5.17157 28.1617C5.92172 28.9119 6.93913 29.3333 8 29.3333H16C17.0609 29.3333 18.0783 28.9119 18.8284 28.1617C19.5786 27.4116 20 26.3942 20 25.3333V6.66663C20 5.60576 19.5786 4.58834 18.8284 3.8382C18.0783 3.08805 17.0609 2.66663 16 2.66663H8ZM21.724 9.72396C21.974 9.474 22.3131 9.33358 22.6667 9.33358C23.0202 9.33358 23.3593 9.474 23.6093 9.72396L28.9427 15.0573C29.1926 15.3073 29.333 15.6464 29.333 16C29.333 16.3535 29.1926 16.6926 28.9427 16.9426L23.6093 22.276C23.3579 22.5188 23.0211 22.6532 22.6715 22.6502C22.3219 22.6472 21.9875 22.5069 21.7402 22.2597C21.493 22.0125 21.3528 21.6781 21.3498 21.3285C21.3467 20.9789 21.4811 20.6421 21.724 20.3906L24.7813 17.3333H13.3333C12.9797 17.3333 12.6406 17.1928 12.3905 16.9428C12.1405 16.6927 12 16.3536 12 16C12 15.6463 12.1405 15.3072 12.3905 15.0571C12.6406 14.8071 12.9797 14.6666 13.3333 14.6666H24.7813L21.724 11.6093C21.474 11.3593 21.3336 11.0202 21.3336 10.6666C21.3336 10.3131 21.474 9.974 21.724 9.72396Z" fill="#F9F9F9"/>
</svg>
