<svg width="970" height="195" viewBox="0 0 970 195" fill="none" xmlns="http://www.w3.org/2000/svg">
<path d="M76.2956 152.267H58.3198L28.2548 106.749V152.267H10.2789V78.4714H28.2548L58.3198 124.2V78.4714H76.2956V152.267ZM98.3664 87.5119C95.2127 87.5119 92.6197 86.6008 90.5873 84.7787C88.625 82.8865 87.6439 80.5738 87.6439 77.8407C87.6439 75.0374 88.625 72.7247 90.5873 70.9026C92.6197 69.0104 95.2127 68.0643 98.3664 68.0643C101.45 68.0643 103.973 69.0104 105.935 70.9026C107.968 72.7247 108.984 75.0374 108.984 77.8407C108.984 80.5738 107.968 82.8865 105.935 84.7787C103.973 86.6008 101.45 87.5119 98.3664 87.5119ZM107.302 93.609V152.267H89.3259V93.609H107.302ZM195.176 92.9783C202.464 92.9783 208.246 95.1858 212.521 99.6009C216.866 104.016 219.038 110.148 219.038 117.997V152.267H201.168V120.415C201.168 116.631 200.151 113.722 198.119 111.69C196.157 109.588 193.424 108.536 189.92 108.536C186.415 108.536 183.647 109.588 181.615 111.69C179.653 113.722 178.671 116.631 178.671 120.415V152.267H160.801V120.415C160.801 116.631 159.785 113.722 157.752 111.69C155.79 109.588 153.057 108.536 149.553 108.536C146.049 108.536 143.28 109.588 141.248 111.69C139.286 113.722 138.305 116.631 138.305 120.415V152.267H120.329V93.609H138.305V100.968C140.127 98.5147 142.509 96.5874 145.453 95.1858C148.396 93.7141 151.725 92.9783 155.439 92.9783C159.855 92.9783 163.779 93.9244 167.213 95.8166C170.717 97.7087 173.45 100.407 175.413 103.911C177.445 100.687 180.213 98.0592 183.717 96.0268C187.221 93.9944 191.041 92.9783 195.176 92.9783ZM228.036 122.833C228.036 116.806 229.157 111.515 231.4 106.959C233.713 102.404 236.831 98.9001 240.756 96.4473C244.681 93.9944 249.061 92.768 253.896 92.768C258.031 92.768 261.64 93.609 264.724 95.2909C267.877 96.9729 270.295 99.1805 271.977 101.914V93.609H289.953V152.267H271.977V143.963C270.225 146.696 267.772 148.903 264.619 150.585C261.535 152.267 257.926 153.108 253.791 153.108C249.026 153.108 244.681 151.882 240.756 149.429C236.831 146.906 233.713 143.367 231.4 138.812C229.157 134.186 228.036 128.86 228.036 122.833ZM271.977 122.938C271.977 118.453 270.716 114.914 268.193 112.321C265.74 109.728 262.727 108.431 259.152 108.431C255.578 108.431 252.53 109.728 250.007 112.321C247.554 114.844 246.327 118.348 246.327 122.833C246.327 127.318 247.554 130.892 250.007 133.555C252.53 136.148 255.578 137.445 259.152 137.445C262.727 137.445 265.74 136.148 268.193 133.555C270.716 130.962 271.977 127.423 271.977 122.938ZM311.998 87.5119C308.845 87.5119 306.252 86.6008 304.219 84.7787C302.257 82.8865 301.276 80.5738 301.276 77.8407C301.276 75.0374 302.257 72.7247 304.219 70.9026C306.252 69.0104 308.845 68.0643 311.998 68.0643C315.082 68.0643 317.605 69.0104 319.567 70.9026C321.6 72.7247 322.616 75.0374 322.616 77.8407C322.616 80.5738 321.6 82.8865 319.567 84.7787C317.605 86.6008 315.082 87.5119 311.998 87.5119ZM320.934 93.609V152.267H302.958V93.609H320.934Z" fill="#7B2CBF"/>
<path d="M509.127 115.264C509.127 107.976 510.704 101.493 513.858 95.8166C517.011 90.0699 521.391 85.6197 526.998 82.466C532.674 79.2423 539.087 77.6304 546.235 77.6304C554.995 77.6304 562.494 79.9431 568.731 84.5685C574.969 89.1939 579.138 95.5012 581.241 103.49H561.478C560.006 100.407 557.904 98.0592 555.171 96.4473C552.507 94.8354 549.459 94.0295 546.025 94.0295C540.489 94.0295 536.003 95.9567 532.569 99.8112C529.135 103.666 527.418 108.817 527.418 115.264C527.418 121.712 529.135 126.863 532.569 130.717C536.003 134.572 540.489 136.499 546.025 136.499C549.459 136.499 552.507 135.693 555.171 134.081C557.904 132.469 560.006 130.121 561.478 127.038H581.241C579.138 135.027 574.969 141.334 568.731 145.96C562.494 150.515 554.995 152.793 546.235 152.793C539.087 152.793 532.674 151.216 526.998 148.062C521.391 144.839 517.011 140.388 513.858 134.712C510.704 129.035 509.127 122.553 509.127 115.264ZM618.95 153.108C613.203 153.108 608.017 151.882 603.392 149.429C598.837 146.976 595.228 143.472 592.565 138.917C589.971 134.361 588.675 129.035 588.675 122.938C588.675 116.911 590.007 111.62 592.67 107.065C595.333 102.439 598.977 98.9001 603.602 96.4473C608.228 93.9944 613.414 92.768 619.16 92.768C624.907 92.768 630.093 93.9944 634.718 96.4473C639.344 98.9001 642.988 102.439 645.651 107.065C648.314 111.62 649.646 116.911 649.646 122.938C649.646 128.965 648.279 134.291 645.546 138.917C642.883 143.472 639.204 146.976 634.508 149.429C629.883 151.882 624.697 153.108 618.95 153.108ZM618.95 137.55C622.384 137.55 625.293 136.289 627.675 133.766C630.128 131.243 631.355 127.634 631.355 122.938C631.355 118.243 630.163 114.633 627.78 112.11C625.468 109.588 622.594 108.326 619.16 108.326C615.656 108.326 612.748 109.588 610.435 112.11C608.123 114.563 606.966 118.173 606.966 122.938C606.966 127.634 608.088 131.243 610.33 133.766C612.643 136.289 615.516 137.55 618.95 137.55ZM694.924 92.9783C701.792 92.9783 707.258 95.2209 711.323 99.7061C715.458 104.121 717.525 110.218 717.525 117.997V152.267H699.654V120.415C699.654 116.491 698.638 113.442 696.606 111.27C694.573 109.097 691.84 108.011 688.406 108.011C684.972 108.011 682.239 109.097 680.207 111.27C678.174 113.442 677.158 116.491 677.158 120.415V152.267H659.182V93.609H677.158V101.388C678.98 98.795 681.433 96.7626 684.517 95.2909C687.6 93.7491 691.069 92.9783 694.924 92.9783ZM765.758 92.9783C772.626 92.9783 778.093 95.2209 782.157 99.7061C786.292 104.121 788.359 110.218 788.359 117.997V152.267H770.489V120.415C770.489 116.491 769.473 113.442 767.44 111.27C765.408 109.097 762.675 108.011 759.241 108.011C755.807 108.011 753.073 109.097 751.041 111.27C749.009 113.442 747.993 116.491 747.993 120.415V152.267H730.017V93.609H747.993V101.388C749.815 98.795 752.268 96.7626 755.351 95.2909C758.435 93.7491 761.904 92.9783 765.758 92.9783ZM856.145 121.992C856.145 123.674 856.04 125.426 855.83 127.248H815.148C815.428 130.892 816.584 133.696 818.617 135.658C820.719 137.55 823.277 138.496 826.291 138.496C830.776 138.496 833.894 136.604 835.646 132.82H854.779C853.797 136.674 852.01 140.143 849.417 143.227C846.894 146.31 843.706 148.728 839.851 150.48C835.997 152.232 831.687 153.108 826.921 153.108C821.175 153.108 816.059 151.882 811.573 149.429C807.088 146.976 803.584 143.472 801.061 138.917C798.538 134.361 797.277 129.035 797.277 122.938C797.277 116.841 798.503 111.515 800.956 106.959C803.479 102.404 806.983 98.9001 811.468 96.4473C815.953 93.9944 821.104 92.768 826.921 92.768C832.598 92.768 837.644 93.9594 842.059 96.3422C846.474 98.7249 849.908 102.124 852.361 106.539C854.884 110.954 856.145 116.105 856.145 121.992ZM837.749 117.261C837.749 114.178 836.698 111.725 834.595 109.903C832.493 108.081 829.865 107.17 826.711 107.17C823.697 107.17 821.14 108.046 819.037 109.798C817.005 111.55 815.743 114.038 815.253 117.261H837.749ZM862.054 122.938C862.054 116.841 863.281 111.515 865.733 106.959C868.256 102.404 871.725 98.9001 876.141 96.4473C880.626 93.9944 885.742 92.768 891.488 92.768C898.847 92.768 904.979 94.6952 909.885 98.5497C914.861 102.404 918.119 107.836 919.661 114.844H900.529C898.917 110.358 895.798 108.116 891.173 108.116C887.879 108.116 885.251 109.412 883.289 112.005C881.327 114.528 880.345 118.173 880.345 122.938C880.345 127.704 881.327 131.383 883.289 133.976C885.251 136.499 887.879 137.76 891.173 137.76C895.798 137.76 898.917 135.518 900.529 131.032H919.661C918.119 137.9 914.861 143.297 909.885 147.221C904.909 151.146 898.777 153.108 891.488 153.108C885.742 153.108 880.626 151.882 876.141 149.429C871.725 146.976 868.256 143.472 865.733 138.917C863.281 134.361 862.054 129.035 862.054 122.938ZM961.97 137.024V152.267H952.824C946.306 152.267 941.225 150.69 937.581 147.537C933.937 144.313 932.115 139.092 932.115 131.873V108.536H924.967V93.609H932.115V79.3124H950.091V93.609H961.864V108.536H950.091V132.084C950.091 133.836 950.511 135.097 951.352 135.868C952.193 136.639 953.595 137.024 955.557 137.024H961.97Z" fill="#C77DFF"/>
<path d="M416.456 0C428.711 0.195087 439.264 4.38059 448.06 12.858C450.419 15.1281 450.597 18.1431 448.539 20.2713C446.535 22.364 443.449 22.2754 441.09 20.0585C426.867 6.70389 406.241 6.68616 392.088 20.023C389.712 22.2576 386.679 22.3818 384.639 20.3245C382.511 18.1785 382.706 15.1458 385.154 12.7871C393.933 4.36285 404.432 0.230557 416.456 0Z" fill="#C77DFF"/>
<path d="M417.786 20.0939C423.178 20.2003 428.906 22.3995 433.73 26.8688C436.089 29.0502 436.391 32.1538 434.475 34.2998C432.524 36.499 429.385 36.4812 426.902 34.2466C420.713 28.6955 412.448 28.7132 406.188 34.2821C404.201 36.0378 402.073 36.428 400.051 35.3816C398.154 34.4062 397.036 32.4021 397.533 30.2207C397.781 29.1034 398.437 27.9151 399.253 27.0993C403.722 22.6123 410.125 20.0939 417.786 20.0939Z" fill="#C77DFF"/>
<path d="M416.562 40.1524C419.276 40.1524 421.546 42.4048 421.581 45.1005C421.617 47.8672 419.276 50.2082 416.509 50.155C413.796 50.1196 411.561 47.814 411.579 45.1183C411.579 42.4225 413.849 40.1524 416.562 40.1524Z" fill="#C77DFF"/>
<path d="M331.135 116.75C332.483 113.859 334.77 112.884 337.874 113.026C341.528 113.203 345.181 113.061 349.047 113.061C344.117 102.332 343.407 91.5309 347.362 80.5883C350.377 72.2173 355.804 65.673 363.076 60.5476C375.898 51.5204 400.231 49.1261 416.813 67.1096C425.096 58.3839 435.24 53.6841 447.336 53.6131C456.044 53.5599 464.007 56.096 471.136 61.1328C476.51 64.9282 480.749 69.7344 483.817 75.5515C486.885 81.3509 488.463 87.576 488.57 94.138C488.676 100.7 487.24 106.925 484.331 113.097C488.322 113.097 492.081 113.097 495.841 113.097C496.622 113.097 497.42 113.044 498.165 113.203C500.701 113.682 502.474 116.041 502.244 118.542C502.013 121.149 499.92 123.099 497.171 123.117C491.035 123.153 484.916 123.153 478.78 123.099C477.68 123.082 476.936 123.436 476.173 124.199C461.541 138.866 446.839 153.48 432.261 168.2C428.448 172.049 424.581 175.613 419.013 176.606C417.452 176.606 415.891 176.606 414.33 176.606C408.708 175.596 404.824 171.978 400.976 168.094C386.468 153.373 371.784 138.795 357.17 124.128C356.39 123.348 355.609 123.064 354.545 123.082C348.976 123.117 343.407 122.975 337.856 123.153C334.735 123.241 332.465 122.319 331.135 119.428C331.135 118.524 331.135 117.637 331.135 116.75ZM424.918 132.818C425.362 132.162 425.699 131.737 425.982 131.275C429.122 126.274 432.296 121.308 435.347 116.254C436.694 114.019 438.486 113.026 441.111 113.044C451.131 113.115 461.169 113.061 471.189 113.097C472.271 113.097 472.91 112.795 473.477 111.873C477.574 105.418 479.348 98.4299 478.283 90.857C476.634 79.0808 470.267 70.6211 459.378 66.0632C448.364 61.4875 437.83 63.0128 428.323 70.231C425.468 72.4124 423.056 75.1968 420.431 77.6797C418.108 79.8789 415.288 79.8789 412.983 77.6797C411.333 76.1013 409.755 74.4342 408.123 72.838C400.905 65.7972 392.286 62.729 382.248 63.8641C359.476 66.4534 347.221 92.8788 359.972 111.873C360.575 112.76 361.196 113.097 362.26 113.097C370.063 113.044 377.849 113.044 385.653 113.097C386.788 113.097 387.426 112.76 388.029 111.784C392.64 104.3 397.34 96.8692 401.969 89.3849C403.21 87.3631 404.842 86.0685 407.29 86.3877C409.719 86.7069 411.014 88.3208 411.706 90.5909C414.242 98.8378 416.831 107.049 419.403 115.278C421.212 121.042 423.021 126.806 424.918 132.818ZM370.791 123.099C370.684 123.277 370.578 123.436 370.471 123.614C370.915 123.951 371.429 124.235 371.819 124.625C384.908 137.696 397.979 150.766 411.049 163.837C414.738 167.526 418.729 167.526 422.418 163.837C435.488 150.766 448.577 137.696 461.648 124.625C462.056 124.217 462.428 123.773 463.013 123.117C456.576 123.117 450.457 123.153 444.356 123.082C443.256 123.064 442.671 123.436 442.121 124.341C437.493 131.825 432.793 139.238 428.182 146.723C426.905 148.798 425.255 150.146 422.737 149.791C420.307 149.454 419.066 147.805 418.374 145.517C415.182 135.159 411.936 124.82 408.691 114.48C407.556 110.862 406.421 107.244 405.197 103.36C404.718 104.07 404.399 104.495 404.115 104.956C401.135 109.727 398.05 114.427 395.23 119.286C393.616 122.053 391.558 123.259 388.313 123.153C382.46 122.958 376.625 123.099 370.791 123.099Z" fill="url(#paint0_linear_676_4241)"/>
<defs>
<linearGradient id="paint0_linear_676_4241" x1="416.699" y1="53.6123" x2="416.699" y2="176.606" gradientUnits="userSpaceOnUse">
<stop stop-color="#7B2CBF"/>
<stop offset="1" stop-color="#5A189A"/>
</linearGradient>
</defs>
</svg>
