<svg width="24" height="24" viewBox="0 0 24 24" fill="none" xmlns="http://www.w3.org/2000/svg">
<g clip-path="url(#clip0_908_4327)">
<path d="M5.25 11.9999L14.7 2.5499C15.3 1.9499 16.2 1.4999 17.25 1.4999C18.3 1.4999 19.2 1.9499 19.95 2.5499C21.45 4.0499 21.45 6.4499 19.95 7.7999L15.75 11.9999H17.85L20.85 8.9999C22.95 6.8999 22.95 3.5999 20.85 1.6499C19.8 0.599902 18.45 0.149902 17.1 0.149902C15.75 0.149902 14.55 0.449902 13.5 1.4999L4.05 11.0999C3.6 11.3999 3.3 11.8499 3 12.4499C3.75 12.1499 4.5 11.9999 5.25 11.9999Z" fill="#5A189A"/>
<path d="M10.95 8.3999L7.35 11.9999H14.4L10.95 8.3999ZM18.75 13.4999H5.25C2.4 13.4999 0 15.8999 0 18.7499C0 21.5999 2.4 23.9999 5.25 23.9999H18.75C21.6 23.9999 24 21.5999 24 18.7499C24 15.8999 21.6 13.4999 18.75 13.4999ZM18.75 22.4999H12V16.4999H5.25C3.6 16.4999 2.25 17.3999 1.5 18.2999C1.8 16.4999 3.3 14.9999 5.25 14.9999H18.75C20.85 14.9999 22.5 16.6499 22.5 18.7499C22.5 20.8499 20.85 22.4999 18.75 22.4999Z" fill="#5A189A"/>
</g>
<defs>
<clipPath id="clip0_908_4327">
<rect width="24" height="24" fill="white"/>
</clipPath>
</defs>
</svg>
