<svg width="24" height="24" viewBox="0 0 24 24" fill="none" xmlns="http://www.w3.org/2000/svg">
<g clip-path="url(#clip0_611_4194)">
<path d="M12 5.25C10.665 5.25 9.35993 5.64588 8.2499 6.38758C7.13987 7.12928 6.2747 8.18349 5.76381 9.41689C5.25292 10.6503 5.11925 12.0075 5.3797 13.3169C5.64015 14.6262 6.28302 15.829 7.22703 16.773C8.17103 17.717 9.37377 18.3599 10.6831 18.6203C11.9925 18.8808 13.3497 18.7471 14.5831 18.2362C15.8165 17.7253 16.8707 16.8601 17.6124 15.7501C18.3541 14.6401 18.75 13.335 18.75 12C18.7475 10.2106 18.0356 8.4951 16.7702 7.22977C15.5049 5.96444 13.7894 5.25248 12 5.25ZM12 16.5C11.11 16.5 10.24 16.2361 9.49993 15.7416C8.75991 15.2471 8.18314 14.5443 7.84254 13.7221C7.50195 12.8998 7.41283 11.995 7.58647 11.1221C7.7601 10.2492 8.18868 9.44736 8.81802 8.81802C9.44736 8.18868 10.2492 7.7601 11.1221 7.58647C11.995 7.41283 12.8998 7.50195 13.7221 7.84254C14.5443 8.18314 15.2471 8.75991 15.7416 9.49993C16.2361 10.24 16.5 11.11 16.5 12C16.5 13.1935 16.0259 14.3381 15.182 15.182C14.3381 16.0259 13.1935 16.5 12 16.5ZM10.875 2.625V1.125C10.875 0.826631 10.9935 0.540483 11.2045 0.329505C11.4155 0.118526 11.7016 0 12 0C12.2984 0 12.5845 0.118526 12.7955 0.329505C13.0065 0.540483 13.125 0.826631 13.125 1.125V2.625C13.125 2.92337 13.0065 3.20952 12.7955 3.4205C12.5845 3.63147 12.2984 3.75 12 3.75C11.7016 3.75 11.4155 3.63147 11.2045 3.4205C10.9935 3.20952 10.875 2.92337 10.875 2.625ZM17.8312 6.16875C17.7264 6.06423 17.6432 5.94004 17.5864 5.8033C17.5296 5.66655 17.5004 5.51994 17.5004 5.37187C17.5004 5.22381 17.5296 5.0772 17.5864 4.94045C17.6432 4.80371 17.7264 4.67952 17.8312 4.575L18.8906 3.51562C19.102 3.30428 19.3886 3.18555 19.6875 3.18555C19.9864 3.18555 20.273 3.30428 20.4844 3.51562C20.6957 3.72697 20.8145 4.01361 20.8145 4.3125C20.8145 4.61139 20.6957 4.89803 20.4844 5.10938L19.425 6.16875C19.3203 6.27313 19.196 6.35584 19.0592 6.41214C18.9225 6.46844 18.776 6.49724 18.6281 6.49688C18.3299 6.49558 18.0439 6.37784 17.8312 6.16875ZM24 12C24 12.2984 23.8815 12.5845 23.6705 12.7955C23.4595 13.0065 23.1734 13.125 22.875 13.125H21.375C21.0766 13.125 20.7905 13.0065 20.5795 12.7955C20.3685 12.5845 20.25 12.2984 20.25 12C20.25 11.7016 20.3685 11.4155 20.5795 11.2045C20.7905 10.9935 21.0766 10.875 21.375 10.875H22.875C23.1734 10.875 23.4595 10.9935 23.6705 11.2045C23.8815 11.4155 24 11.7016 24 12ZM20.4844 18.8906C20.5893 18.9951 20.6725 19.1193 20.7293 19.2561C20.786 19.3928 20.8153 19.5394 20.8153 19.6875C20.8153 19.8356 20.786 19.9822 20.7293 20.1189C20.6725 20.2557 20.5893 20.3799 20.4844 20.4844C20.3809 20.5905 20.2569 20.6743 20.1198 20.7307C19.9828 20.7872 19.8357 20.815 19.6875 20.8125C19.5396 20.8129 19.3931 20.7841 19.2564 20.7278C19.1197 20.6715 18.9954 20.5888 18.8906 20.4844L17.8312 19.425C17.6199 19.2137 17.5012 18.927 17.5012 18.6281C17.5012 18.3292 17.6199 18.0426 17.8312 17.8312C18.0426 17.6199 18.3292 17.5012 18.6281 17.5012C18.927 17.5012 19.2137 17.6199 19.425 17.8312L20.4844 18.8906ZM13.125 21.375V22.875C13.125 23.1734 13.0065 23.4595 12.7955 23.6705C12.5845 23.8815 12.2984 24 12 24C11.7016 24 11.4155 23.8815 11.2045 23.6705C10.9935 23.4595 10.875 23.1734 10.875 22.875V21.375C10.875 21.0766 10.9935 20.7905 11.2045 20.5795C11.4155 20.3685 11.7016 20.25 12 20.25C12.2984 20.25 12.5845 20.3685 12.7955 20.5795C13.0065 20.7905 13.125 21.0766 13.125 21.375ZM6.16875 17.8312C6.27363 17.9358 6.35685 18.06 6.41363 18.1967C6.47041 18.3335 6.49964 18.4801 6.49964 18.6281C6.49964 18.7762 6.47041 18.9228 6.41363 19.0595C6.35685 19.1963 6.27363 19.3205 6.16875 19.425L5.10938 20.4844C5.00463 20.5888 4.88034 20.6715 4.7436 20.7278C4.60687 20.7841 4.46037 20.8129 4.3125 20.8125C4.16433 20.815 4.01721 20.7872 3.88017 20.7307C3.74314 20.6743 3.61909 20.5905 3.51562 20.4844C3.41075 20.3799 3.32753 20.2557 3.27075 20.1189C3.21397 19.9822 3.18474 19.8356 3.18474 19.6875C3.18474 19.5394 3.21397 19.3928 3.27075 19.2561C3.32753 19.1193 3.41075 18.9951 3.51562 18.8906L4.575 17.8312C4.67952 17.7264 4.80371 17.6432 4.94045 17.5864C5.0772 17.5296 5.22381 17.5004 5.37187 17.5004C5.51994 17.5004 5.66655 17.5296 5.8033 17.5864C5.94004 17.6432 6.06423 17.7264 6.16875 17.8312ZM2.625 13.125H1.125C0.826631 13.125 0.540483 13.0065 0.329505 12.7955C0.118526 12.5845 0 12.2984 0 12C0 11.7016 0.118526 11.4155 0.329505 11.2045C0.540483 10.9935 0.826631 10.875 1.125 10.875H2.625C2.92337 10.875 3.20952 10.9935 3.4205 11.2045C3.63147 11.4155 3.75 11.7016 3.75 12C3.75 12.2984 3.63147 12.5845 3.4205 12.7955C3.20952 13.0065 2.92337 13.125 2.625 13.125ZM3.51562 5.10938C3.30428 4.89803 3.18555 4.61139 3.18555 4.3125C3.18555 4.01361 3.30428 3.72697 3.51562 3.51562C3.72697 3.30428 4.01361 3.18555 4.3125 3.18555C4.61139 3.18555 4.89803 3.30428 5.10938 3.51562L6.16875 4.575C6.27363 4.67952 6.35685 4.80371 6.41363 4.94045C6.47041 5.0772 6.49964 5.22381 6.49964 5.37187C6.49964 5.51994 6.47041 5.66655 6.41363 5.8033C6.35685 5.94004 6.27363 6.06423 6.16875 6.16875C5.95607 6.37784 5.67012 6.49558 5.37187 6.49688C5.224 6.49724 5.07751 6.46844 4.94077 6.41214C4.80404 6.35584 4.67974 6.27313 4.575 6.16875L3.51562 5.10938Z" fill="white"/>
</g>
<defs>
<clipPath id="clip0_611_4194">
<rect width="24" height="24" fill="white"/>
</clipPath>
</defs>
</svg>
