<svg width="1000" height="1000" viewBox="0 0 1000 1000" fill="none" xmlns="http://www.w3.org/2000/svg">
<rect width="1000" height="1000" fill="white"/>
<g clip-path="url(#clip0_701_4964)">
<path d="M542.595 946.706C430.201 951.294 327.212 889.133 247.39 817.11C178.348 754.72 118.941 682.238 82.6994 599.893C46.4583 517.777 34.5308 425.568 58.6151 339.782C69.6251 300.559 88.8925 262.024 121.922 234.499C181.101 185.184 274.915 182.202 348.315 212.25C421.485 242.528 476.764 300.1 520.345 361.343C549.935 312.028 586.635 264.547 637.097 231.747C687.559 198.946 753.619 182.661 812.797 198.717C878.857 216.608 926.567 272.576 944.458 332.901C962.349 393.226 954.551 457.681 938.036 518.465C910.74 619.848 860.278 715.726 790.778 798.301C733.663 866.196 655.447 928.586 561.633 934.091" fill="#9DCEF0"/>
<path d="M748.344 328.543C745.133 329.69 742.151 332.442 739.628 334.506C736.646 336.8 734.123 339.553 731.829 342.534C727.93 347.351 724.26 352.856 722.195 358.591C721.736 352.856 721.048 347.351 720.131 341.846C721.507 339.782 722.425 336.8 722.883 334.506C723.801 331.066 724.03 327.625 723.801 324.185C723.572 316.615 721.278 308.358 717.837 301.476C716.69 298.953 714.397 294.825 711.185 294.595C707.974 294.366 707.057 298.724 706.139 300.788C703.616 307.67 702.469 314.321 704.533 321.432C705.68 325.102 707.515 328.772 709.35 332.213C711.185 335.424 713.479 339.094 716.232 341.617V341.846V342.076C716.002 342.534 716.232 342.993 716.461 343.223C716.92 347.581 717.608 351.709 717.837 356.068C718.067 358.82 718.296 361.573 718.296 364.325C716.92 360.884 715.543 357.444 713.708 354.233C710.038 347.351 705.451 341.158 699.946 335.883C698.34 334.277 695.588 331.525 693.294 333.589C691.23 335.424 692.606 340.011 693.065 342.305C694.441 349.186 697.194 355.838 701.322 361.573C703.616 364.784 706.139 367.766 708.892 370.289C711.415 372.582 714.855 376.023 718.525 376.482C718.525 382.904 718.067 389.327 717.608 395.749C717.378 397.355 717.149 398.731 717.149 400.337C716.461 398.731 715.773 397.126 715.314 395.749C713.708 391.85 712.103 387.721 710.038 384.051C705.451 376.252 698.34 370.748 691.23 365.472C690.083 364.554 688.477 365.243 688.477 366.619C688.936 384.281 699.487 402.86 716.002 410.2C714.626 419.834 712.332 429.238 709.809 438.642C709.58 435.89 708.892 433.137 708.203 430.844C706.827 426.256 704.763 421.898 702.01 417.999C699.028 413.64 695.588 409.512 691.688 405.842C688.019 402.172 684.119 397.814 679.302 395.749C678.155 395.291 677.238 395.979 677.009 397.126C674.715 418.228 686.413 441.395 706.598 449.423C704.075 456.992 701.322 464.562 698.111 472.131C696.276 476.718 693.982 481.076 691.918 485.435C692.606 481.765 693.065 477.865 692.606 474.425C692.147 469.149 689.853 464.103 687.789 459.286C683.202 449.423 677.238 439.56 667.145 434.284C666.228 433.825 665.081 434.284 664.852 435.202C662.329 445.753 663.934 456.533 667.834 466.626C669.898 472.131 672.421 477.406 675.862 481.994C678.844 486.123 683.202 490.71 688.477 491.857C685.037 498.05 680.22 504.243 677.926 511.125C677.467 512.501 679.302 514.106 680.679 512.959C685.954 508.831 688.936 502.408 692.147 496.674C694.441 492.545 696.735 488.187 698.799 483.829C710.268 485.435 723.113 483.37 733.664 478.783C744.445 473.966 752.931 465.708 757.978 454.928C758.436 454.01 757.978 452.405 756.831 452.405C745.133 450.799 732.976 453.322 722.425 458.139C717.149 460.662 712.103 463.644 707.745 467.543C707.057 468.002 706.368 468.69 705.68 469.149C709.35 459.974 712.562 450.57 715.085 440.936C715.085 440.477 715.314 440.248 715.314 439.789C715.543 440.477 716.232 440.707 717.149 440.707C720.131 440.018 722.654 440.248 725.636 440.019C728.388 439.789 731.141 439.33 733.893 438.184C739.169 436.349 744.215 433.137 748.803 429.926C753.39 426.715 757.289 423.045 760.042 418.228C762.794 413.182 764.63 407.218 765.318 401.484C765.318 400.566 765.088 399.649 764.171 399.419C754.078 398.043 745.821 404.007 738.481 410.2C734.123 413.87 729.765 417.769 726.095 422.127C722.425 426.256 718.755 430.614 716.461 435.66C719.213 424.421 721.048 412.723 721.966 401.254H722.195C724.718 401.484 727.7 399.649 729.994 398.731C732.517 397.584 735.27 396.437 737.563 395.061C742.38 392.538 746.738 389.327 750.408 385.198C756.143 378.546 759.583 369.601 757.519 360.884C757.29 359.738 755.913 359.508 754.996 359.967C746.509 364.096 738.94 370.059 732.976 377.17C729.994 380.611 727.471 384.281 725.407 388.18C724.489 389.786 723.342 391.621 722.654 393.456C723.113 384.739 723.342 375.794 722.883 367.078H723.113C723.572 366.848 723.801 366.389 724.03 366.16C724.489 366.16 725.177 365.931 725.636 365.701C726.324 365.472 727.241 365.243 727.93 365.013C729.306 364.554 730.911 363.866 732.058 363.178C734.811 361.802 737.334 359.967 739.857 357.903C744.445 353.774 748.115 348.498 750.408 342.534C751.096 340.011 755.225 326.02 748.344 328.543Z" fill="#4B94BD"/>
<path d="M689.854 610.902C698.57 592.323 719.443 581.313 726.554 562.046C732.059 546.907 727.701 529.016 735.041 514.565C741.463 501.72 755.684 494.61 765.089 483.6C773.117 474.195 777.475 462.268 784.127 451.717C792.384 438.642 804.541 427.862 818.533 421.21C828.396 416.393 842.158 414.558 849.04 423.274C856.838 433.137 849.269 447.359 848.81 459.974C847.893 479.471 864.408 496.674 864.408 516.171C864.408 543.696 832.754 560.899 824.497 587.277C818.533 605.856 824.267 629.023 810.964 643.473C802.935 652.19 790.32 654.942 782.062 663.429C771.741 673.98 771.052 690.725 762.566 702.881C753.62 715.956 736.417 721.002 721.508 716.414C701.552 710.221 699.258 692.33 694.9 674.668C689.166 653.107 679.762 632.464 689.854 610.902Z" fill="#4B94BD"/>
<path d="M841.47 538.42C831.148 541.173 820.367 543.237 809.587 543.466C804.311 543.696 799.035 543.466 793.76 543.008C791.007 542.778 788.255 542.319 785.502 541.861C785.043 541.861 784.585 541.631 783.897 541.631C791.925 531.768 801.329 522.823 805.458 510.436C809.587 498.05 808.898 484.517 811.422 471.672C811.88 469.149 812.568 466.855 813.257 464.332C815.092 464.791 816.926 464.562 818.761 464.562C822.202 464.332 825.643 463.873 829.083 463.185C835.965 461.809 842.616 459.515 849.039 456.763C849.268 454.699 849.727 452.634 850.186 450.34C849.498 450.57 848.81 451.029 848.121 451.258C841.928 454.01 835.506 456.075 828.854 457.68C825.643 458.369 822.431 459.057 819.22 459.515C817.615 459.745 816.009 459.745 814.633 460.203C816.927 453.322 820.138 446.9 824.496 440.936C827.707 436.578 831.606 432.908 835.735 429.467C839.635 426.486 843.763 423.962 847.892 421.21C846.286 419.834 844.451 418.687 842.616 417.999C835.276 421.669 828.854 426.944 823.578 432.908C816.697 440.477 811.88 449.194 808.44 458.827C804.311 470.755 803.393 482.912 801.788 495.298C801.558 497.362 801.1 499.656 800.641 501.72C799.494 499.885 797.888 498.28 796.971 496.445C795.136 493.233 793.76 489.793 792.613 486.123C790.09 478.095 788.713 469.608 788.025 461.121C787.567 456.075 787.567 451.029 787.796 445.982C786.42 447.817 785.273 449.423 784.126 451.258C783.208 452.634 782.291 454.01 781.603 455.616C781.603 458.139 781.832 460.662 782.062 463.185C782.75 471.902 784.355 480.618 787.108 489.105C788.484 493.004 790.09 496.674 792.154 500.115C793.76 502.638 795.824 506.537 798.806 507.913C797.888 510.666 796.742 513.418 795.365 515.941C791.925 521.676 787.567 526.722 783.208 531.539C778.85 536.356 774.492 541.173 771.281 546.907C768.07 552.412 766.005 558.376 764.629 564.569C762.794 572.826 761.877 581.542 760.271 590.029C759.124 587.736 757.977 585.442 757.06 583.377C754.995 578.561 753.39 573.744 752.014 568.927C749.032 558.834 747.197 548.513 746.509 537.961C745.82 526.722 746.738 515.712 747.885 504.702C748.114 502.638 748.344 500.573 748.573 498.509C746.05 500.803 743.527 503.096 741.233 505.62C740.086 517.088 739.169 528.557 740.086 540.026C741.004 550.806 742.839 561.358 746.05 571.679C747.656 576.726 749.491 581.772 751.555 586.589C753.39 590.717 754.995 595.534 758.207 598.975C757.748 600.122 757.519 601.269 757.06 602.416C752.472 613.884 743.986 623.977 736.875 634.069C729.764 644.162 723.571 654.942 720.36 666.87C719.672 669.622 718.984 672.604 718.525 675.357C717.608 673.292 716.69 671.228 715.772 669.163C713.708 664.117 711.873 659.071 710.497 653.795C707.286 643.244 704.992 632.693 703.616 621.912C702.239 612.967 701.781 603.792 701.781 594.617C699.258 597.369 696.964 600.351 694.899 603.333C695.129 609.985 695.817 616.637 696.734 623.059C698.34 634.069 700.863 644.85 704.074 655.401C705.68 660.906 707.744 666.182 709.809 671.457C711.644 676.045 713.479 681.779 717.378 684.99C716.461 692.789 716.231 700.817 716.231 708.616C716.231 710.451 716.231 712.056 716.461 713.891C718.066 714.809 719.901 715.497 721.736 716.185C722.424 716.415 723.112 716.644 723.801 716.644C723.571 714.809 723.571 712.745 723.571 710.91C723.112 698.982 723.801 686.825 726.094 675.127C728.159 664.117 732.746 654.254 738.71 644.85C741.233 645.767 743.986 645.997 746.738 646.455C751.555 647.144 756.372 647.373 761.418 647.373C771.052 647.373 780.456 646.685 789.86 645.079C798.347 643.703 806.834 641.409 815.091 638.657C816.697 636.134 817.844 633.152 818.532 630.17C818.073 630.399 817.844 630.399 817.385 630.629C800.412 637.051 782.52 640.721 764.629 641.18C759.583 641.409 754.537 641.18 749.491 640.95C746.967 640.95 744.215 640.492 741.692 640.492C747.885 631.317 754.766 622.371 760.271 612.737C766.694 601.727 768.299 589.341 770.364 576.955C771.281 570.762 772.428 564.569 774.492 558.834C776.098 554.247 778.621 550.118 781.374 545.989C784.814 547.595 789.172 547.824 792.613 548.513C798.347 549.43 803.852 549.659 809.587 549.659C820.826 549.43 831.836 547.824 842.616 545.072C847.433 543.925 852.25 542.319 856.838 540.714C858.673 537.961 860.049 535.209 861.425 532.456C854.314 534.521 847.892 536.585 841.47 538.42Z" fill="#71B0D8"/>
<path d="M691.001 760.684C706.828 742.334 734.123 736.6 748.115 716.873C759.355 701.276 760.043 679.715 773.117 665.723C784.586 653.107 802.936 649.667 817.157 640.262C829.314 632.234 838.03 620.077 849.04 610.214C862.573 598.058 879.776 589.8 897.897 586.589C910.742 584.295 926.798 586.589 931.844 598.516C937.578 612.279 924.504 625.812 919.687 640.033C912.347 661.824 925.651 686.596 919.228 708.616C910.283 739.811 869.225 749.215 851.104 776.281C838.489 795.549 837.342 823.532 817.845 835.689C806.147 843.029 790.779 842.112 778.622 848.993C763.483 857.709 757.29 876.288 743.986 887.298C729.765 899.226 708.434 899.455 693.065 889.363C672.422 875.83 675.633 854.957 676.321 833.395C676.78 808.164 672.651 782.016 691.001 760.684Z" fill="#71B0D8"/>
<path d="M886.198 727.195C873.583 727.195 860.738 725.819 848.352 722.608C842.388 721.002 836.424 719.167 830.46 716.873C827.479 715.727 824.267 714.35 821.285 712.974C820.827 712.745 820.139 712.515 819.68 712.286C832.066 703.799 845.37 696.688 854.086 683.844C862.802 670.999 866.243 655.631 873.353 642.097C874.73 639.574 876.335 636.822 877.941 634.299C879.776 635.446 882.07 635.904 884.134 636.363C888.263 637.281 892.162 637.969 896.291 638.198C904.548 638.886 912.806 638.427 920.834 637.51C921.751 635.216 922.898 632.922 924.045 630.629C923.128 630.858 922.44 630.858 921.522 631.087C913.494 632.234 905.466 632.464 897.438 632.005C893.538 631.776 889.868 631.546 885.969 631.087C884.134 630.858 882.299 630.399 880.464 630.399C885.281 623.289 891.015 617.096 897.896 611.82C902.943 607.921 908.448 604.939 914.411 602.416C919.687 600.122 925.421 598.746 930.926 596.911C929.55 594.617 927.944 593.011 925.88 591.406C916.476 593.241 907.301 597.14 899.502 602.186C889.41 608.379 880.923 616.866 874.042 626.729C865.555 638.886 860.508 652.419 854.774 665.952C853.857 668.246 852.71 670.54 851.563 672.834C850.645 670.31 849.499 668.017 849.04 665.723C848.122 661.365 847.663 657.007 847.434 652.649C847.205 642.786 848.352 632.693 850.416 622.83C851.563 617.096 853.169 611.132 855.003 605.627C852.939 607.233 851.104 608.838 849.04 610.444C847.664 611.82 846.058 613.196 844.682 614.573C843.994 617.554 843.305 620.307 842.847 623.289C841.012 633.381 839.635 643.932 840.323 654.254C840.553 659.071 841.241 663.888 842.617 668.476C843.535 671.916 844.911 676.962 847.663 679.485C845.829 682.238 843.535 684.99 841.012 687.284C835.507 692.789 828.855 696.918 822.432 701.047C816.01 705.175 809.587 709.304 804.082 714.58C798.807 719.855 794.449 726.048 791.008 732.471C786.191 741.416 782.521 750.821 777.934 759.766C777.475 756.785 776.787 754.032 776.328 751.05C775.64 745.086 775.181 739.123 775.181 732.93C775.181 720.543 776.328 708.157 778.851 696.23C781.604 683.385 786.191 670.999 791.008 658.842C791.926 656.548 792.843 654.484 793.761 652.19C790.091 653.796 786.421 655.631 783.209 657.924C778.163 670.54 773.576 683.155 770.823 696.459C768.3 708.845 767.153 721.461 767.612 734.076C767.841 740.27 768.3 746.692 769.217 752.885C769.906 758.161 770.364 764.125 772.658 768.941C771.97 770.088 771.053 771.235 770.135 772.382C761.189 783.851 748.344 792.567 737.105 801.742C725.866 810.917 715.544 821.009 707.975 833.625C706.14 836.607 704.534 839.589 703.158 842.571C702.699 839.818 702.24 837.295 702.011 834.772C701.323 828.349 701.093 821.927 700.864 815.734C700.635 802.889 701.552 790.044 703.158 777.428C704.534 766.877 706.828 756.326 709.81 746.004C706.14 748.298 702.47 750.821 699.029 753.573C697.194 761.143 695.818 768.712 694.671 776.511C692.836 789.356 692.148 802.43 692.607 815.504C692.836 822.156 693.295 828.808 693.983 835.46C694.671 841.194 694.9 848.305 698.111 853.122C694.671 861.609 691.689 870.554 689.395 879.5C688.937 881.564 688.478 883.399 688.019 885.463C689.625 886.84 691.46 888.445 693.295 889.592C693.983 890.051 694.671 890.51 695.359 890.968C695.818 888.675 696.276 886.381 696.965 884.317C700.405 870.554 704.993 857.021 711.415 844.405C717.379 832.707 725.636 822.844 735.5 814.128C738.023 815.963 741.004 817.11 743.986 818.486C749.262 820.78 754.767 822.615 760.272 824.221C771.053 827.202 782.062 829.496 793.302 830.643C803.394 831.79 813.716 832.019 824.038 831.331C826.561 828.808 828.855 826.056 830.69 823.074C830.231 823.074 829.772 823.074 829.314 823.303C808.211 825.138 786.65 823.532 766.006 818.257C760.272 816.881 754.538 815.046 748.803 813.211C746.051 812.293 743.069 810.917 740.087 810.229C750.179 801.742 760.731 793.943 769.906 784.768C780.686 774.217 786.65 760.913 792.614 747.38C795.596 740.728 798.807 734.077 803.165 728.113C806.606 723.296 810.505 719.397 815.092 715.956C818.533 718.708 823.35 720.543 827.02 722.378C833.213 725.131 839.406 727.425 846.058 729.03C858.673 732.471 871.748 734.076 885.051 734.306C890.786 734.535 896.75 734.306 902.484 734.076C905.236 731.553 907.989 729.03 910.283 726.278C901.796 726.737 893.997 727.195 886.198 727.195Z" fill="#4B94BD"/>
<path d="M157.935 504.473C161.146 504.243 165.046 505.619 168.257 506.537C171.927 507.684 175.368 509.06 178.579 510.666C184.084 513.418 189.359 517.088 193.718 521.905C191.883 516.629 190.277 511.124 188.901 505.619C186.607 504.243 184.772 501.949 183.396 499.885C181.331 497.133 179.726 493.921 178.579 490.71C175.826 483.6 174.679 475.113 175.138 467.543C175.368 464.791 175.826 460.203 178.579 458.598C181.331 456.992 183.854 460.662 185.689 462.497C190.736 467.773 194.406 473.507 195.323 480.847C195.782 484.746 195.553 488.646 195.094 492.545C194.635 496.215 193.947 500.573 192.341 504.014V504.243L192.571 504.473C192.8 504.931 192.8 505.39 192.8 505.619C193.947 509.748 195.094 513.877 196.47 518.006C197.388 520.529 198.305 523.281 199.223 525.804C198.993 522.134 199.223 518.464 199.452 514.794C200.14 507.225 201.975 499.656 204.957 492.316C205.874 490.251 207.251 486.581 210.232 487.499C212.985 488.187 213.214 493.233 213.673 495.527C215.049 502.408 215.049 509.748 213.673 516.629C212.985 520.529 211.838 524.199 210.232 527.639C208.856 530.851 207.021 535.209 203.81 537.044C206.333 543.007 209.086 548.742 212.297 554.476C212.985 555.852 213.902 557.229 214.591 558.605C214.591 556.999 214.591 555.164 214.591 553.559C214.591 549.201 214.361 545.072 215.049 540.714C216.196 531.768 220.784 523.969 225.142 516.4C225.83 515.253 227.665 515.024 228.124 516.4C234.546 532.915 232.252 554.017 219.866 567.092C224.912 575.349 230.647 583.377 236.611 590.947C235.693 588.424 235.234 585.442 235.005 583.148C234.546 578.331 234.776 573.514 235.693 568.927C236.611 563.651 238.446 558.605 240.51 553.788C242.574 548.971 244.409 543.466 248.079 539.567C248.997 538.649 250.144 538.879 250.602 540.026C260.924 558.605 259.319 584.524 243.721 599.892C248.997 606.085 254.502 611.82 260.465 617.325C263.906 620.765 267.805 623.977 271.475 626.958C269.411 623.747 267.576 620.536 266.429 617.095C264.824 611.82 264.824 606.544 265.053 601.269C265.282 590.259 267.117 579.019 274.228 570.303C274.916 569.615 276.063 569.615 276.751 570.303C283.173 579.019 285.926 589.57 286.155 600.351C286.385 606.085 286.155 612.049 284.779 617.783C283.632 622.83 281.338 628.564 276.98 631.775C282.715 636.133 289.367 639.803 294.183 645.308C295.101 646.455 293.954 648.52 292.578 648.061C286.155 646.226 280.88 641.638 275.604 637.51C271.705 634.528 268.035 631.546 264.365 628.335C254.502 634.298 241.886 637.51 230.417 637.28C218.49 637.051 207.48 632.693 198.764 624.894C198.076 624.206 197.846 622.6 198.764 622.142C208.856 616.178 221.013 613.655 232.711 613.884C238.446 614.113 244.409 615.031 249.914 616.866C250.602 617.095 251.52 617.325 252.437 617.554C245.327 610.443 238.675 603.104 232.711 595.305C232.482 595.075 232.252 594.617 232.023 594.387C232.023 595.075 231.564 595.764 230.647 595.764C227.665 596.222 225.371 597.599 222.619 598.516C220.096 599.434 217.114 599.892 214.361 600.122C208.627 600.351 202.893 599.434 197.388 598.287C191.883 597.14 186.836 595.305 182.478 591.864C178.12 588.424 173.991 583.377 171.239 578.56C170.78 577.872 170.78 576.725 171.698 576.267C180.414 570.991 190.506 573.514 199.681 576.267C205.186 577.872 210.691 579.937 215.737 582.46C220.554 584.754 225.83 587.506 229.729 591.176C222.848 581.772 216.655 571.909 211.15 561.587L210.921 561.816C208.627 562.963 205.186 562.504 202.663 562.504C199.911 562.504 196.929 562.275 194.176 562.046C188.901 561.587 183.396 560.211 178.579 557.917C170.551 554.017 164.128 547.136 162.523 538.191C162.293 537.044 163.44 536.126 164.587 536.356C173.991 536.814 183.166 539.337 191.653 543.466C195.553 545.531 199.452 547.824 202.893 550.577C204.269 551.724 206.104 552.871 207.48 554.476C203.581 546.677 200.14 538.42 196.929 530.163H196.699C196.241 530.163 195.782 529.933 195.553 529.474C195.094 529.704 194.406 529.704 193.947 529.704C193.259 529.704 192.341 529.933 191.653 529.933C190.048 529.933 188.442 529.933 187.066 529.933C183.854 529.704 180.873 529.016 177.891 528.098C171.927 526.034 166.422 522.593 162.293 518.006C160 516.171 150.595 504.931 157.935 504.473Z" fill="#4B94BD"/>
<path d="M352.444 760.454C336.847 745.774 312.075 743.022 297.853 726.966C286.614 714.35 283.861 695.083 271.017 683.843C259.548 673.751 243.033 672.375 229.729 665.264C218.26 659.3 209.315 649.208 198.764 641.638C185.46 632.005 169.633 626.27 153.348 625.124C141.879 624.435 127.658 627.876 124.217 638.886C120.318 651.502 133.163 662.512 138.668 674.439C147.154 693.248 137.75 716.185 145.319 735.223C156.1 762.06 193.488 766.647 211.838 788.897C224.912 804.724 228.353 829.496 246.703 838.442C257.713 843.717 271.475 841.653 282.715 846.699C296.936 852.892 304.046 868.948 316.891 877.435C330.654 886.61 349.462 885.005 362.307 874.683C379.281 860.92 374.694 842.57 372.171 823.532C369.418 801.054 370.565 777.428 352.444 760.454Z" fill="#4B94BD"/>
<path d="M176.514 748.527C187.753 747.15 198.993 744.857 209.544 741.187C214.82 739.352 219.866 737.058 224.912 734.535C227.435 733.159 230.188 731.782 232.711 730.177C233.17 729.947 233.628 729.718 234.087 729.259C222.389 722.837 209.773 717.79 201.057 707.239C192.341 696.688 187.753 683.155 180.184 671.916C178.808 669.622 177.202 667.558 175.597 665.493C173.991 666.64 172.156 667.328 170.321 667.787C166.88 668.934 163.21 669.851 159.77 670.539C152.659 671.916 145.09 672.374 137.75 672.145C136.603 670.31 135.456 668.246 134.309 666.411C134.997 666.411 135.915 666.64 136.603 666.64C143.714 666.869 150.824 666.411 157.935 665.264C161.375 664.805 164.587 664.117 168.027 663.429C169.633 662.97 171.238 662.511 172.844 662.282C167.798 656.548 162.293 651.272 155.641 647.373C150.824 644.391 145.549 642.326 140.273 640.491C135.456 638.886 130.181 638.198 125.134 637.051C126.052 634.986 127.428 633.151 129.034 631.775C137.52 632.463 146.007 635.216 153.347 638.886C162.981 643.473 171.238 650.354 178.12 658.383C186.607 668.475 192.57 679.944 198.763 691.412C199.91 693.477 201.057 695.312 202.204 697.147C202.663 694.853 203.58 692.559 203.81 690.495C204.268 686.596 204.268 682.696 204.039 678.797C203.351 670.081 201.516 661.135 198.763 652.648C197.158 647.602 195.323 642.556 193.029 637.739C194.864 638.886 196.928 640.262 198.763 641.409C200.14 642.326 201.516 643.473 202.892 644.62C203.81 647.143 204.727 649.666 205.415 652.189C208.168 660.906 210.003 670.081 210.461 679.256C210.691 683.614 210.461 687.742 209.773 691.871C209.315 695.082 208.626 699.441 206.333 702.193C208.168 704.487 210.461 706.551 212.755 708.616C218.26 712.974 224.453 715.955 230.646 719.167C236.61 722.149 242.803 725.36 248.079 729.489C253.354 733.617 257.713 738.664 261.383 744.169C266.429 751.509 270.558 759.766 275.604 767.106C275.833 764.583 276.063 761.83 276.063 759.307C276.063 754.032 275.833 748.527 275.374 743.251C274.228 732.241 272.163 721.46 268.723 710.909C265.053 699.67 260.006 689.348 254.501 678.797C253.584 676.962 252.437 675.127 251.519 673.063C254.96 674.209 258.171 675.586 261.383 677.191C266.888 687.972 272.163 698.752 275.833 710.221C279.274 721.002 281.338 732.012 282.256 743.251C282.714 748.756 282.714 754.49 282.714 759.995C282.485 764.583 282.714 770.088 281.109 774.446C282.026 775.363 282.714 776.281 283.632 777.198C292.577 786.603 304.734 793.025 315.515 800.365C326.295 807.476 336.388 815.504 344.416 825.826C346.251 828.349 347.857 830.872 349.692 833.395C349.692 830.872 349.921 828.578 349.921 826.284C349.921 820.55 349.692 814.816 349.233 809.311C348.315 797.842 346.251 786.603 343.728 775.593C341.434 766.418 338.452 757.243 335.012 748.297C338.452 750.132 341.893 751.967 345.104 754.032C347.398 760.683 349.462 767.335 351.068 773.987C353.82 785.227 355.655 796.925 356.343 808.393C356.802 814.357 357.032 820.321 356.802 826.284C356.802 831.331 357.032 837.753 354.738 842.341C358.637 849.681 362.078 857.25 364.83 864.819C365.518 866.425 365.977 868.26 366.665 870.095C365.289 871.471 363.913 873.077 362.307 874.224C361.619 874.682 361.16 875.141 360.472 875.6C359.784 873.765 359.325 871.701 358.637 869.866C354.508 857.938 349.004 846.469 342.122 835.918C335.7 826.055 327.442 818.027 318.038 811.146C315.974 812.981 313.45 814.357 310.927 815.733C306.34 818.256 301.752 820.321 297.165 822.385C287.99 826.055 278.356 829.037 268.493 831.101C259.548 832.936 250.602 834.083 241.427 834.542C238.904 832.478 236.84 830.184 234.775 827.661C235.234 827.661 235.693 827.661 236.151 827.661C254.96 827.202 273.998 823.991 291.66 817.568C296.706 815.733 301.523 813.669 306.34 811.605C308.863 810.458 311.157 809.081 313.68 808.164C304.046 801.512 293.954 795.548 284.779 788.208C274.228 779.721 267.805 768.712 261.153 757.243C257.942 751.508 254.501 746.003 250.143 741.187C246.703 737.287 242.803 734.076 238.445 731.324C235.693 734.076 231.564 736.14 228.582 737.975C223.536 740.957 218.031 743.48 212.526 745.774C201.516 749.903 190.047 752.655 178.578 754.032C173.532 754.72 168.257 755.178 162.981 755.408C160.229 753.573 157.705 751.508 155.412 749.215C162.522 749.673 169.404 749.215 176.514 748.527Z" fill="#71B0D8"/>
<path d="M395.109 487.27C386.622 467.773 365.061 455.845 358.179 435.89C352.674 420.063 357.491 401.484 350.151 386.345C343.729 372.812 329.049 365.243 319.645 353.774C311.387 343.911 307.258 331.295 300.606 320.285C292.349 306.523 279.963 295.284 265.512 287.944C255.19 282.897 240.969 280.604 233.859 289.32C225.601 299.412 233.17 314.322 233.4 327.396C234.088 347.81 216.426 365.013 216.197 385.428C215.738 414.099 248.08 432.449 256.108 459.745C261.842 479.242 255.649 503.097 268.953 518.235C276.981 527.41 290.285 530.621 298.542 539.338C309.093 550.348 309.552 567.78 317.809 580.625C326.755 594.158 344.646 600.122 360.244 595.534C381.117 589.341 383.64 570.991 388.686 552.641C394.879 530.851 405.201 509.978 395.109 487.27Z" fill="#71B0D8"/>
<path d="M239.363 409.283C250.144 412.494 261.154 414.558 272.393 415.246C277.898 415.476 283.403 415.476 288.908 415.017C291.89 414.788 294.642 414.329 297.624 414.099C298.083 414.099 298.771 413.87 299.23 413.87C290.972 403.548 281.568 394.144 277.669 381.299C273.769 368.225 274.687 354.462 272.164 341.158C271.705 338.635 271.017 336.112 270.329 333.589C268.494 334.048 266.429 333.818 264.594 333.589C260.924 333.36 257.484 332.901 253.814 331.984C246.703 330.378 239.822 328.084 233.17 325.102C232.941 323.038 232.711 320.744 232.252 318.45C232.941 318.68 233.629 319.139 234.317 319.368C240.739 322.35 247.391 324.644 254.272 326.249C257.484 326.937 260.924 327.855 264.135 328.314C265.741 328.543 267.347 328.772 268.952 329.231C266.659 322.12 263.447 315.239 259.089 309.046C255.878 304.459 251.979 300.559 247.62 296.889C243.721 293.678 239.363 290.926 235.234 287.944C236.84 286.338 238.675 285.421 240.739 284.732C248.079 288.632 254.731 294.366 260.236 300.559C267.117 308.358 272.164 317.762 275.375 327.625C279.274 340.012 280.192 352.857 281.568 365.702C281.797 367.995 282.027 370.06 282.485 372.353C283.862 370.518 285.467 368.683 286.385 366.848C288.22 363.408 289.825 359.967 290.972 356.297C293.725 348.04 295.33 339.094 296.248 330.378C296.707 325.102 296.936 319.827 296.707 314.78C298.083 316.615 299.23 318.45 300.377 320.285C301.294 321.662 302.212 323.267 302.9 324.873C302.67 327.396 302.67 330.149 302.212 332.672C301.294 341.617 299.688 350.792 296.477 359.279C295.101 363.178 293.266 367.078 290.972 370.518C289.367 373.271 286.843 376.941 283.862 378.546C284.779 381.299 285.926 384.281 287.302 386.804C290.743 392.768 295.101 398.043 299.459 403.319C303.817 408.365 308.175 413.641 311.616 419.375C314.827 425.109 316.891 431.532 318.038 437.954C319.873 446.671 320.561 455.616 322.167 464.332C323.314 462.039 324.69 459.745 325.608 457.451C327.672 452.634 329.507 447.588 331.113 442.542C334.324 432.22 336.618 421.439 337.535 410.659C338.453 399.19 337.765 387.492 336.847 376.023C336.618 373.959 336.388 371.895 336.388 369.601C339.141 371.895 341.664 374.418 343.958 377.17C344.875 389.098 345.563 400.796 344.416 412.723C343.27 423.733 341.205 434.743 337.535 445.294C335.7 450.57 333.865 455.616 331.571 460.662C329.736 464.791 327.672 469.837 324.461 473.278C324.92 474.425 325.149 475.572 325.608 476.719C330.195 488.646 338.911 499.427 345.793 509.978C352.903 520.529 359.096 531.768 362.308 544.384C362.996 547.366 363.684 550.348 364.143 553.1C365.06 550.806 366.207 548.742 367.124 546.907C369.418 541.632 371.253 536.356 373.088 531.08C376.529 520.3 379.052 509.29 380.887 498.05C382.493 488.646 383.181 479.242 383.41 469.837C385.933 472.819 388.456 475.801 390.521 479.012C390.062 485.894 389.374 492.775 388.227 499.427C386.392 510.666 383.639 521.905 379.969 532.915C378.134 538.42 376.07 543.925 373.547 549.43C371.483 554.018 369.418 559.981 365.519 563.193C366.207 571.45 366.436 579.478 366.207 587.506C366.207 589.341 365.978 591.176 365.978 593.011C364.372 593.929 362.537 594.617 360.473 595.305C359.784 595.534 359.096 595.764 358.408 595.764C358.638 593.699 358.638 591.635 358.867 589.8C359.555 577.414 359.096 564.798 356.803 552.641C354.738 541.173 350.38 530.851 344.416 520.988C341.893 521.905 338.911 522.135 336.159 522.364C331.113 522.823 326.066 523.052 321.02 523.052C311.157 522.823 301.294 521.905 291.66 520.07C282.715 518.465 273.999 515.942 265.741 512.96C264.135 510.207 262.989 507.225 262.3 504.244C262.759 504.473 262.989 504.473 263.447 504.702C280.88 511.584 299.23 515.712 318.038 516.63C323.314 516.859 328.59 516.859 333.636 516.859C336.388 516.859 339.141 516.4 341.664 516.4C335.471 506.767 328.59 497.362 323.085 487.27C316.662 475.572 315.056 462.956 313.451 450.111C312.533 443.689 311.616 437.266 309.552 431.073C307.946 426.256 305.652 421.898 302.67 417.769C299 419.375 294.642 419.604 290.972 420.063C285.008 420.981 279.274 421.21 273.31 420.981C261.842 420.522 250.373 418.687 239.134 415.476C234.087 414.099 229.271 412.494 224.454 410.659C222.619 407.906 221.242 404.925 219.866 402.172C226.289 404.925 232.711 407.218 239.363 409.283Z" fill="#4B94BD"/>
<path d="M488.462 89.7643C349.69 104.903 336.845 223.489 350.837 278.081C364.829 332.672 337.534 377.17 355.195 398.502C372.857 419.834 329.276 438.413 362.535 480.618C395.795 522.823 603.378 527.181 631.591 495.298C659.575 463.415 657.511 433.137 647.189 413.182C636.867 393.226 653.841 355.609 641.225 326.708C628.839 298.036 677.696 68.8913 488.462 89.7643Z" fill="#1A304B"/>
<path d="M631.821 495.298C659.805 463.415 657.741 433.137 647.419 413.182C637.097 393.226 654.071 355.609 641.455 326.708C635.033 312.028 644.666 244.592 630.216 185.413C622.647 195.735 612.325 203.993 600.168 207.892C577.46 215.461 552.458 209.498 530.897 199.405C508.877 189.083 488.692 174.403 471.948 156.512C459.561 183.808 445.57 211.333 422.173 229.912C401.071 246.886 370.335 254.225 346.48 242.986C346.709 256.06 348.315 267.988 350.838 278.08C364.83 332.671 337.534 377.17 355.196 398.502C372.858 419.834 329.277 438.413 362.536 480.618C396.025 522.593 603.608 527.181 631.821 495.298Z" fill="#1C2434"/>
<path d="M738.022 620.995C738.71 623.289 749.032 657.695 750.637 668.934C752.014 679.944 726.324 703.111 722.424 703.111C718.754 703.111 689.165 712.056 686.183 706.093C683.201 700.129 670.586 670.54 671.503 661.823C672.191 652.878 679.302 634.757 682.513 633.84C685.954 632.464 738.022 620.995 738.022 620.995Z" fill="#E8BCB0"/>
<path d="M288.218 651.96C288.218 651.96 282.942 696.23 281.566 728.113C280.19 759.996 371.71 751.738 374.004 748.068C376.298 744.398 407.263 690.495 402.905 679.256C398.547 668.246 388.913 651.272 382.95 647.373C376.756 643.932 288.218 651.96 288.218 651.96Z" fill="#E8BCB0"/>
<path d="M434.33 434.743C434.33 434.743 369.417 449.423 327.9 491.628C286.613 533.833 280.649 653.566 280.649 653.566C280.649 653.566 333.176 681.55 378.822 677.88C378.822 677.88 363.224 878.812 347.856 927.668C347.856 927.668 605.673 975.608 715.084 927.668C715.084 927.668 681.137 736.37 674.485 657.236C674.485 657.236 718.066 649.208 748.343 625.353C748.343 625.353 718.754 509.29 683.431 479.012C647.878 448.735 562.321 436.119 562.321 436.119L434.33 434.743Z" fill="white"/>
<path d="M465.526 565.716C456.121 574.661 430.89 849.91 434.101 856.792C437.312 863.673 652.007 876.059 658.2 871.472C664.393 866.655 694.9 599.204 695.129 587.506C695.358 575.579 473.554 558.146 465.526 565.716Z" fill="#4C9398"/>
<path d="M458.185 414.099C452.221 416.852 435.936 424.421 431.578 431.073C427.219 437.725 457.497 503.555 472.177 522.593C472.177 522.593 504.977 516.63 520.116 493.692C520.116 493.692 534.108 513.648 557.045 520.3C557.045 520.3 574.019 464.791 575.625 433.826C575.625 433.826 559.339 422.816 551.311 421.21C543.053 419.834 458.185 414.099 458.185 414.099Z" fill="white"/>
<path d="M460.25 373.271L454.286 421.21C454.286 421.21 483.875 472.131 520.117 486.123C520.117 486.123 548.1 463.874 557.046 426.944C557.046 426.944 551.082 399.649 550.394 382.675C549.706 365.931 460.25 373.271 460.25 373.271Z" fill="#E8BCB0"/>
<path d="M512.088 561.128C509.565 563.651 506.354 583.607 508.418 587.736C510.482 591.864 639.62 604.709 647.648 601.269C655.676 597.828 655.217 573.514 653.841 570.303C652.694 566.863 517.134 555.853 512.088 561.128Z" fill="#1A304B"/>
<path d="M529.521 564.569C530.438 560.899 533.19 553.788 535.025 550.118C536.86 546.448 628.839 554.247 633.886 556.082C638.932 557.917 638.473 574.891 638.473 574.891L529.521 564.569Z" fill="#1A304B"/>
<path d="M454.974 417.311C457.956 418.457 461.167 419.375 464.378 420.063C494.426 426.944 527.227 420.292 552.688 402.631C551.999 397.814 551.311 392.767 550.853 387.951L535.255 373.959C509.565 369.142 460.479 373.271 460.479 373.271L454.974 417.311Z" fill="#DF9F8E"/>
<path d="M601.543 232.894C612.553 285.42 600.167 405.154 516.675 404.236C433.183 403.548 412.539 320.056 412.539 320.056C412.539 320.056 385.931 329.001 383.638 300.788C381.344 272.805 411.621 280.833 411.621 280.833C411.621 280.833 461.854 256.519 474.47 189.312C474.241 189.313 528.373 236.793 601.543 232.894Z" fill="#E8BCB0"/>
<path d="M407.952 301.935C407.035 299.183 405.2 296.43 402.676 294.595C399.924 292.302 396.483 291.155 393.043 291.155C391.667 291.155 390.749 292.302 390.749 293.448C390.749 294.825 391.896 295.742 393.043 295.742H393.272H393.502H393.96C394.419 295.742 394.878 295.972 395.566 296.201L396.025 296.43C396.254 296.43 396.254 296.66 396.483 296.66C396.942 296.889 397.401 297.118 397.86 297.577C397.86 297.577 398.089 297.807 398.318 297.807C398.548 297.807 398.548 298.036 398.777 298.036C399.236 298.495 399.465 298.724 399.924 299.183C400.153 299.412 400.153 299.412 400.383 299.642L400.612 299.871C400.841 300.1 401.071 300.559 401.3 300.788L401.071 301.018L400.841 301.247C400.153 302.165 400.153 302.165 400.153 301.935L399.924 302.165C398.777 303.77 397.86 305.376 397.86 307.44C397.86 309.505 399.006 311.569 400.841 312.257C402.906 313.175 404.97 312.486 406.346 310.881C409.099 309.046 409.099 305.146 407.952 301.935Z" fill="#DF9F8E"/>
<path d="M474.241 189.312C463.919 244.362 428.596 270.511 415.98 278.31C429.284 276.016 441.211 267.3 450.845 257.437C463.46 244.362 473.782 228.994 480.893 212.25C497.408 223.948 515.299 234.04 534.796 239.087C554.293 244.133 575.624 243.904 594.204 236.105C596.268 235.187 598.332 234.04 600.397 232.894C527.915 236.334 474.241 189.312 474.241 189.312Z" fill="#DF9F8E"/>
<path d="M577.459 443C576.542 441.395 574.018 441.395 573.101 443C571.725 445.294 572.183 448.047 571.954 450.57C571.725 453.322 571.495 456.304 571.266 459.057C570.578 464.332 569.431 469.608 568.284 474.883C565.761 485.664 562.091 496.215 558.192 506.537C557.274 509.29 556.127 511.813 555.21 514.565C554.98 514.795 554.292 517.088 554.292 517.547C554.063 517.547 554.063 517.318 553.834 517.318C553.145 517.088 552.687 516.63 551.999 516.4C547.411 513.648 542.824 510.666 538.695 507.455C534.566 504.473 530.667 501.261 526.767 497.821C526.079 497.133 524.474 495.298 522.639 493.692C522.868 491.857 520.804 490.022 518.969 491.169C518.51 491.398 518.281 491.628 517.822 491.857C517.822 491.857 517.592 491.857 517.592 492.086C514.381 494.38 511.629 497.591 508.647 500.115C504.977 503.096 501.077 506.078 497.178 508.831C493.279 511.583 489.15 514.106 484.792 516.63C480.893 518.694 476.076 522.135 471.947 519.153C468.506 516.63 466.213 512.271 464.148 508.601C461.625 504.473 459.102 500.344 456.808 495.986C451.991 487.27 447.633 478.553 443.734 469.378C441.67 464.332 439.605 459.286 437.541 454.01C436.623 451.487 435.706 448.735 434.788 446.212C434.1 443.918 433.641 440.936 431.806 439.33C430.889 438.642 429.283 438.872 429.054 440.019C428.366 442.312 429.513 444.377 430.201 446.441C431.118 449.193 432.036 451.946 432.953 454.698C434.788 459.745 436.623 464.791 438.688 469.608C442.816 479.471 447.404 489.334 452.68 498.738C455.203 503.326 457.955 508.143 460.708 512.501C463.001 516.171 465.295 520.3 468.965 523.052C472.864 525.805 477.452 525.804 481.81 523.969C486.627 521.905 490.985 519.153 495.343 516.4C500.16 513.418 504.977 509.978 509.335 506.308C512.546 503.785 516.216 501.032 519.198 497.821C519.427 498.05 519.657 498.28 519.657 498.28C519.657 498.738 519.657 498.968 519.657 499.426C519.886 501.95 520.116 504.702 520.345 507.225C520.804 512.73 521.262 518.006 521.721 523.511C522.409 534.521 522.868 545.76 522.639 556.77C522.639 559.752 527.455 559.752 527.455 556.77C527.455 544.843 527.226 532.915 526.309 521.217C525.85 515.483 525.391 509.978 524.703 504.243C524.703 504.014 524.703 503.555 524.474 502.638C526.997 504.931 529.52 507.225 532.272 509.519C535.713 512.271 539.383 514.795 543.053 517.318C546.035 519.382 550.393 523.052 554.063 523.052C558.421 523.052 559.339 518.235 560.715 515.024C562.55 510.436 564.155 506.078 565.761 501.491C568.972 492.545 571.954 483.37 574.248 473.966C575.395 468.69 576.542 463.415 577.23 457.91C577.459 455.387 577.918 452.634 577.918 449.882C578.377 448.047 578.606 445.294 577.459 443Z" fill="#C6D1DB"/>
<path d="M544.429 872.159C543.971 871.242 542.365 871.013 541.677 871.701C540.759 872.848 540.53 873.536 540.301 874.912C540.071 876.059 540.071 877.206 539.842 878.353C539.612 880.417 539.383 882.481 539.383 884.546C539.154 886.61 539.154 888.674 539.154 890.739C539.154 892.803 538.924 895.556 540.759 897.161C541.447 897.62 542.365 897.849 542.824 897.161C544.429 895.556 544.2 893.262 544.2 891.197C544.2 889.133 544.2 886.839 544.2 884.775C544.2 882.711 544.429 880.646 544.429 878.582C544.429 877.435 544.659 876.518 544.659 875.371C545.117 874.224 545.117 873.306 544.429 872.159Z" fill="#C6D1DB"/>
<path d="M395.566 580.396C394.648 580.854 393.96 581.542 393.272 582.46C392.813 583.148 392.125 584.066 391.666 584.754C391.666 584.754 391.666 584.754 391.666 584.983C391.896 582.46 392.354 579.478 391.437 576.955C390.978 576.037 389.831 575.808 389.143 576.726C387.767 578.79 387.767 581.772 387.308 584.066C386.849 587.047 386.62 590.029 386.391 593.24C386.161 595.075 385.932 597.14 385.703 598.975C385.703 599.204 385.703 599.434 385.703 599.892C385.244 603.333 385.014 606.774 384.556 610.214C383.409 621.683 382.033 632.922 380.886 644.391C379.739 655.86 378.363 667.099 376.986 678.568C376.298 684.302 375.61 689.807 374.922 695.541C374.463 698.523 374.234 701.505 373.775 704.716C373.546 707.469 372.628 710.68 373.546 713.203C374.234 715.038 376.298 715.268 377.445 713.662C379.051 711.368 378.821 708.386 379.28 705.863C379.739 702.881 379.968 699.9 380.427 696.688C381.115 690.954 381.803 685.449 382.262 679.715C383.409 668.475 384.785 657.007 385.932 645.538C387.079 634.069 388.226 622.83 389.373 611.361C389.602 608.15 390.061 604.939 390.29 601.498C390.749 600.81 390.978 599.663 391.208 598.975C391.437 598.057 391.666 597.14 392.125 596.452C392.584 594.846 393.272 593.47 393.731 592.094C394.419 590.488 395.107 589.112 396.024 587.506C396.483 586.818 396.942 585.901 397.401 585.212C397.859 584.295 398.318 583.607 398.548 582.46C398.777 580.854 397.171 579.478 395.566 580.396Z" fill="#C6D1DB"/>
<path d="M606.131 158.806C601.314 153.53 593.515 150.09 587.322 146.878C580.67 143.438 573.789 140.456 566.678 138.162C552.916 133.345 538.465 130.364 523.785 129.217C495.343 127.152 466.9 132.887 441.44 145.502C434.329 149.172 428.136 153.53 421.943 158.347C416.209 162.935 408.869 167.981 405.658 174.633C404.969 176.238 406.116 178.532 408.181 177.844C414.144 175.55 419.191 171.192 424.696 167.752C430.43 164.311 436.394 161.558 442.357 158.577C454.056 152.842 466.212 148.484 479.057 145.502C505.435 139.768 532.502 140.915 558.191 149.631C565.302 151.925 571.954 154.907 578.606 158.118C582.046 159.953 585.487 161.788 588.928 163.852C592.598 166.146 595.809 168.44 599.708 170.045C602.461 171.192 606.131 169.357 607.507 166.834C608.654 164.311 608.195 161.1 606.131 158.806Z" fill="#1C2434"/>
<path d="M415.292 162.705C403.365 136.786 386.391 93.893 386.391 93.893C386.391 93.893 485.481 3.74897 613.93 84.2593L591.681 153.072C591.91 153.072 498.096 102.15 415.292 162.705Z" fill="white"/>
<path d="M380.427 402.172C381.804 391.162 373.546 382.905 370.564 372.812C366.894 360.655 372.399 348.04 374.234 336.112C376.069 325.102 375.84 313.863 374.005 302.853C371.94 290.237 367.353 277.851 360.242 267.3C359.554 266.382 358.407 267.071 358.866 268.217C368.959 290.237 373.317 313.863 368.5 337.718C366.206 349.645 361.848 361.802 365.059 373.959C367.812 384.281 377.216 393.226 374.234 404.695C372.629 410.659 369.417 416.164 368.959 422.357C368.729 427.403 370.105 432.908 374.922 434.743C376.757 435.431 377.904 433.137 377.216 431.761C374.693 427.403 373.775 423.733 375.152 418.687C376.757 412.953 379.739 407.906 380.427 402.172Z" fill="#1A304B"/>
<path d="M400.612 383.593C397.172 376.941 395.566 369.601 395.795 362.261C396.025 358.82 396.484 355.38 397.63 351.939C398.548 348.728 400.383 345.975 400.842 342.764C400.842 342.305 400.383 342.076 400.154 342.076C393.96 342.535 392.126 353.086 391.437 357.903C390.291 365.013 390.979 372.583 393.272 379.464C395.795 386.804 401.071 393.226 401.759 401.025C402.218 404.924 401.53 408.824 400.842 412.494C400.154 415.934 398.089 420.522 399.236 423.963C399.695 425.339 401.071 425.568 402.218 424.88C404.97 422.816 405.429 418.228 406.117 415.246C406.805 411.576 407.264 407.906 407.264 404.236C407.035 396.208 404.053 390.245 400.612 383.593Z" fill="#1A304B"/>
<path d="M425.155 397.355C423.55 394.144 421.485 390.933 421.485 387.263C421.485 385.657 421.944 384.281 422.632 382.904C423.091 382.216 424.008 380.84 423.091 380.152C420.568 378.546 418.045 383.134 417.586 384.969C416.668 388.18 417.356 391.621 418.503 394.603C419.88 398.043 421.944 401.254 422.632 404.924C423.091 407.448 422.403 410.888 420.797 412.952C419.88 414.099 420.797 415.705 422.173 415.246C425.843 414.558 427.449 411.347 427.908 407.906C428.137 404.236 426.761 400.566 425.155 397.355Z" fill="#1A304B"/>
<path d="M629.757 420.292C626.775 414.558 624.023 409.741 624.94 403.089C626.546 391.162 634.574 380.381 632.28 367.995C631.133 361.343 626.546 356.526 623.105 351.021C618.976 344.37 618.288 336.8 618.747 329.231C619.206 313.633 622.188 298.036 623.335 282.439C624.023 273.722 624.481 265.006 623.564 256.29C622.876 248.262 621.958 238.399 617.141 231.747C616.912 231.288 615.995 231.288 615.995 231.976C616.224 235.417 617.141 238.857 617.83 242.527C618.518 246.427 618.976 250.326 619.206 254.226C619.665 261.795 619.435 269.594 618.976 277.163C617.83 292.531 615.077 307.899 613.701 323.497C613.013 330.378 612.783 337.488 614.618 344.37C616.224 351.251 620.582 356.297 624.023 362.031C630.904 373.271 623.564 385.198 620.353 396.208C618.518 402.631 617.83 409.053 620.353 415.246C621.729 418.457 623.564 421.439 624.94 424.651C626.546 427.862 626.546 430.844 626.775 434.284C626.775 435.431 628.151 436.349 629.298 435.66C635.721 432.679 632.28 425.109 629.757 420.292Z" fill="#1A304B"/>
<path d="M607.508 395.749C605.443 390.474 602.232 385.427 602.003 379.693C602.003 376.482 602.691 373.271 603.608 370.289C604.067 368.912 604.296 367.536 604.755 366.16C604.984 365.242 605.443 363.407 605.902 362.719C607.278 361.343 605.902 358.82 604.067 359.279C601.773 359.737 601.314 361.802 600.397 363.866C599.25 366.848 598.103 369.601 597.415 372.812C596.039 378.776 596.727 384.281 599.021 390.015C601.085 395.061 603.838 399.878 604.296 405.612C604.755 411.117 602.461 415.705 601.085 420.751C600.626 422.127 602.232 423.045 603.379 422.357C612.554 417.999 610.719 403.319 607.508 395.749Z" fill="#1A304B"/>
<path d="M584.799 401.254C584.111 399.419 583.882 397.584 583.882 395.749C583.882 394.144 584.799 392.079 585.717 390.933C585.946 390.474 585.946 390.015 585.258 390.015C583.423 390.015 582.047 390.703 581.129 392.079C580.212 393.685 579.753 395.52 579.524 397.355C579.294 401.713 581.588 405.613 583.194 409.512C583.652 410.429 583.882 411.576 584.341 412.494C584.799 413.641 584.799 414.788 585.487 415.934C586.864 418.458 589.387 416.623 589.616 414.329C589.846 409.283 586.405 405.383 584.799 401.254Z" fill="#1A304B"/>
<path d="M458.874 199.176C453.369 206.057 449.928 214.544 444.882 222.113C439.606 229.453 433.643 236.334 426.762 242.298C419.88 248.262 412.54 253.537 404.283 257.666C399.695 259.96 395.108 262.254 390.062 263.859C387.309 264.777 384.557 265.236 381.575 265.694C379.74 265.924 377.446 265.694 376.299 267.071C376.299 267.071 376.07 267.3 376.299 267.529C377.905 270.052 383.18 268.906 385.704 268.447C389.832 267.988 393.961 266.841 397.86 265.465C405.2 262.712 412.311 259.042 418.733 254.455C431.12 245.968 441.9 235.188 450.387 222.801C454.975 215.92 460.021 208.351 460.709 200.093C461.168 199.176 459.562 198.488 458.874 199.176Z" fill="#1A304B"/>
<path d="M573.56 219.131C570.12 217.067 565.991 216.838 562.092 215.92C558.422 215.003 554.522 214.085 550.852 213.168C543.054 210.874 535.255 208.351 527.456 205.369C520.345 202.616 513.235 199.405 506.812 195.506C503.831 193.671 500.849 191.836 498.096 189.313C495.573 187.019 493.509 184.266 491.215 181.743C490.986 181.514 490.527 181.743 490.527 181.973C491.444 188.395 497.179 193.441 501.996 197.341C508.418 202.158 516.217 205.598 523.557 208.809C531.355 212.25 539.613 215.232 547.641 217.755C551.77 219.131 556.128 220.278 560.257 221.196C564.385 222.113 568.514 223.26 572.643 222.572C574.707 222.113 574.707 219.819 573.56 219.131Z" fill="#1A304B"/>
<path d="M616.912 210.874C615.536 210.874 614.389 211.103 613.242 211.562C611.866 212.021 610.719 212.479 609.572 212.938C607.278 213.856 604.755 214.544 602.232 215.232C599.709 215.92 597.186 216.149 594.663 216.608C593.286 216.837 592.14 217.067 590.763 217.296C589.846 217.526 588.47 217.755 587.781 218.443C587.552 218.672 587.552 219.131 587.781 219.361C589.158 221.196 593.057 220.966 595.121 220.966C597.874 221.196 600.856 220.507 603.608 220.049C606.361 219.59 608.884 218.672 611.636 217.755C614.389 216.608 616.683 215.461 618.518 212.938C618.747 212.021 617.829 210.874 616.912 210.874Z" fill="#1A304B"/>
<path d="M443.276 172.339C440.982 175.78 439.376 179.679 437.541 183.349C435.477 187.019 433.183 190.689 430.431 194.129C425.155 200.781 418.733 206.516 411.622 211.103C403.823 216.149 395.566 220.508 386.85 223.719C382.492 225.324 378.133 226.701 373.546 228.077C369.188 229.224 365.059 230.829 360.701 228.994C360.472 228.765 360.013 229.224 360.242 229.682C362.536 232.894 366.665 232.894 370.335 232.435C375.381 231.747 380.427 230.371 385.244 228.994C394.878 226.012 404.511 222.343 413.228 216.838C421.256 211.791 428.596 205.598 434.559 198.258C440.064 191.377 446.487 182.661 446.716 173.486C446.716 171.421 444.193 170.963 443.276 172.339Z" fill="#273C59"/>
<path d="M408.182 187.707C401.53 191.836 395.108 196.652 387.997 200.552C380.886 204.451 373.317 207.662 365.748 210.185C365.289 210.415 365.518 210.874 365.977 210.874C374.234 209.727 382.033 207.433 389.603 203.763C396.943 200.322 404.512 195.964 410.017 190.001C410.934 188.854 409.558 186.789 408.182 187.707Z" fill="#273C59"/>
<path d="M393.042 178.761C390.289 180.596 387.996 182.89 385.243 184.725C382.491 186.56 379.738 188.395 376.527 189.771C375.839 190.001 376.298 190.918 376.986 190.918C383.638 189.312 390.519 186.101 394.189 179.908C394.647 179.22 393.73 178.073 393.042 178.761Z" fill="#273C59"/>
<path d="M609.572 189.083C605.672 190.001 601.773 191.148 597.644 191.377C593.516 191.606 589.387 191.606 585.258 191.148C577.23 190.689 569.202 189.313 561.174 187.019C545.576 182.89 530.667 175.78 517.363 166.375C513.693 163.623 510.023 160.87 506.812 157.659C505.207 156.053 503.372 154.677 501.766 153.071C500.16 151.466 498.784 149.86 496.72 148.713C496.261 148.484 495.343 148.943 495.573 149.631C496.949 153.071 500.39 156.283 502.913 158.806C505.895 161.788 509.106 164.54 512.317 167.293C518.969 172.568 526.08 177.385 533.649 181.284C549.017 189.313 565.761 194.359 583.194 195.735C588.011 196.194 593.057 196.423 597.874 195.964C602.691 195.506 607.507 194.818 610.719 190.918C611.866 190.459 610.948 188.854 609.572 189.083Z" fill="#273C59"/>
<path d="M593.287 173.486C591.452 172.109 588.929 172.339 586.864 172.339C584.341 172.339 581.589 172.109 579.066 171.88C574.019 171.421 568.744 170.274 563.927 168.669C554.064 165.687 544.66 160.87 536.402 155.136C536.173 154.906 535.714 155.365 535.943 155.594C543.513 163.393 552.688 169.128 562.78 172.798C567.826 174.633 573.102 176.009 578.378 176.697C581.13 177.156 583.653 177.385 586.406 177.385C588.929 177.385 591.681 177.614 593.516 175.779C594.434 175.321 594.204 174.174 593.287 173.486Z" fill="#273C59"/>
<path d="M593.517 150.319C589.158 146.19 582.507 143.896 577.002 141.603C571.267 139.309 565.304 137.244 559.34 135.639C547.412 132.428 534.797 130.363 522.411 129.675C497.867 128.299 472.636 132.198 449.699 141.144C437.313 145.961 425.615 152.154 414.834 159.723C410.017 148.943 404.971 138.391 400.613 127.381C398.319 121.647 396.025 116.142 393.732 110.408C391.667 104.903 389.832 98.939 386.85 93.6634C386.392 92.9753 385.474 93.434 385.474 94.1221C386.621 100.315 389.144 106.279 391.208 112.013C393.273 117.977 395.337 123.941 397.631 129.675C402.218 141.144 406.577 152.842 411.393 164.311C411.852 165.458 413.687 165.916 414.605 165.228C453.828 137.015 505.666 127.611 552.688 139.538C559.34 141.144 565.762 143.208 571.955 145.731C574.937 146.878 578.148 148.254 580.901 149.631C584.112 151.236 587.094 152.842 590.535 153.759C593.287 154.448 595.122 151.924 593.517 150.319Z" fill="#C6D1DB"/>
<path d="M427.449 432.22C424.237 430.844 420.797 434.284 418.732 436.349C416.209 438.872 413.916 441.624 412.31 444.836C408.411 451.488 406.346 459.057 405.429 466.626C403.364 482.224 405.658 500.344 413.916 514.107C416.209 518.006 421.944 514.565 419.879 510.666C416.668 504.014 413.916 497.592 412.539 490.252C411.163 483.141 410.934 475.801 411.622 468.691C412.31 462.039 413.916 455.387 417.127 449.423C418.503 446.671 420.338 443.918 422.402 441.624C424.237 439.56 428.137 437.725 428.825 434.973C428.825 433.367 428.366 432.679 427.449 432.22Z" fill="#2E496D"/>
<path d="M449.699 515.483C446.487 502.408 431.807 493.233 418.733 494.839C404.741 496.445 396.713 510.207 393.502 522.823C389.373 539.338 398.777 555.853 416.21 558.605C439.377 562.275 454.745 536.356 449.699 515.483Z" fill="#919AAE"/>
<path d="M437.541 520.3C435.706 512.96 427.449 507.684 419.879 508.602C411.851 509.519 407.264 517.318 405.658 524.658C403.364 534.062 408.64 543.466 418.503 545.072C431.807 546.907 440.523 532.227 437.541 520.3Z" fill="#2E496D"/>
<path d="M634.803 514.565C628.151 509.29 620.352 505.62 612.095 504.473C612.324 504.014 612.554 503.555 612.554 502.867C613.7 489.105 611.177 475.572 605.672 462.956C600.397 451.258 591.91 438.642 579.524 433.825C576.083 432.449 574.707 437.954 577.918 439.33C583.423 441.624 587.781 446.441 591.222 451.258C594.892 456.075 597.874 461.35 600.397 467.085C605.214 478.324 607.049 490.71 606.131 502.867C606.131 503.326 606.131 503.555 606.131 504.014C605.902 504.014 605.672 504.014 605.214 504.014C593.974 504.473 583.423 509.748 574.936 517.088C565.991 524.658 559.568 534.98 556.816 546.678C556.586 548.054 557.045 549.201 558.192 550.118C558.421 550.348 559.109 550.577 559.568 550.577H559.798C561.174 550.348 562.321 549.659 562.55 548.283C567.596 530.163 583.882 512.96 602.69 510.895C622.646 508.601 639.62 524.199 646.73 541.861C651.318 552.871 652.923 565.028 653.382 576.955C653.612 581.313 660.034 581.313 660.034 576.955C659.346 554.018 653.382 529.475 634.803 514.565Z" fill="#2E496D"/>
<path d="M521.033 566.175C520.574 565.486 519.886 565.028 519.198 564.798C518.51 564.569 517.592 564.569 516.904 565.028C516.675 565.257 516.446 565.257 516.216 565.486C515.757 565.945 515.528 566.174 515.528 566.863L514.84 568.698C514.611 568.927 514.611 569.386 514.381 569.615C514.152 569.844 514.152 570.074 514.152 570.533C514.152 570.762 514.152 571.221 514.152 571.45C514.152 571.679 514.152 571.909 514.152 572.138C514.152 572.597 514.381 572.826 514.611 573.056C514.84 573.285 514.84 573.514 515.069 573.514C515.299 573.744 515.757 573.973 515.987 573.973C516.446 574.203 517.134 574.203 517.592 573.973C518.051 573.973 518.281 573.744 518.51 573.514C518.739 573.285 518.969 573.056 519.198 572.597C519.198 572.368 519.427 572.368 519.427 572.138C519.427 571.909 519.657 571.909 519.657 571.679C519.657 571.45 519.886 571.45 519.886 571.221V570.991C519.886 570.762 520.116 570.303 520.116 570.074C520.345 569.386 520.574 568.698 520.804 568.009C521.721 567.78 521.492 566.863 521.033 566.175Z" fill="#2E496D"/>
<path d="M525.621 576.955C525.391 576.955 525.391 576.955 525.621 576.955C525.621 576.726 525.621 576.726 525.621 576.496C525.621 576.267 525.391 575.808 525.162 575.579C524.933 575.349 524.703 575.349 524.474 575.12C524.245 574.891 524.015 574.891 523.786 574.891C523.556 574.891 523.098 574.891 522.868 575.12C522.639 575.12 522.639 575.349 522.41 575.349C521.951 575.579 521.492 576.267 521.263 576.726C521.263 576.955 521.263 577.184 521.263 577.414C521.263 577.643 521.263 577.872 521.263 577.872C521.263 578.102 521.492 578.102 521.492 578.331C521.492 578.561 521.721 578.561 521.721 578.79C521.951 579.019 522.18 579.249 522.41 579.249C522.639 579.249 522.868 579.478 522.868 579.478C523.098 579.478 523.327 579.478 523.327 579.478C523.556 579.478 523.786 579.478 523.786 579.249C524.015 579.249 524.245 579.019 524.474 578.79C524.703 578.561 524.703 578.561 524.933 578.102C524.933 577.873 525.162 577.643 525.162 577.643C525.621 577.873 525.621 577.414 525.621 576.955Z" fill="#2E496D"/>
<path d="M645.583 590.718C645.583 590.488 645.583 590.259 645.583 590.029C645.583 590.029 645.583 590.029 645.583 589.8C645.583 589.571 645.354 589.341 645.124 589.112C644.895 588.883 644.895 588.653 644.666 588.653C644.436 588.424 644.207 588.424 643.978 588.194C643.748 587.965 643.519 587.965 643.289 587.965C643.289 587.965 643.289 587.965 643.06 587.965C642.831 587.965 642.601 587.965 642.372 587.965C642.142 587.965 641.913 587.965 641.684 587.965H641.454C641.225 587.965 641.225 587.965 641.225 588.194C641.225 588.194 640.996 588.194 640.996 588.424H640.766C640.537 588.424 640.308 588.653 640.308 588.653L640.078 588.883L639.849 589.112C639.619 589.341 639.619 589.341 639.39 589.571L639.161 590.029C639.161 590.259 639.161 590.488 639.161 590.718C639.161 590.947 639.161 591.176 639.161 591.406C639.161 591.406 639.161 591.406 639.161 591.635C639.161 591.864 639.39 592.094 639.39 592.323C639.39 592.323 639.39 592.323 639.39 592.553C639.39 592.553 639.39 592.553 639.39 592.782C639.619 593.011 639.619 593.241 639.849 593.47C639.849 593.47 640.078 593.699 640.308 593.699C640.537 593.929 640.766 593.929 641.225 594.158C641.454 594.158 641.684 594.158 641.913 594.158C642.142 594.158 642.372 594.158 642.601 594.158C642.601 594.158 642.601 594.158 642.831 594.158C643.06 594.158 643.289 593.929 643.519 593.929L643.748 593.699L643.978 593.47C644.207 593.241 644.436 593.011 644.436 592.782C644.436 592.782 644.666 592.323 644.666 592.094C645.583 591.406 645.583 591.176 645.583 590.718Z" fill="#2E496D"/>
<path d="M646.502 582.46C646.502 582.001 646.272 581.772 645.814 581.542C645.814 581.542 645.814 581.313 645.584 581.313C645.355 581.084 645.125 580.854 644.667 580.854C644.437 580.854 644.208 580.854 643.979 580.854C643.749 580.854 643.52 580.854 643.29 581.084C643.061 581.313 642.832 581.542 642.602 581.772C642.602 581.772 642.602 582.001 642.373 582.001C642.144 582.231 642.144 582.46 642.144 582.919C642.144 583.148 642.144 583.607 642.144 583.836C642.144 583.836 642.144 583.836 642.144 584.066V584.295C642.144 584.524 642.373 584.524 642.373 584.754C642.602 584.983 642.602 585.212 642.832 585.442C643.061 585.671 643.061 585.671 643.29 585.671C643.52 585.901 643.749 585.901 644.208 585.901C644.437 585.901 644.667 585.901 644.667 585.901C644.896 585.901 644.896 585.671 645.125 585.671C645.355 585.442 645.584 585.442 645.814 585.212C646.043 584.983 646.043 584.754 646.272 584.524C646.502 583.607 646.731 583.148 646.502 582.46Z" fill="#2E496D"/>
<path d="M683.66 662.741C683.431 661.823 682.284 661.594 681.596 662.282C679.99 663.658 679.073 665.493 677.697 667.099C676.32 669.163 674.715 670.998 672.88 672.604C669.439 675.815 665.769 677.65 661.64 679.485C652.236 683.155 643.749 686.825 634.574 690.725C610.49 700.588 586.635 711.139 563.009 722.149C556.358 725.36 549.706 728.342 543.054 731.553C539.843 733.159 536.402 734.764 533.191 736.37C529.521 738.205 526.31 740.04 524.475 743.71C523.098 746.463 524.016 750.362 527.456 751.05C534.567 752.426 541.448 747.609 547.641 744.628C553.605 741.646 559.569 738.893 565.533 736.141C577.689 730.406 590.076 724.901 602.462 719.626C614.619 714.35 626.775 709.304 638.932 704.258C649.025 700.129 660.035 696.459 668.063 688.89C671.733 685.22 675.632 681.32 678.614 676.962C681.367 673.292 685.037 667.558 683.66 662.741Z" fill="#426A67"/>
<path d="M663.934 776.74C660.035 776.281 656.135 779.492 652.924 781.327C650.172 782.704 647.19 784.309 644.208 785.227C637.785 787.75 631.134 789.814 624.482 791.42C611.407 794.631 598.104 796.237 584.8 797.154C569.203 798.53 553.605 799.677 538.008 799.448C530.209 799.448 522.41 798.53 514.382 798.072C506.813 797.613 499.244 797.842 491.674 798.76C483.187 799.907 474.471 801.283 465.984 802.889C461.856 803.577 457.956 804.494 453.827 804.724C449.699 804.953 445.57 804.494 441.441 804.494C438.918 804.494 437.771 808.164 440.065 809.311C446.717 812.522 454.745 813.21 462.085 813.669C469.884 814.128 477.453 812.752 485.252 811.834C493.05 810.917 500.849 810.229 508.877 810.458C517.135 810.917 525.163 811.834 533.42 812.293C549.476 812.981 565.762 812.293 581.818 811.375C596.269 810.458 610.949 809.311 625.17 806.559C632.969 804.953 640.538 803.118 648.107 800.365C652.007 798.989 655.906 797.384 659.805 795.549C661.64 794.631 663.246 793.714 664.852 792.796C668.063 791.19 669.898 789.585 671.274 786.144C672.65 781.098 668.063 777.199 663.934 776.74Z" fill="#426A67"/>
<path d="M281.567 728.113C281.567 728.113 438.918 727.654 569.661 660.218C592.599 648.29 607.278 617.325 617.6 611.361C627.922 605.397 628.84 612.279 626.546 620.995C624.252 629.711 614.618 642.327 614.618 642.327C614.618 642.327 655.906 608.379 666.457 600.122C676.779 592.094 679.761 602.416 676.091 609.756C676.091 609.756 690.083 606.774 687.101 622.371C687.101 622.371 693.064 629.023 686.413 639.345C686.413 639.345 691.229 642.327 686.413 651.272C681.596 660.218 672.421 675.586 656.135 686.825C639.85 697.835 611.866 703.111 596.957 710.451C582.277 717.791 427.678 799.907 359.784 810.917C291.889 821.927 276.98 762.06 281.567 728.113Z" fill="#E8BCB0"/>
<path d="M750.637 668.705C750.637 668.705 624.71 739.352 494.885 746.921C472.177 748.297 446.028 730.865 435.477 730.865C424.926 731.094 427.678 736.829 433.642 742.563C439.605 748.297 452.909 753.802 452.909 753.802C452.909 753.802 405.658 746.233 393.96 744.627C382.262 743.022 385.244 752.426 391.437 756.555C391.437 756.555 379.509 760.684 389.373 771.464C389.373 771.464 388.226 779.492 398.318 784.539C398.318 784.539 396.024 789.126 404.052 793.714C412.081 798.53 426.302 806.329 443.734 807.476C461.167 808.623 484.563 799.677 499.013 798.76C513.464 797.613 628.38 800.365 684.118 777.657C740.086 755.179 760.271 711.139 750.637 668.705Z" fill="#E8BCB0"/>
<path d="M581.589 651.043C577.919 651.96 575.166 654.025 571.955 656.318C568.744 658.383 565.532 660.447 562.092 662.512C555.44 666.411 548.559 669.852 541.678 673.063C527.686 679.485 512.776 684.761 498.096 689.119C466.672 698.065 434.101 704.028 401.989 710.451C391.896 712.515 381.804 714.58 371.711 716.644C366.894 717.561 362.077 718.708 357.261 719.626C351.985 720.773 346.709 721.69 341.663 723.525C339.828 724.213 340.058 727.195 342.122 726.966C346.48 726.736 350.838 725.819 355.196 724.901C360.013 723.984 365.059 723.066 369.876 722.149C378.822 720.314 387.767 718.479 396.713 716.644C414.145 713.203 431.807 709.763 449.24 706.093C479.746 699.9 510.712 693.018 539.613 680.632C547.641 677.191 555.211 673.522 562.78 669.163C566.679 666.87 570.579 664.576 574.249 662.053C577.919 659.53 581.359 657.465 583.653 653.566C584.341 652.419 583.194 650.813 581.589 651.043Z" fill="#DF9F8E"/>
<path d="M692.376 641.639C692.146 640.95 691.917 640.033 691.688 639.345C691.458 638.657 690.312 638.198 689.623 637.969C691 636.592 691.688 634.299 691.917 632.464C692.376 630.17 692.376 627.647 691.458 625.353C691 623.977 690.082 622.83 688.935 622.142C688.935 621.912 689.165 621.683 689.165 621.454C689.394 616.178 688.247 609.756 682.513 607.921C681.366 607.462 680.219 607.462 679.302 607.462C680.678 603.562 679.302 598.516 674.943 597.14C668.062 595.076 661.181 602.645 656.594 606.774C650.4 612.508 644.207 618.013 637.555 623.289C634.344 626.041 630.904 628.564 627.463 631.087C624.252 633.381 620.582 635.445 618.288 638.886C617.829 639.804 618.747 640.492 619.435 640.492C622.876 640.033 625.399 638.198 628.151 636.363C630.904 634.528 633.427 632.693 636.179 630.858C641.455 626.959 646.73 623.059 651.547 618.701C656.364 614.572 660.952 609.756 665.998 605.856C667.374 604.709 672.42 600.581 674.026 603.333C674.714 604.251 674.026 605.856 673.797 606.774C673.567 608.15 673.338 609.067 673.338 610.214C671.732 611.591 670.127 612.967 668.75 614.572C664.622 619.16 660.493 623.747 655.905 628.105C653.612 630.17 651.318 632.464 649.024 634.528C646.73 636.363 643.749 638.427 642.372 640.95C641.684 642.327 642.831 644.162 644.437 643.703C646.73 643.244 648.795 641.18 650.63 639.804C652.694 638.198 654.759 636.592 656.594 634.987C660.493 631.546 664.163 627.876 667.833 624.206C669.668 622.371 671.273 620.307 673.108 618.472C674.485 616.866 675.861 615.261 677.696 614.343C682.972 611.361 683.66 618.701 683.66 622.142C683.66 622.6 683.66 622.83 683.889 623.059C682.513 623.977 681.137 625.124 679.99 626.27C676.09 630.17 671.962 634.299 668.062 638.198C665.998 640.262 664.163 642.097 662.099 644.162C660.264 646.226 658.428 648.061 657.97 650.814C657.97 651.272 658.199 651.731 658.887 651.731C663.016 651.043 665.998 647.144 668.98 644.391C672.191 641.18 675.402 637.969 678.613 634.757L683.43 630.17C684.118 629.482 684.807 628.794 685.724 628.105C685.953 627.876 686.412 627.647 686.871 627.417C687.33 627.876 687.1 630.629 687.1 631.317C686.871 632.234 686.642 632.922 686.412 633.84C685.953 634.757 685.495 635.445 685.265 636.363C685.036 637.28 685.495 638.198 686.183 638.886C680.907 640.492 677.467 645.079 674.255 649.437C671.962 652.419 669.668 654.942 666.915 657.465C664.392 659.988 661.181 662.282 659.575 665.493C659.346 665.952 659.575 666.64 660.263 666.64C663.704 666.411 666.457 664.117 669.209 662.053C671.962 659.988 674.485 657.236 676.778 654.484C679.531 651.043 682.972 645.309 687.559 644.162C687.788 645.079 688.018 645.767 688.935 646.455C688.935 646.914 688.935 647.144 688.706 647.602C688.247 649.208 687.559 650.584 686.642 651.96C684.807 654.942 682.742 657.924 680.678 660.677C678.613 663.429 676.32 666.182 674.026 668.705C671.732 671.228 668.75 673.522 667.833 677.192C667.603 678.109 668.521 679.027 669.438 678.797C673.108 677.88 675.861 674.439 678.384 671.687C681.137 668.705 683.66 665.493 686.183 662.053C688.477 658.842 690.77 655.86 692.376 652.19C692.835 648.749 694.211 644.62 692.376 641.639Z" fill="#DF9F8E"/>
<path d="M596.957 710.221C592.828 710.68 588.929 712.744 585.259 714.579C581.359 716.414 577.46 718.479 573.561 720.314C566.221 723.984 558.651 727.654 551.082 731.094C536.173 738.205 521.034 745.086 505.666 751.738C474.7 765.042 443.276 777.428 411.852 788.897C403.136 792.108 394.19 795.319 385.244 798.301C376.299 801.512 367.353 804.494 358.866 808.623C358.178 808.852 358.637 809.77 359.325 809.77C376.069 807.247 392.126 801.054 408.182 795.549C424.238 790.044 440.065 784.309 455.892 778.116C487.086 765.959 517.823 752.885 548.1 738.893C556.587 734.994 565.074 730.865 573.561 726.736C577.689 724.672 582.047 722.608 586.176 720.543C590.305 718.479 594.892 716.185 598.333 712.744C599.48 711.598 598.333 709.992 596.957 710.221Z" fill="#DF9F8E"/>
<path d="M710.726 686.367C708.891 686.596 707.056 686.825 705.221 687.513C703.157 688.431 701.092 689.578 699.028 690.725C695.129 692.56 691.459 694.395 687.559 696.23C679.302 700.129 670.815 703.799 662.328 707.01C654.071 710.221 645.813 713.433 637.326 716.415C629.298 719.167 620.123 721.002 612.783 725.819C612.325 726.048 612.554 726.736 613.013 726.736C621.729 726.966 630.445 723.296 638.473 720.773C647.189 718.02 655.676 715.038 663.934 711.598C671.962 708.386 679.99 704.946 688.018 701.276C692.147 699.441 696.275 697.376 700.404 695.312C704.533 693.248 708.203 691.642 711.414 688.201C712.332 687.743 711.873 686.137 710.726 686.367Z" fill="#DF9F8E"/>
<path d="M477.911 574.89C477.681 574.202 477.452 573.744 477.223 573.285C476.993 572.826 476.305 572.367 475.846 572.138C475.158 571.909 474.47 571.909 474.011 572.367C473.553 572.597 473.094 573.055 472.635 573.285C472.176 573.744 471.947 574.432 471.488 574.89C471.259 575.349 471.03 575.579 470.8 576.037C470.571 576.496 470.341 576.725 470.112 577.184C469.653 577.872 469.653 579.019 469.653 579.937C469.883 580.625 470.571 581.542 471.259 582.001C471.947 582.46 473.094 582.689 474.011 582.46C474.241 582.23 474.47 582.23 474.929 582.001C475.388 581.772 475.846 581.313 476.076 580.854C476.305 580.625 476.305 580.395 476.535 580.395C476.764 579.937 476.993 579.478 477.223 579.019C477.452 578.56 477.452 578.102 477.681 577.643C477.681 577.414 477.681 577.184 477.911 576.955C477.911 576.725 477.911 576.725 477.911 576.496C477.911 576.037 477.911 575.579 477.911 574.89Z" fill="#86AFB3"/>
<path d="M479.517 588.194C479.517 587.736 479.517 587.048 479.058 586.589C478.829 586.13 478.6 585.901 478.141 585.671C477.682 585.442 477.223 585.442 476.765 585.671C476.306 585.901 476.076 585.901 475.618 586.359L475.388 586.589C475.159 586.818 475.159 587.048 474.93 587.048C474.471 587.506 474.241 587.965 474.012 588.424C474.012 588.653 474.012 588.653 474.012 588.883C474.012 589.112 474.012 589.112 474.012 589.341C474.012 589.571 474.012 589.8 473.783 590.259C473.783 590.718 474.012 591.176 474.241 591.635C474.471 592.094 475.159 592.782 475.847 592.782C476.076 592.782 476.306 592.782 476.535 592.782C476.994 592.782 477.453 592.553 477.911 592.323C478.141 592.323 478.37 592.094 478.6 591.864C479.058 591.406 479.058 591.176 479.288 590.718C479.288 590.488 479.288 590.488 479.517 590.259C479.746 589.8 479.746 589.341 479.746 588.883C479.746 588.653 479.746 588.424 479.517 588.194Z" fill="#86AFB3"/>
<path d="M471.258 590.029C471.258 589.8 471.258 589.8 471.258 589.571C471.258 589.341 471.259 589.341 471.029 589.112C471.029 588.882 470.8 588.882 470.8 588.653C470.57 588.424 470.57 588.194 470.341 588.194C470.112 587.965 470.112 587.965 469.882 587.965C469.653 587.736 469.424 587.736 469.194 587.736C468.965 587.736 468.965 587.736 468.735 587.736C468.506 587.736 468.506 587.965 468.277 587.965C468.047 588.194 467.818 588.194 467.818 588.424C467.588 588.653 467.589 588.882 467.359 589.112C467.359 589.341 467.359 589.341 467.13 589.571C466.9 590.029 467.13 590.488 467.13 590.717C467.13 590.947 467.359 591.176 467.359 591.406C467.589 591.635 467.818 591.864 468.047 592.094C468.277 592.323 468.735 592.323 469.194 592.323C469.653 592.323 469.882 592.323 470.341 592.094C470.57 591.864 470.8 591.635 471.029 591.406C471.029 591.176 471.258 590.947 471.258 590.717C471.258 590.488 471.258 590.259 471.258 590.029C471.258 590.259 471.258 590.259 471.258 590.029Z" fill="#86AFB3"/>
<path d="M649.025 858.168C649.025 857.939 649.254 857.48 649.025 857.25C649.025 857.021 649.025 856.792 648.795 856.562C648.795 856.333 648.566 855.874 648.337 855.645C648.107 855.415 647.649 855.186 647.19 854.957C646.96 854.957 646.502 854.727 646.272 854.957C646.043 854.957 645.584 854.957 645.355 855.186C645.125 855.415 644.896 855.415 644.667 855.645C644.437 855.874 643.979 856.104 643.749 856.333C643.749 856.333 643.749 856.333 643.52 856.562L643.29 856.792C643.061 856.792 643.061 857.021 643.061 857.25C642.832 857.709 642.602 858.397 642.373 858.856C642.373 859.085 642.373 859.085 642.373 859.315C642.373 859.544 642.373 860.003 642.144 860.232C642.144 860.462 642.144 860.92 642.373 861.15C642.373 861.379 642.602 861.609 642.602 861.838C642.832 862.067 642.832 862.297 643.061 862.526C643.29 862.755 643.52 862.755 643.749 862.985C644.208 863.214 644.437 863.444 644.896 863.444C645.125 863.444 645.355 863.444 645.814 863.444C646.043 863.444 646.272 863.444 646.502 863.214C646.731 863.214 646.96 862.985 647.19 862.755C647.419 862.526 647.878 862.297 648.107 861.838C648.107 861.838 648.107 861.609 648.337 861.609C648.566 861.15 648.795 860.691 648.795 860.003C648.795 860.003 648.795 860.003 648.795 859.774C648.795 859.774 648.795 859.774 648.795 859.544C648.795 859.315 648.795 859.315 649.025 859.085C649.025 858.856 649.025 858.627 649.025 858.397C648.795 858.856 648.795 858.627 649.025 858.168Z" fill="#86AFB3"/>
<path d="M655.217 861.838C655.217 861.608 655.217 861.379 655.217 861.15C655.217 861.15 655.217 861.15 655.217 860.92C655.217 860.691 654.988 860.691 654.988 860.461C654.988 860.232 654.758 860.232 654.758 860.003C654.529 859.773 654.529 859.544 654.3 859.315C654.07 859.085 653.841 858.856 653.611 858.626C653.153 858.168 652.235 858.397 651.776 858.626C651.318 858.856 651.088 859.085 651.088 859.544C651.088 859.544 651.088 859.544 650.859 859.773L650.63 860.003C650.4 860.232 650.171 860.461 650.171 860.691C650.171 860.92 649.941 861.15 649.941 861.379C649.941 861.608 649.941 861.838 649.941 862.067C649.941 862.067 649.941 862.067 649.941 862.296C649.941 862.526 649.941 862.755 649.941 862.985C649.941 863.214 650.171 863.443 650.171 863.673C650.4 863.902 650.4 864.131 650.63 864.131C650.859 864.361 651.088 864.59 651.547 864.59C651.776 864.82 652.006 864.819 652.235 864.819C652.465 864.819 652.694 864.819 652.923 864.819C653.153 864.819 653.382 864.82 653.611 864.59C653.841 864.59 654.3 864.361 654.529 864.131C654.988 863.673 654.988 863.673 654.988 863.214C654.988 863.214 654.988 862.985 655.217 862.755C655.217 862.526 655.217 862.296 655.217 861.838C655.217 862.067 655.217 862.067 655.217 861.838Z" fill="#86AFB3"/>
<path d="M656.365 849.91C656.135 849.452 656.135 848.993 655.676 848.764C655.447 848.534 655.218 848.305 654.759 848.305C654.529 848.075 654.071 848.075 653.841 848.075C653.383 848.075 653.153 848.075 652.924 848.305C652.695 848.305 652.236 848.534 652.006 848.764L651.777 848.993C651.548 849.222 651.318 849.222 651.318 849.452C651.089 849.91 651.089 850.369 651.089 850.828C651.089 851.287 651.089 851.516 651.318 851.745C651.318 851.975 651.548 852.434 651.777 852.663C652.006 852.892 652.465 853.122 652.924 853.351H653.153C653.383 853.351 653.841 853.351 654.071 853.351C654.3 853.351 654.529 853.122 654.759 853.122C654.988 852.892 655.218 852.892 655.218 852.663C655.447 852.434 655.447 852.204 655.676 851.975C655.906 851.516 656.135 851.057 656.135 850.599C656.365 850.369 656.365 850.14 656.365 849.91Z" fill="#86AFB3"/>
<path d="M488.233 257.896C482.957 252.849 475.159 250.556 468.277 253.079C465.066 254.226 461.855 256.061 459.561 258.813C458.414 260.189 457.497 261.795 456.809 263.63C456.121 265.694 456.35 268.447 458.414 269.594C460.249 270.97 462.772 269.594 463.69 267.759C463.69 267.529 463.919 267.3 463.919 267.071V266.841C464.378 266.382 464.837 265.924 465.296 265.465C465.754 265.006 465.984 264.547 466.442 264.089C466.672 263.859 466.901 263.63 467.131 263.401C467.131 263.401 467.13 263.401 467.36 263.171C467.819 262.712 468.507 262.483 468.965 262.254C468.965 262.254 469.195 262.024 469.424 262.024C469.654 262.024 470.112 261.795 470.112 261.795C470.571 261.566 471.259 261.566 471.718 261.336C471.947 261.336 471.947 261.336 472.177 261.336C472.406 261.336 472.635 261.336 472.865 261.336C473.553 261.336 474.241 261.336 474.929 261.336C475.159 261.336 476.076 261.566 475.159 261.336C475.388 261.336 475.617 261.336 475.847 261.566C476.535 261.795 477.223 261.795 477.682 262.024C477.682 262.024 478.14 262.254 478.37 262.254C478.599 262.254 478.829 262.483 478.829 262.483C479.287 262.712 479.975 263.171 480.434 263.401C480.664 263.401 480.664 263.63 480.664 263.63C480.893 263.859 481.122 264.089 481.352 264.318C482.957 265.924 486.169 266.153 487.774 264.318C489.839 262.483 489.839 259.731 488.233 257.896Z" fill="#1C2434"/>
<path d="M572.643 255.373C572.184 253.308 570.349 251.703 568.514 250.326C567.138 249.179 565.762 248.491 564.156 247.803C560.945 246.427 557.275 245.739 553.605 246.198C549.935 246.656 546.265 248.033 543.512 250.326C540.989 252.391 537.778 256.29 539.384 259.731C539.842 260.419 540.76 261.107 541.677 261.107C543.283 260.878 544.43 259.96 545.577 259.043C546.035 258.584 546.494 258.125 546.953 257.666C546.953 257.666 546.953 257.666 547.182 257.666C547.182 257.666 547.182 257.666 547.412 257.437C547.641 257.208 547.87 257.208 548.1 256.978C548.559 256.519 549.247 256.29 549.705 255.831C549.935 255.602 550.394 255.602 550.623 255.373H550.852C550.852 255.373 550.852 255.373 551.082 255.373C551.54 255.143 552.229 254.914 552.687 254.914C552.917 254.914 553.375 254.684 553.605 254.684C553.605 254.684 553.605 254.684 553.834 254.684C553.834 254.684 553.834 254.684 554.064 254.684C554.752 254.684 555.21 254.684 555.899 254.684C556.128 254.684 556.587 254.684 556.816 254.684C556.816 254.684 556.816 254.684 557.045 254.684C557.734 254.914 558.192 254.914 558.88 255.143C559.11 255.143 559.568 255.373 559.798 255.373H560.027C560.486 255.602 561.174 255.831 561.633 256.29C561.862 256.519 562.092 256.749 562.55 256.749C562.55 256.749 562.55 256.749 562.78 256.978C563.238 257.437 563.697 257.896 564.156 258.354C564.615 258.813 564.385 258.584 564.156 258.354C564.844 259.043 565.303 259.731 566.22 260.189C569.661 262.024 573.331 259.043 572.643 255.373Z" fill="#1C2434"/>
<path d="M477.222 275.099C472.176 273.264 467.359 276.934 465.295 281.292C463.689 284.732 462.772 288.173 463.23 292.072C463.46 293.907 463.689 295.742 464.377 297.348C465.295 299.412 466.212 301.477 468.047 302.853C469.194 303.77 469.882 304.458 471.258 304.917C471.947 305.147 472.635 305.147 473.552 305.376C487.773 306.293 488.691 279.227 477.222 275.099Z" fill="#1C2434"/>
<path d="M557.963 270.053C552.917 268.218 548.1 271.888 546.035 276.246C544.43 279.686 543.512 283.127 543.971 287.026C544.2 288.861 544.43 290.696 545.118 292.302C546.035 294.366 546.953 296.431 548.788 297.807C549.935 298.724 550.623 299.412 551.999 299.871C552.687 300.101 553.375 300.101 554.293 300.33C555.21 300.33 556.357 300.33 557.504 299.871C568.285 295.742 568.973 273.952 557.963 270.053Z" fill="#1C2434"/>
<path d="M527.914 320.056C526.767 319.368 525.391 319.597 524.474 320.515C523.785 321.203 523.327 321.891 522.639 322.579C522.409 322.808 521.95 323.267 521.721 323.496C521.492 323.726 521.262 323.726 521.033 324.185C519.657 325.102 518.051 325.79 516.675 326.02C514.84 326.249 513.234 326.02 511.399 325.561C510.482 325.331 509.794 324.873 509.105 324.643C508.647 324.414 508.417 324.185 507.959 323.955C507.5 323.726 506.812 323.726 506.353 323.726C505.665 323.726 505.435 324.185 505.206 324.873C505.206 325.561 505.206 326.02 505.435 326.708C505.665 327.166 506.124 327.625 506.582 328.084C507.5 328.772 508.417 329.46 509.335 329.919C511.629 331.066 514.152 331.525 516.675 331.525C519.198 331.295 521.492 330.607 523.556 329.46C525.85 328.084 528.143 326.249 528.832 323.726C529.52 322.12 528.832 320.744 527.914 320.056Z" fill="#DF9F8E"/>
<path d="M528.833 349.187C526.998 350.563 526.309 351.939 524.474 353.315L524.245 353.545C524.016 353.774 523.786 353.774 523.557 354.003C523.098 354.233 522.639 354.462 522.181 354.692H521.951C521.722 354.692 521.493 354.921 521.263 354.921C520.804 355.15 520.346 355.15 519.887 355.38C519.428 355.609 518.281 355.609 517.364 355.609C516.446 355.609 515.529 355.609 514.611 355.38C513.694 355.15 512.776 354.921 511.859 354.462C510.712 354.003 509.795 353.315 508.418 353.545C507.73 353.774 507.271 354.462 507.271 355.15C507.042 357.673 510.941 359.508 512.776 360.197C515.299 361.343 518.052 361.573 520.804 361.114C523.098 360.655 525.392 359.738 527.456 358.362C529.75 356.756 531.814 354.462 532.044 351.48C532.732 349.416 530.209 348.269 528.833 349.187Z" fill="#DF9F8E"/>
<path d="M485.251 279.227C485.251 278.539 485.251 277.851 484.793 277.392C484.563 276.704 484.334 276.246 483.875 275.787C483.416 275.328 482.958 275.099 482.27 274.869C481.811 274.64 481.123 274.411 480.435 274.411L479.058 274.64C478.141 274.869 477.453 275.328 476.994 275.787C476.765 276.016 476.535 276.475 476.306 276.704C475.847 277.392 475.618 278.31 475.618 279.227C475.618 279.457 475.618 279.686 475.618 279.916C475.618 280.604 475.618 281.292 476.076 281.75C476.306 282.439 476.535 282.897 476.994 283.356C477.453 283.815 477.911 284.274 478.6 284.274C479.288 284.503 479.746 284.732 480.435 284.732C480.893 284.732 481.352 284.503 481.811 284.503C482.728 284.274 483.416 283.815 483.875 283.356C484.105 283.127 484.334 282.668 484.563 282.439C485.022 281.75 485.251 280.833 485.251 279.916C485.251 279.686 485.251 279.457 485.251 279.227Z" fill="white"/>
<path d="M565.532 274.41C565.532 273.722 565.532 273.034 565.073 272.575C564.844 271.887 564.615 271.428 564.156 270.97C563.697 270.511 563.238 270.281 562.55 270.052C562.092 269.823 561.403 269.593 560.715 269.593L559.339 269.823C558.422 270.052 557.733 270.511 557.275 270.97C557.045 271.199 556.816 271.658 556.587 271.887C556.128 272.575 555.898 273.493 555.898 274.41C555.898 274.64 555.898 274.869 555.898 275.098C555.898 275.786 555.898 276.475 556.357 276.933C556.587 277.621 556.816 278.08 557.275 278.539C557.733 278.998 558.192 279.456 558.88 279.456C559.568 279.686 560.027 279.915 560.715 279.915C561.174 279.915 561.633 279.686 562.092 279.686C563.009 279.456 563.697 278.998 564.156 278.539C564.385 278.31 564.615 277.851 564.844 277.621C565.303 276.933 565.532 276.016 565.532 275.098C565.762 274.869 565.762 274.64 565.532 274.41Z" fill="white"/>
<path d="M452.221 302.394C445.799 299.641 438.459 300.33 433.642 306.064C432.266 307.899 431.119 309.734 430.201 311.798C429.972 312.028 429.972 312.257 429.742 312.486C429.284 313.863 428.825 315.009 428.596 316.386C428.366 317.533 428.137 318.909 427.907 320.056C427.449 328.543 433.871 336.341 442.129 337.488C449.239 338.635 457.038 334.277 460.937 328.313C462.772 325.561 463.69 322.12 463.69 318.909C464.378 311.569 458.873 305.146 452.221 302.394Z" fill="#DA8F98"/>
<path d="M583.652 298.036C577.23 295.284 569.89 295.972 565.073 301.706C563.697 303.541 562.55 305.376 561.632 307.44C561.403 307.67 561.403 307.899 561.174 308.129C560.715 309.505 560.256 310.652 560.027 312.028C559.797 313.175 559.568 314.551 559.339 315.698C558.88 324.185 565.302 331.984 573.56 333.13C580.67 334.277 588.469 329.919 592.368 323.955C594.203 321.203 595.121 317.762 595.121 314.551C595.809 307.211 590.533 300.789 583.652 298.036Z" fill="#DA8F98"/>
<path d="M523.557 82.1949C520.575 82.1949 517.593 82.1949 514.611 82.1949C514.611 79.213 514.611 76.2311 514.611 73.2493C514.611 63.3862 498.784 62.9274 498.784 73.2493C498.784 76.2311 498.784 78.9836 498.784 81.9655C495.802 81.9655 492.821 81.9655 489.609 81.9655C479.288 81.7361 479.058 98.0217 489.609 98.2511C492.591 98.2511 495.573 98.2511 498.555 98.2511C498.555 101.233 498.555 104.215 498.555 107.197C498.326 117.519 514.611 117.748 514.841 107.197C514.841 104.215 514.841 101.233 514.841 98.0217C517.822 98.0217 520.575 98.0217 523.557 98.0217C533.649 98.0217 533.879 81.9655 523.557 82.1949Z" fill="#D16B6F"/>
<path d="M413.686 321.661C413.686 321.203 413.457 320.973 413.228 320.515C412.998 320.056 412.998 319.597 412.54 319.368C412.081 318.68 411.622 317.992 410.934 317.533C410.475 317.074 410.016 316.845 409.558 316.386C409.099 316.157 408.411 315.927 407.952 315.698C407.035 315.468 406.346 315.239 405.429 315.239C404.511 315.239 403.594 315.239 402.906 315.468C402.218 315.698 401.759 315.927 401.3 316.157C401.071 316.157 400.842 316.386 400.612 316.615C399.465 317.303 398.777 317.992 398.089 319.138C397.63 319.827 397.172 320.744 396.942 321.432C396.713 322.35 396.483 323.267 396.483 324.185C396.483 325.102 396.483 326.02 396.942 326.937C397.172 327.396 397.401 328.084 397.63 328.543L397.86 328.772C397.86 328.772 397.86 328.772 397.86 329.001C398.089 329.46 398.548 329.919 399.006 330.378C398.777 330.378 398.777 330.148 398.548 330.148C398.777 330.378 399.236 330.607 399.465 330.836C399.695 330.836 399.695 331.066 399.924 331.066C400.383 331.295 401.071 331.525 401.53 331.754C401.988 331.983 402.677 331.983 403.365 332.213C403.594 332.213 403.823 332.442 403.823 332.442C405.2 332.671 406.346 332.671 407.723 332.442C408.411 332.213 408.87 331.983 409.328 331.754C409.787 331.525 410.016 331.295 410.475 331.066C411.393 330.378 412.081 329.69 412.54 328.772C412.769 328.313 412.998 327.625 413.228 326.937C413.228 326.708 413.457 326.478 413.457 326.249C413.916 324.185 413.916 323.038 413.686 321.661Z" fill="white"/>
<path d="M682.971 272.117C682.512 271.199 681.595 270.97 680.677 270.741C680.448 270.741 680.219 270.741 679.989 270.741C679.76 270.741 679.531 270.741 679.989 270.741C680.448 270.741 680.219 270.741 679.301 270.511C678.384 270.511 677.466 270.741 676.549 271.199C675.631 271.658 674.484 272.117 673.567 272.576C672.879 272.805 672.42 273.264 671.732 273.493L670.585 269.135C670.126 267.3 668.062 266.153 666.227 266.612C664.392 267.3 663.245 269.135 663.704 270.97L665.997 279.686C666.227 280.833 667.144 281.521 668.062 281.98C669.209 282.439 670.126 282.209 671.273 281.75C673.337 280.833 675.402 279.915 677.466 278.998C678.384 278.539 679.531 278.08 680.448 277.622C681.366 277.163 682.283 276.475 682.742 275.787C682.971 275.557 682.971 275.328 683.201 274.869C682.971 275.328 682.971 275.328 683.201 275.099C683.43 274.869 683.43 274.64 683.659 274.411C683.43 273.952 683.43 272.805 682.971 272.117Z" fill="white"/>
<path d="M893.308 344.599C893.078 343.681 892.39 342.764 891.932 342.076C891.014 341.158 889.179 340.241 887.803 340.47C884.821 340.7 882.068 342.076 879.316 342.993C878.857 343.223 878.169 343.452 877.71 343.681C876.793 340.7 875.875 337.718 874.728 334.965C874.04 333.13 872.664 331.983 870.6 332.213C868.765 332.442 867.389 334.048 867.389 335.883C867.159 338.406 867.389 341.158 867.389 343.681C867.389 345.058 867.389 346.205 867.618 347.581C867.847 349.186 868.077 351.021 868.306 352.627C868.535 353.774 869.912 355.379 870.829 356.068C872.205 356.756 873.811 356.985 875.187 356.526C877.71 355.838 880.004 354.921 882.527 354.233C883.674 353.774 884.821 353.544 885.968 353.086C887.574 352.627 889.179 352.168 890.555 351.251C892.849 349.874 894.225 347.122 893.308 344.599Z" fill="white"/>
<path d="M882.068 562.734C881.151 561.357 879.774 560.44 878.169 560.44C876.563 560.44 874.958 561.357 874.269 562.734C873.811 563.651 873.123 564.798 872.434 565.716C871.976 565.027 871.517 564.339 871.058 563.651C870.37 562.504 869.682 561.587 868.535 560.899C866.929 559.981 864.636 560.44 863.718 562.275C863.259 563.192 863.03 564.11 863.259 565.027C863.489 565.716 863.718 566.174 864.177 566.404C864.177 566.633 864.406 566.633 864.406 566.862C864.636 567.321 864.865 567.551 865.094 568.009C865.553 568.697 866.012 569.615 866.471 570.303L869.223 574.891C870.599 576.955 873.581 577.414 875.416 575.579C875.875 574.891 876.563 574.432 877.251 573.973C877.481 573.744 877.71 573.514 878.169 573.285C878.627 572.826 879.086 572.138 879.545 571.679C880.462 570.303 881.38 568.927 882.298 567.551C882.756 565.945 882.986 564.11 882.068 562.734Z" fill="white"/>
<path d="M908.905 552.183C908.217 550.806 906.152 550.577 904.776 551.036C903.629 551.265 902.712 552.183 901.565 552.871C901.106 553.329 900.418 553.559 899.959 554.018C899.73 553.559 899.5 552.871 899.271 552.412C898.354 550.348 897.207 548.513 895.601 546.907C894.684 545.76 892.849 545.989 891.931 546.678C890.784 547.366 890.325 549.201 891.243 550.348C891.702 551.036 892.16 551.953 892.619 552.641C892.849 553.1 893.078 553.329 893.078 553.788V554.018C893.078 554.247 893.307 554.476 893.307 554.706C893.537 555.623 893.766 556.311 893.995 557.229C893.995 557.688 894.225 558.146 894.225 558.605C894.225 558.834 894.225 558.834 894.225 559.064V559.293C894.454 560.44 894.684 561.587 895.83 562.046C896.748 562.504 898.124 562.734 899.271 562.046C901.106 560.899 902.712 559.752 904.547 558.605C905.464 557.917 906.84 557.229 907.529 556.311C909.134 555.394 909.822 553.559 908.905 552.183Z" fill="white"/>
<path d="M906.841 787.75C904.777 786.603 902.483 787.062 900.419 788.208C899.501 788.667 898.354 789.126 897.437 789.585C896.749 789.814 895.831 790.273 894.914 790.502C894.684 789.126 894.684 787.75 894.455 786.374C894.226 784.997 894.226 783.621 893.767 782.245C893.538 781.327 893.308 780.41 892.62 779.722C891.473 778.345 889.638 778.345 888.262 779.034C886.198 779.951 885.968 783.162 885.968 785.227C885.968 786.603 885.968 788.209 885.968 789.585C885.968 790.961 885.968 792.337 885.968 793.713C886.198 796.237 887.115 798.53 889.179 799.907C890.785 800.824 892.62 801.053 894.455 801.053C896.061 800.824 897.666 800.595 899.272 800.365C900.648 800.136 902.024 799.677 903.401 798.989C905.465 798.072 907.529 797.154 908.676 795.319C910.282 792.567 909.364 789.126 906.841 787.75Z" fill="white"/>
<path d="M109.995 713.433C109.078 713.203 107.931 713.203 107.013 713.433C105.867 713.662 104.032 714.809 103.573 715.956C103.343 716.644 102.885 717.332 102.885 718.02C102.885 718.25 102.885 718.708 102.655 718.938C102.426 719.626 102.426 720.314 102.197 721.002C101.967 722.378 101.508 723.755 101.279 724.901C101.05 725.59 100.82 726.278 100.591 726.966C98.0678 725.59 95.5447 724.443 93.0216 723.296C91.416 722.378 89.1222 722.837 87.9753 724.672C87.0579 726.507 87.5166 728.571 89.3516 729.718C93.0216 732.012 96.9209 734.306 100.82 736.6C101.967 737.976 103.573 738.664 105.408 737.976C109.307 736.6 110.913 732.012 112.06 728.342C112.518 726.966 112.977 725.59 113.207 724.213C113.665 722.608 114.353 720.543 114.124 718.938C114.124 716.644 112.518 714.121 109.995 713.433Z" fill="white"/>
<path d="M116.418 683.155C115.042 683.155 113.436 683.614 112.29 684.761C111.372 685.678 110.684 686.825 109.996 687.972C109.078 689.348 108.39 690.495 107.702 691.871C107.014 691.642 106.555 691.183 105.867 690.954C105.638 690.954 105.638 690.725 105.408 690.725C105.408 690.725 104.72 690.266 105.179 690.495C104.95 690.266 104.72 690.036 104.261 689.807C103.573 689.348 103.115 688.89 102.197 688.66C101.968 688.66 101.738 688.66 101.509 688.66C101.509 688.66 101.509 688.66 101.28 688.66C100.133 688.431 99.4445 689.119 99.4445 690.036C99.2152 691.413 99.4446 692.33 100.362 693.477C101.05 694.165 101.968 694.853 102.885 695.541C104.491 696.688 106.326 697.606 108.161 698.294C109.308 698.753 110.913 698.065 111.372 696.918C112.519 694.853 113.666 693.018 115.042 691.183L115.271 690.725C115.501 690.495 115.501 690.495 115.73 690.266C115.959 689.807 116.418 689.348 116.877 689.119C117.794 687.972 118.483 686.366 118.253 684.761C118.253 684.073 117.565 683.155 116.418 683.155Z" fill="white"/>
<path d="M157.935 424.421C157.477 423.045 156.559 422.357 155.412 421.898C154.265 421.439 152.66 421.898 151.513 422.127C150.825 422.357 149.907 422.586 149.219 422.586H148.99L148.76 419.146C148.76 417.311 147.384 415.705 145.32 415.705C143.485 415.705 141.879 417.081 141.879 419.146C141.879 421.898 141.879 424.421 141.65 427.174C141.65 428.321 142.109 429.467 143.026 430.156C143.944 430.844 145.091 431.073 146.237 430.844C147.843 430.614 149.449 430.156 151.054 429.926C153.119 429.467 155.412 429.467 157.018 427.862C157.935 426.944 158.165 425.568 157.935 424.421Z" fill="white"/>
<path d="M330.653 292.072C330.195 289.778 327.901 287.944 325.607 287.714C324.46 287.485 323.543 287.714 322.396 288.173C321.249 288.632 320.102 289.549 319.414 290.696C318.955 292.072 318.496 292.76 318.496 294.137C318.496 294.366 318.496 294.595 318.496 295.054C318.496 295.742 318.496 296.201 318.496 296.889C318.496 297.348 318.496 297.807 318.267 298.265C318.267 298.265 318.038 298.265 318.038 298.036C316.203 296.889 314.138 295.513 312.074 294.595C310.698 294.137 308.863 295.054 308.404 296.201C307.716 297.577 307.945 299.183 308.863 300.1C309.78 301.018 310.927 301.706 311.845 302.623C312.762 303.312 313.45 303.77 314.368 304.458C315.973 305.835 317.808 306.982 319.414 308.358C320.102 308.817 321.478 309.046 322.396 308.817C323.313 308.587 324.231 307.899 324.69 306.982C324.69 306.982 324.69 306.752 324.919 306.752C325.148 306.523 325.148 306.523 324.919 306.752C325.378 306.523 325.836 306.064 326.295 305.835C326.066 306.064 325.607 306.293 325.378 306.523C326.295 305.835 326.983 305.147 327.671 304.229C327.901 303.77 328.13 303.541 328.36 303.082C328.818 301.935 329.506 301.018 329.736 299.871C329.965 299.183 330.195 298.495 330.424 297.577C330.424 297.118 330.653 296.889 330.653 296.43C331.112 294.595 331.112 293.448 330.653 292.072Z" fill="white"/>
<path d="M317.12 244.133C316.432 242.986 314.827 242.069 313.45 242.527C312.303 242.986 311.615 243.674 310.927 244.592C310.698 245.28 310.468 245.968 310.239 246.427C310.01 247.344 309.551 248.262 309.322 249.179C309.092 249.638 309.092 250.097 308.863 250.555C308.633 250.326 308.404 250.097 308.175 250.097C307.487 249.638 306.798 249.179 306.34 248.72C305.652 248.262 305.193 248.032 304.505 247.803C304.046 247.803 303.587 247.803 303.358 247.803H303.587C303.358 247.803 303.358 247.803 303.128 247.803C301.982 247.803 300.835 249.179 301.294 250.326V250.555C301.294 250.785 301.294 251.014 301.523 251.244C301.752 251.932 302.211 252.39 302.899 253.079C303.587 253.537 304.046 254.225 304.734 254.684C306.11 255.602 307.257 256.749 308.633 257.666C309.322 258.354 310.239 258.584 311.157 258.584C312.074 258.354 312.992 257.895 313.45 257.207C314.138 255.372 315.056 253.767 315.973 251.932L317.12 249.409C317.12 247.803 318.038 246.197 317.12 244.133Z" fill="white"/>
<path d="M785.732 237.94C783.668 237.94 781.603 237.94 779.539 237.94C779.539 235.875 779.539 233.811 779.539 231.747C779.539 224.865 768.3 224.407 768.3 231.747C768.3 233.811 768.3 235.875 768.3 237.94C766.235 237.94 763.941 237.94 761.877 237.94C754.537 237.94 754.537 249.179 761.877 249.408C763.941 249.408 766.006 249.408 768.3 249.408C768.3 251.473 768.3 253.537 768.3 255.831C768.3 263.171 779.539 263.171 779.768 255.831C779.768 253.767 779.768 251.473 779.768 249.408C781.833 249.408 783.897 249.408 785.961 249.408C792.613 249.179 792.843 237.94 785.732 237.94Z" fill="#D16B6F"/>
<path d="M117.794 508.372C115.73 508.372 113.665 508.372 111.601 508.372C111.601 506.308 111.601 504.243 111.601 502.179C111.601 495.298 100.362 494.839 100.362 502.179C100.362 504.243 100.362 506.308 100.362 508.372C98.2972 508.372 96.0034 508.372 93.9391 508.372C86.5991 508.372 86.5991 519.611 93.9391 519.841C96.0034 519.841 98.0678 519.841 100.362 519.841C100.362 521.905 100.362 523.97 100.362 526.263C100.362 533.603 111.601 533.603 111.83 526.263C111.83 524.199 111.83 521.905 111.83 519.841C113.895 519.841 115.959 519.841 118.023 519.841C124.675 519.611 124.905 508.372 117.794 508.372Z" fill="#D16B6F"/>
<path d="M912.576 467.314C911.2 467.314 909.824 467.314 908.447 467.314C908.447 465.938 908.447 464.562 908.447 463.185C908.447 458.598 900.878 458.368 901.107 463.185C901.107 464.562 901.107 465.938 901.107 467.314C899.731 467.314 898.355 467.314 896.749 467.314C891.933 467.314 891.933 474.883 896.749 474.883C898.126 474.883 899.502 474.883 900.878 474.883C900.878 476.26 900.878 477.636 900.878 479.012C900.878 483.829 908.447 483.829 908.447 479.012C908.447 477.636 908.447 476.26 908.447 474.654C909.824 474.654 911.2 474.654 912.576 474.654C917.164 474.883 917.393 467.314 912.576 467.314Z" fill="#D16B6F"/>
<path d="M205.415 266.153C204.039 266.153 202.663 266.153 201.286 266.153C201.286 264.777 201.286 263.401 201.286 262.024C201.286 257.437 193.717 257.207 193.946 262.024C193.946 263.401 193.946 264.777 193.946 266.153C192.57 266.153 191.194 266.153 189.588 266.153C184.771 266.153 184.771 273.722 189.588 273.722C190.964 273.722 192.341 273.722 193.717 273.722C193.717 275.099 193.717 276.475 193.717 277.851C193.717 282.668 201.286 282.668 201.286 277.851C201.286 276.475 201.286 275.099 201.286 273.493C202.663 273.493 204.039 273.493 205.415 273.493C210.003 273.722 210.232 266.153 205.415 266.153Z" fill="#D16B6F"/>
</g>
<defs>
<clipPath id="clip0_701_4964">
<rect width="908.551" height="898" fill="white" transform="translate(46 51)"/>
</clipPath>
</defs>
</svg>
