<svg width="36" height="36" viewBox="0 0 36 36" fill="none" xmlns="http://www.w3.org/2000/svg">
<path d="M21.3773 27.7919L14.1426 23.6147L14.8594 22.3746L22.0932 26.5503L21.3773 27.7919Z" fill="white"/>
<path d="M28.7604 30.1709C30.8523 28.1985 32.175 25.4247 32.175 22.3313C32.175 18.517 30.1732 15.0796 27.0589 13.1476L30.5461 7.10758L29.998 6.78998L30.8607 5.29603L28.6056 3.99375L27.7434 5.4862L27.1644 5.15316L18.5886 20.01L19.3393 20.4436L18.2755 22.285L20.1572 23.3707L21.221 21.5313L21.9697 21.9644L25.5754 15.7168C26.688 16.425 27.604 17.4024 28.2385 18.5586C28.8731 19.7148 29.2056 21.0124 29.2055 22.3313C29.2055 26.6553 25.6874 30.1709 21.3634 30.1709H15.0436V33.1393H32.8321V30.1709H28.7604ZM10.2736 2C6.26318 2 3 5.26368 3 9.27258C3 13.2835 6.26368 16.5462 10.2736 16.5462C14.2825 16.5462 17.5452 13.2835 17.5452 9.27258C17.5452 5.26368 14.283 2 10.2736 2ZM10.2736 15.8726C6.63455 15.8726 3.67205 12.9116 3.67205 9.27258C3.67205 5.63455 6.63455 2.67255 10.2736 2.67255C13.9106 2.67255 16.8726 5.63505 16.8726 9.27258C16.8726 12.9116 13.9106 15.8726 10.2736 15.8726Z" fill="white"/>
<path d="M6.50867 8.79373H7.90504V7.37744H6.50867V8.79373Z" fill="white"/>
<path d="M10.2797 3.55072C7.12303 3.55072 4.5553 6.11995 4.5553 9.27709C4.5553 12.4332 7.12303 14.9995 10.2797 14.9995C13.4348 14.9995 16.0021 12.4332 16.0021 9.27709C16.0021 6.11995 13.4348 3.55072 10.2797 3.55072ZM6.01738 9.29103V6.8816H8.40938V9.29103H6.01738ZM8.48107 13.6957C8.16625 13.6957 7.86432 13.5706 7.6417 13.348C7.41909 13.1254 7.29403 12.8235 7.29403 12.5087C7.29403 12.1938 7.41909 11.8919 7.6417 11.6693C7.86432 11.4467 8.16625 11.3216 8.48107 11.3216C8.6369 11.3218 8.79116 11.3527 8.93505 11.4125C9.07893 11.4724 9.20962 11.56 9.31964 11.6703C9.42967 11.7807 9.51688 11.9116 9.57628 12.0557C9.63569 12.1997 9.66613 12.3541 9.66587 12.5099C9.66593 12.6656 9.63534 12.8197 9.57583 12.9635C9.51633 13.1074 9.42907 13.2381 9.31906 13.3482C9.20904 13.4583 9.07841 13.5457 8.93463 13.6053C8.79084 13.6649 8.63672 13.6956 8.48107 13.6957ZM9.91577 11.0608C9.75709 11.0654 9.59911 11.0381 9.45116 10.9805C9.30322 10.923 9.16832 10.8363 9.05445 10.7257C8.94059 10.6151 8.85008 10.4828 8.78827 10.3366C8.72646 10.1903 8.69461 10.0332 8.69461 9.87447C8.69461 9.71572 8.72646 9.55859 8.78827 9.41237C8.85008 9.26616 8.94059 9.13383 9.05445 9.02321C9.16832 8.9126 9.30322 8.82596 9.45116 8.76841C9.59911 8.71086 9.75709 8.68358 9.91577 8.68817C10.2304 8.68817 10.5321 8.81316 10.7546 9.03563C10.9771 9.2581 11.1021 9.55984 11.1021 9.87447C11.1021 10.1891 10.9771 10.4908 10.7546 10.7133C10.5321 10.9358 10.2304 11.0608 9.91577 11.0608ZM10.7471 6.56848C10.4159 6.56782 10.0985 6.43586 9.86449 6.20154C9.63044 5.96721 9.49887 5.64965 9.4986 5.31846C9.49841 5.15443 9.53056 4.99196 9.59323 4.84037C9.6559 4.68877 9.74785 4.55103 9.86382 4.43501C9.97979 4.319 10.1175 4.22699 10.2691 4.16426C10.4206 4.10153 10.5831 4.06931 10.7471 4.06944C11.0724 4.07863 11.3813 4.2143 11.6081 4.44763C11.835 4.68096 11.9619 4.99354 11.9619 5.31896C11.9619 5.64438 11.835 5.95696 11.6081 6.19029C11.3813 6.42362 11.0724 6.55929 10.7471 6.56848ZM12.8185 12.9301C12.5039 12.9301 12.2022 12.8051 11.9797 12.5826C11.7572 12.3601 11.6322 12.0584 11.6322 11.7438C11.6322 11.4291 11.7572 11.1274 11.9797 10.9049C12.2022 10.6825 12.5039 10.5575 12.8185 10.5575C13.1329 10.5577 13.4342 10.6828 13.6564 10.9051C13.8785 11.1275 14.0033 11.4289 14.0033 11.7433C14.0035 11.899 13.973 12.0533 13.9136 12.1972C13.8541 12.3412 13.7669 12.472 13.6569 12.5822C13.5468 12.6924 13.4162 12.7799 13.2723 12.8395C13.1285 12.8992 12.9743 12.93 12.8185 12.9301ZM13.0699 9.44435C12.9141 9.44422 12.7598 9.4134 12.6158 9.35364C12.4719 9.29387 12.3411 9.20634 12.231 9.09605C12.1209 8.98575 12.0336 8.85485 11.9741 8.71081C11.9146 8.56677 11.884 8.41242 11.8841 8.25657C11.8843 8.10072 11.9151 7.94642 11.9749 7.80248C12.0346 7.65854 12.1221 7.52778 12.2324 7.41767C12.3427 7.30756 12.4736 7.22025 12.6177 7.16073C12.7617 7.10121 12.9161 7.07064 13.0719 7.07077C13.3867 7.07104 13.6884 7.19633 13.9108 7.41908C14.1332 7.64183 14.258 7.9438 14.2577 8.25856C14.2575 8.57332 14.1322 8.87508 13.9094 9.09746C13.6867 9.31984 13.3847 9.44462 13.0699 9.44435Z" fill="white"/>
</svg>
