<svg width="1000" height="1000" viewBox="0 0 1000 1000" fill="none" xmlns="http://www.w3.org/2000/svg">
<rect width="1000" height="1000" fill="white"/>
<g clip-path="url(#clip0_701_4327)">
<path d="M378.695 379.352L371.47 375.499L351.724 347.805C351.724 347.805 344.981 357.438 349.556 363.699C351.724 368.756 351.724 368.756 351.724 368.756L326.438 375.981C326.438 375.981 313.434 383.928 315.12 384.891C316.806 386.095 349.556 397.895 357.503 399.58C362.079 399.099 367.617 387.781 367.617 387.781L378.936 389.948L379.417 381.519L378.695 379.352Z" fill="#F8B181"/>
<path d="M482.004 321.797L436.249 409.454L377.491 374.536L370.748 393.801C370.748 393.801 435.045 438.833 446.364 443.408C457.682 440.037 510.661 365.626 510.661 365.626L482.004 321.797Z" fill="#BABABC"/>
<path d="M647.203 336.246C643.831 349.491 621.677 375.981 621.677 375.981C621.677 375.981 600.003 492.775 600.003 526.489C600.003 526.489 581.461 529.861 557.138 531.306C543.412 532.028 528 532.269 513.31 530.583C507.29 530.102 501.27 529.138 495.49 527.934C486.098 470.861 486.098 367.793 487.302 339.377C484.653 333.838 481.764 321.797 481.764 321.797L505.845 307.589L521.257 298.438L527.759 294.585L574.477 290.732L576.644 290.492C576.644 290.492 636.366 314.814 647.203 332.634C647.685 333.597 647.444 334.801 647.203 336.246Z" fill="#DADBDD"/>
<path d="M557.138 531.306C543.412 532.028 528 532.269 513.31 530.583C508.976 467.49 504.4 351.899 521.498 298.439L528 294.586L574.718 290.733C568.216 327.096 549.432 440.76 557.138 531.306Z" fill="#1C90A7"/>
<path d="M514.996 447.743L496.935 403.193C495.972 401.025 495.972 398.617 496.935 396.45L504.4 377.907C505.363 375.499 505.122 372.609 503.918 370.201L495.972 355.752C494.768 353.826 494.527 351.418 495.249 349.01L506.327 307.83L521.739 298.68L528.241 294.827C528.241 294.586 511.143 356.475 514.996 447.743Z" fill="white"/>
<path d="M602.892 351.177C605.782 349.732 606.745 346.36 605.301 343.471L577.125 290.492L574.958 290.732C570.383 315.295 560.509 375.017 556.897 439.074L588.203 407.527C589.648 406.082 590.129 403.915 589.648 401.748L579.052 369.238C578.089 366.589 579.293 363.699 581.701 362.495L602.892 351.177Z" fill="white"/>
<path d="M494.285 534.195C494.285 534.195 511.865 803.425 511.865 848.217C513.309 849.662 513.309 849.662 513.309 849.662H520.052L517.403 855.2C517.403 855.2 510.661 864.592 502.473 870.131C501.028 872.78 514.754 874.225 526.795 866.037C528.24 863.388 526.795 849.662 526.795 849.662C526.795 849.662 544.374 579.709 545.819 572.966C547.264 566.224 573.031 851.107 573.031 851.107L579.774 853.755V864.592C579.774 864.592 596.15 873.984 605.541 872.78C601.447 868.686 589.166 852.311 589.166 852.311L594.705 849.662L600.725 539.012L494.285 534.195Z" fill="#424953"/>
<path d="M542.207 618.48C544.134 592.472 545.338 574.411 545.819 572.725L558.101 544.309L526.795 551.052C526.795 551.052 537.15 588.137 542.207 618.48Z" fill="#313A47"/>
<path d="M570.142 244.255C570.142 244.255 567.734 282.545 569.42 294.104C568.697 294.104 546.061 324.206 530.89 312.406C531.612 307.349 531.612 272.431 531.612 272.431L570.142 244.255Z" fill="#F38B6E"/>
<path d="M465.629 106.75C465.629 106.75 445.16 123.126 447.327 139.26C449.254 155.636 469.723 196.333 469.723 196.333C469.723 196.333 494.286 125.052 465.629 106.75Z" fill="#542A2C"/>
<path d="M595.909 218.729C577.608 269.54 528.722 283.749 504.4 277.728C480.078 271.467 453.588 243.051 459.609 218.729C465.629 194.407 463.702 176.105 459.609 145.521C455.515 114.938 482.004 94.7095 482.004 94.7095C482.004 94.7095 530.89 58.1058 583.869 92.783C636.607 126.979 595.909 218.729 595.909 218.729Z" fill="#F8B181"/>
<path d="M593.983 200.427C593.983 200.427 618.305 167.917 624.566 192.24C630.587 216.562 577.608 253.166 593.983 200.427Z" fill="#F38B6E"/>
<path d="M573.514 134.444C573.514 134.444 582.905 175.142 582.905 194.166C582.905 213.19 576.163 253.888 523.184 272.912C502.714 272.912 476.947 262.075 476.947 262.075C476.947 262.075 491.878 282.545 520.294 281.1C548.71 279.655 582.665 259.426 596.15 224.027C605.542 192.721 608.432 137.093 608.432 137.093L573.514 134.444Z" fill="#F38B6E"/>
<path d="M532.816 116.865C532.575 116.865 532.335 116.865 531.853 116.865C517.886 118.069 505.123 125.052 491.396 126.738C482.005 127.942 468.037 127.46 460.09 121.922C453.829 117.587 441.789 104.342 442.993 95.9137C443.474 93.024 444.919 90.375 446.846 88.2077C455.997 77.3711 471.65 75.2037 485.858 74.4813C507.29 73.2772 528.722 73.9997 549.673 78.8159C565.326 82.4282 580.257 88.4485 593.501 97.5994C599.522 101.693 604.097 106.51 609.154 111.326C614.211 116.383 619.269 121.681 620.232 129.146C620.232 141.428 607.95 188.146 607.95 188.146C607.95 188.146 595.669 196.333 587.481 216.562L579.293 212.468L593.501 153.468C580.738 145.521 568.216 137.334 555.453 129.387C549.673 125.534 540.522 116.865 532.816 116.865Z" fill="#542A2C"/>
<path d="M478.874 88.2076C478.874 88.2076 461.536 91.8198 463.944 104.583C469.723 116.864 529.927 107.714 529.686 104.342C529.445 100.971 498.862 93.9871 501.511 92.7831C504.16 91.8198 528.723 96.1545 537.633 103.138C534.984 99.0442 515.96 82.9097 478.874 88.2076Z" fill="#6B3936"/>
<path d="M593.02 115.902C593.02 115.902 610.359 111.808 611.322 130.11C611.322 147.448 603.134 148.412 597.114 145.281C591.093 142.15 553.286 118.791 567.494 119.755C581.702 120.959 593.02 115.902 593.02 115.902Z" fill="#6B3936"/>
<path d="M600.003 526.73C595.909 525.285 527.759 537.567 493.804 524.081L494.045 541.661C494.045 541.661 527.277 563.334 600.485 539.012L600.003 526.73Z" fill="#3B3B3B"/>
<path d="M573.513 528.897L572.55 549.367L581.701 546.236V526.971L573.513 528.897Z" fill="#686868"/>
<path d="M502.474 526.971L503.437 548.403L514.514 551.293L511.625 528.897L502.474 526.971Z" fill="#686868"/>
<path d="M539.077 659.66C539.077 659.66 533.057 741.296 506.326 729.496C509.457 783.197 511.865 831.36 511.865 848.217C513.31 849.662 513.31 849.662 513.31 849.662H520.053L517.404 855.201C517.404 855.201 510.661 864.592 502.473 870.131C501.028 872.78 514.755 874.225 526.795 866.037C528.24 863.388 526.795 849.662 526.795 849.662C526.795 849.662 533.779 743.945 539.318 663.031L539.077 659.66Z" fill="#313A47"/>
<path d="M594.705 849.421L597.354 713.361C590.612 726.124 578.571 739.369 561.473 724.92C567.493 789.699 573.032 850.866 573.032 850.866L579.775 853.515V864.352C579.775 864.352 596.15 873.743 605.542 872.539C601.448 868.446 589.167 852.07 589.167 852.07L594.705 849.421Z" fill="#313A47"/>
<path d="M517.163 169.362C517.163 169.362 544.134 166.954 556.415 171.77C555.452 165.99 536.669 159.007 530.648 159.007C524.387 158.766 517.163 169.362 517.163 169.362Z" fill="#542A2C"/>
<path d="M488.747 169.362C488.747 169.362 468.759 167.676 459.608 171.048C460.331 166.713 474.298 161.415 478.874 161.415C483.449 161.415 488.747 169.362 488.747 169.362Z" fill="#542A2C"/>
<path d="M552.081 190.072C552.081 195.129 549.673 199.223 546.543 199.223C543.412 199.223 541.004 195.129 541.004 190.072C541.004 185.015 543.412 180.921 546.543 180.921C549.432 180.921 552.081 185.015 552.081 190.072Z" fill="#542A2C"/>
<path d="M485.617 190.072C485.617 195.129 483.208 199.223 480.078 199.223C476.947 199.223 474.539 195.129 474.539 190.072C474.539 185.015 476.947 180.921 480.078 180.921C482.968 180.921 485.617 185.015 485.617 190.072Z" fill="#542A2C"/>
<path d="M602.652 494.461C603.856 484.829 605.301 474.233 606.987 463.396L605.301 460.266L584.35 464.841L575.44 490.367L602.652 494.461Z" fill="#D9D9A7"/>
<path d="M648.407 334.079C648.407 334.079 688.142 414.029 694.162 448.225C694.162 448.225 642.387 468.935 596.391 468.935L590.371 455.449L649.852 436.184C649.852 436.184 616.379 385.613 608.673 384.168C600.967 382.964 648.407 334.079 648.407 334.079Z" fill="#BABABC"/>
<path d="M550.637 488.2L567.253 635.578L606.987 636.301L600.244 520.228L550.637 488.2Z" fill="#DADBDD"/>
<path d="M564.844 452.56L533.298 413.548L467.074 473.751L563.159 572.967L613.007 496.147L564.844 452.56Z" fill="#342335"/>
<path d="M590.371 460.025L573.754 439.074L567.734 441.963C567.734 441.963 561.714 433.053 554.249 433.053C551.359 433.053 557.138 446.539 557.138 446.539L546.542 463.155L554.008 467.731C554.008 467.731 568.938 493.257 574.959 490.367C580.979 487.477 589.889 470.861 589.889 470.861C594.946 466.045 590.371 460.025 590.371 460.025Z" fill="#F8B181"/>
<path d="M488.747 233.419C488.747 233.419 497.176 241.847 504.641 239.198C512.106 236.79 523.183 227.398 523.183 227.398C523.183 227.398 516.441 248.349 503.918 247.627C491.396 246.904 488.747 233.419 488.747 233.419Z" fill="#BA5B50"/>
<path d="M513.07 528.175L516.682 636.301L490.433 631.244L494.045 517.098L513.07 528.175Z" fill="#DADBDD"/>
<path d="M502.473 213.913L480.078 209.096C480.078 209.096 483.931 228.121 498.62 223.786C503.677 222.582 502.473 213.913 502.473 213.913Z" fill="#F38B6E"/>
<path d="M912.338 532.51H88.2725V898.548H912.338V532.51Z" fill="#6EAADB"/>
<path d="M889.702 554.906H110.669V875.911H889.702V554.906Z" fill="#423F66"/>
<path d="M940.273 532.51H60.3386L43 493.739H957.612L940.273 532.51Z" fill="#A0C9F2"/>
<path d="M60.3386 898.548H940.273L957.612 926H43L60.3386 898.548Z" fill="#A0C9F2"/>
<path d="M43 493.739L143.901 476.401H882.959L957.612 493.739H43Z" fill="#C9E7FF"/>
<path d="M889.702 645.452H110.669V661.105H889.702V645.452Z" fill="#7D9ADB"/>
<path d="M889.702 768.749H110.669V784.401H889.702V768.749Z" fill="#7D9ADB"/>
<path d="M175.207 613.664V644.488C175.207 644.97 175.688 645.452 176.17 645.452H190.378C190.859 645.452 191.341 644.97 191.341 644.488V613.664H175.207Z" fill="#F69E3D"/>
<path d="M185.802 640.154H181.949C180.745 640.154 179.782 641.117 179.782 642.321C179.782 643.525 180.745 644.488 181.949 644.488H185.802C187.006 644.488 187.969 643.525 187.969 642.321C187.969 641.117 187.006 640.154 185.802 640.154Z" fill="white"/>
<path d="M185.803 640.154H183.635V644.248H185.803C187.007 644.248 187.97 643.284 187.97 642.08C187.97 641.117 187.007 640.154 185.803 640.154Z" fill="#F5662C"/>
<path d="M187.247 635.096H183.394C182.19 635.096 181.227 636.06 181.227 637.264C181.227 638.468 182.19 639.431 183.394 639.431H187.247C188.451 639.431 189.415 638.468 189.415 637.264C189.415 636.06 188.451 635.096 187.247 635.096Z" fill="white"/>
<path d="M187.247 635.096H185.08V639.19H187.247C188.451 639.19 189.415 638.227 189.415 637.023C189.415 636.06 188.451 635.096 187.247 635.096Z" fill="#F5662C"/>
<path d="M183.635 637.264L186.765 639.672C187.729 640.395 187.729 641.599 187.006 642.562C186.284 643.525 185.08 643.525 184.116 642.803L180.986 640.395C180.023 639.672 180.023 638.468 180.745 637.505C181.467 636.782 182.671 636.542 183.635 637.264Z" fill="white"/>
<path d="M183.635 637.264L185.32 638.709L182.671 642.081L180.986 640.636C180.023 639.913 180.023 638.709 180.745 637.746C181.467 636.783 182.671 636.542 183.635 637.264Z" fill="#F5662C"/>
<path d="M185.562 631.003L188.693 633.411C189.656 634.133 189.656 635.337 188.933 636.301C188.211 637.264 187.007 637.264 186.044 636.541L182.913 634.133C181.95 633.411 181.95 632.207 182.672 631.244C183.395 630.521 184.599 630.28 185.562 631.003Z" fill="white"/>
<path d="M185.562 631.002L187.248 632.447L184.599 635.819L182.913 634.374C181.95 633.651 181.95 632.447 182.672 631.484C183.395 630.521 184.599 630.28 185.562 631.002Z" fill="#F5662C"/>
<path d="M177.375 642.321L176.893 638.468C176.893 637.264 177.616 636.301 178.82 636.301C180.024 636.301 180.987 637.023 180.987 638.227L181.469 642.08C181.469 643.284 180.746 644.247 179.542 644.247C178.579 644.247 177.616 643.284 177.375 642.321Z" fill="white"/>
<path d="M177.375 642.321L177.134 640.154L181.228 639.672L181.468 641.839C181.468 643.043 180.746 644.007 179.542 644.007C178.579 644.247 177.615 643.284 177.375 642.321Z" fill="#F5662C"/>
<path d="M191.341 613.664H175.207C174.484 613.664 174.002 614.146 174.002 614.868V619.203C174.002 619.925 174.484 620.407 175.207 620.407H191.341C192.063 620.407 192.545 619.925 192.545 619.203V614.868C192.545 614.146 192.063 613.664 191.341 613.664Z" fill="#5B1C0D"/>
<path d="M176.171 614.627C175.93 614.627 175.689 614.868 175.689 615.109V618.962C175.689 619.203 175.93 619.444 176.171 619.444C176.411 619.444 176.652 619.203 176.652 618.962V615.109C176.652 614.868 176.652 614.627 176.171 614.627Z" fill="#36140C"/>
<path d="M178.096 614.627C177.856 614.627 177.615 614.868 177.615 615.109V618.962C177.615 619.203 177.856 619.444 178.096 619.444C178.337 619.444 178.578 619.203 178.578 618.962V615.109C178.578 614.868 178.337 614.627 178.096 614.627Z" fill="#36140C"/>
<path d="M179.782 614.627C179.542 614.627 179.301 614.868 179.301 615.109V618.962C179.301 619.203 179.542 619.444 179.782 619.444C180.023 619.444 180.264 619.203 180.264 618.962V615.109C180.264 614.868 180.023 614.627 179.782 614.627Z" fill="#36140C"/>
<path d="M181.709 614.627C181.468 614.627 181.227 614.868 181.227 615.109V618.962C181.227 619.203 181.468 619.444 181.709 619.444C181.949 619.444 182.19 619.203 182.19 618.962V615.109C182.19 614.868 181.949 614.627 181.709 614.627Z" fill="#36140C"/>
<path d="M183.395 614.627C183.154 614.627 182.913 614.868 182.913 615.109V618.962C182.913 619.203 183.154 619.444 183.395 619.444C183.636 619.444 183.876 619.203 183.876 618.962V615.109C183.876 614.868 183.636 614.627 183.395 614.627Z" fill="#36140C"/>
<path d="M185.081 614.627C184.84 614.627 184.599 614.868 184.599 615.109V618.962C184.599 619.203 184.84 619.444 185.081 619.444C185.322 619.444 185.562 619.203 185.562 618.962V615.109C185.562 614.868 185.322 614.627 185.081 614.627Z" fill="#36140C"/>
<path d="M187.007 614.627C186.766 614.627 186.525 614.868 186.525 615.109V618.962C186.525 619.203 186.766 619.444 187.007 619.444C187.248 619.444 187.489 619.203 187.489 618.962V615.109C187.489 614.868 187.248 614.627 187.007 614.627Z" fill="#36140C"/>
<path d="M188.693 614.627C188.452 614.627 188.211 614.868 188.211 615.109V618.962C188.211 619.203 188.452 619.444 188.693 619.444C188.934 619.444 189.175 619.203 189.175 618.962V615.109C189.175 614.868 188.934 614.627 188.693 614.627Z" fill="#36140C"/>
<path d="M190.619 614.627C190.379 614.627 190.138 614.868 190.138 615.109V618.962C190.138 619.203 190.379 619.444 190.619 619.444C190.86 619.444 191.101 619.203 191.101 618.962V615.109C191.101 614.868 190.86 614.627 190.619 614.627Z" fill="#36140C"/>
<path opacity="0.5" d="M178.578 621.852C177.855 621.852 177.374 622.333 177.374 623.056V638.468C177.374 639.19 177.855 639.672 178.578 639.672C179.3 639.672 179.782 639.19 179.782 638.468V623.056C179.782 622.333 179.059 621.852 178.578 621.852Z" fill="#FFBF66"/>
<path d="M197.121 613.664V644.488C197.121 644.97 197.603 645.452 198.084 645.452H212.292C212.774 645.452 213.256 644.97 213.256 644.488V613.664H197.121Z" fill="#F69E3D"/>
<path d="M207.717 640.154H203.864C202.66 640.154 201.696 641.117 201.696 642.321C201.696 643.525 202.66 644.488 203.864 644.488H207.717C208.921 644.488 209.884 643.525 209.884 642.321C209.884 641.117 208.921 640.154 207.717 640.154Z" fill="white"/>
<path d="M207.717 640.154H205.549V644.248H207.717C208.921 644.248 209.884 643.284 209.884 642.08C209.884 641.117 208.921 640.154 207.717 640.154Z" fill="#F5662C"/>
<path d="M209.403 635.096H205.55C204.346 635.096 203.382 636.06 203.382 637.264C203.382 638.468 204.346 639.431 205.55 639.431H209.403C210.607 639.431 211.57 638.468 211.57 637.264C211.329 636.06 210.366 635.096 209.403 635.096Z" fill="white"/>
<path d="M209.403 635.096H207.236V639.19H209.403C210.607 639.19 211.57 638.227 211.57 637.023C211.33 636.06 210.366 635.096 209.403 635.096Z" fill="#F5662C"/>
<path d="M205.79 637.264L208.921 639.672C209.884 640.395 209.884 641.599 209.161 642.562C208.439 643.525 207.235 643.525 206.272 642.803L203.141 640.395C202.178 639.672 202.178 638.468 202.9 637.505C203.382 636.782 204.827 636.542 205.79 637.264Z" fill="white"/>
<path d="M205.79 637.264L207.476 638.709L204.827 642.081L203.141 640.636C202.178 639.913 202.178 638.709 202.9 637.746C203.382 636.783 204.827 636.542 205.79 637.264Z" fill="#F5662C"/>
<path d="M207.476 631.003L210.607 633.411C211.57 634.133 211.57 635.337 210.847 636.301C210.125 637.264 208.921 637.264 207.958 636.541L204.827 634.133C203.864 633.411 203.864 632.207 204.586 631.244C205.309 630.521 206.754 630.28 207.476 631.003Z" fill="white"/>
<path d="M207.476 631.002L209.162 632.447L206.513 635.819L204.827 634.374C203.864 633.651 203.864 632.447 204.586 631.484C205.309 630.521 206.754 630.28 207.476 631.002Z" fill="#F5662C"/>
<path d="M199.528 642.321L199.047 638.468C199.047 637.264 199.769 636.301 200.973 636.301C202.177 636.301 203.141 637.023 203.141 638.227L203.622 642.08C203.622 643.284 202.9 644.247 201.696 644.247C200.733 644.247 199.528 643.284 199.528 642.321Z" fill="white"/>
<path d="M199.529 642.321L199.288 640.154L203.382 639.672L203.623 641.839C203.623 643.043 202.9 644.007 201.696 644.007C200.733 644.247 199.529 643.284 199.529 642.321Z" fill="#F5662C"/>
<path d="M213.256 613.664H197.121C196.399 613.664 195.917 614.146 195.917 614.868V619.203C195.917 619.925 196.399 620.407 197.121 620.407H213.256C213.978 620.407 214.46 619.925 214.46 619.203V614.868C214.7 614.146 213.978 613.664 213.256 613.664Z" fill="#5B1C0D"/>
<path d="M198.324 614.627C198.084 614.627 197.843 614.868 197.843 615.109V618.962C197.843 619.203 198.084 619.444 198.324 619.444C198.565 619.444 198.806 619.203 198.806 618.962V615.109C198.806 614.868 198.565 614.627 198.324 614.627Z" fill="#36140C"/>
<path d="M200.011 614.627C199.77 614.627 199.529 614.868 199.529 615.109V618.962C199.529 619.203 199.77 619.444 200.011 619.444C200.252 619.444 200.493 619.203 200.493 618.962V615.109C200.493 614.868 200.252 614.627 200.011 614.627Z" fill="#36140C"/>
<path d="M201.937 614.627C201.696 614.627 201.455 614.868 201.455 615.109V618.962C201.455 619.203 201.696 619.444 201.937 619.444C202.178 619.444 202.418 619.203 202.418 618.962V615.109C202.418 614.868 202.178 614.627 201.937 614.627Z" fill="#36140C"/>
<path d="M203.623 614.627C203.382 614.627 203.141 614.868 203.141 615.109V618.962C203.141 619.203 203.382 619.444 203.623 619.444C203.864 619.444 204.104 619.203 204.104 618.962V615.109C204.104 614.868 203.864 614.627 203.623 614.627Z" fill="#36140C"/>
<path d="M205.308 614.627C205.067 614.627 204.826 614.868 204.826 615.109V618.962C204.826 619.203 205.067 619.444 205.308 619.444C205.549 619.444 205.789 619.203 205.789 618.962V615.109C205.789 614.868 205.789 614.627 205.308 614.627Z" fill="#36140C"/>
<path d="M207.235 614.627C206.994 614.627 206.753 614.868 206.753 615.109V618.962C206.753 619.203 206.994 619.444 207.235 619.444C207.476 619.444 207.717 619.203 207.717 618.962V615.109C207.717 614.868 207.476 614.627 207.235 614.627Z" fill="#36140C"/>
<path d="M208.92 614.627C208.679 614.627 208.438 614.868 208.438 615.109V618.962C208.438 619.203 208.679 619.444 208.92 619.444C209.161 619.444 209.402 619.203 209.402 618.962V615.109C209.402 614.868 209.161 614.627 208.92 614.627Z" fill="#36140C"/>
<path d="M210.847 614.627C210.607 614.627 210.366 614.868 210.366 615.109V618.962C210.366 619.203 210.607 619.444 210.847 619.444C211.088 619.444 211.329 619.203 211.329 618.962V615.109C211.329 614.868 211.088 614.627 210.847 614.627Z" fill="#36140C"/>
<path d="M212.532 614.627C212.292 614.627 212.051 614.868 212.051 615.109V618.962C212.051 619.203 212.292 619.444 212.532 619.444C212.773 619.444 213.014 619.203 213.014 618.962V615.109C213.014 614.868 212.773 614.627 212.532 614.627Z" fill="#36140C"/>
<path opacity="0.5" d="M200.492 621.852C199.77 621.852 199.288 622.333 199.288 623.056V638.468C199.288 639.19 199.77 639.672 200.492 639.672C201.215 639.672 201.696 639.19 201.696 638.468V623.056C201.696 622.333 201.215 621.852 200.492 621.852Z" fill="#FFBF66"/>
<path d="M219.034 613.664V644.488C219.034 644.97 219.516 645.452 219.997 645.452H234.205C234.687 645.452 235.169 644.97 235.169 644.488V613.664H219.034Z" fill="#F69E3D"/>
<path d="M229.871 640.154H226.018C224.814 640.154 223.851 641.117 223.851 642.321C223.851 643.525 224.814 644.488 226.018 644.488H229.871C231.075 644.488 232.038 643.525 232.038 642.321C232.038 641.117 231.075 640.154 229.871 640.154Z" fill="white"/>
<path d="M229.871 640.154H227.704V644.248H229.871C231.075 644.248 232.038 643.284 232.038 642.08C232.038 641.117 231.075 640.154 229.871 640.154Z" fill="#F5662C"/>
<path d="M231.316 635.096H227.463C226.259 635.096 225.295 636.06 225.295 637.264C225.295 638.468 226.259 639.431 227.463 639.431H231.316C232.52 639.431 233.483 638.468 233.483 637.264C233.483 636.06 232.52 635.096 231.316 635.096Z" fill="white"/>
<path d="M231.316 635.096H229.149V639.19H231.316C232.52 639.19 233.484 638.227 233.484 637.023C233.484 636.06 232.52 635.096 231.316 635.096Z" fill="#F5662C"/>
<path d="M227.703 637.264L230.834 639.672C231.797 640.395 231.797 641.599 231.074 642.562C230.352 643.525 229.148 643.525 228.185 642.803L225.054 640.395C224.091 639.672 224.091 638.468 224.813 637.505C225.536 636.782 226.74 636.542 227.703 637.264Z" fill="white"/>
<path d="M227.703 637.264L229.389 638.709L226.74 642.081L225.054 640.636C224.091 639.913 224.091 638.709 224.813 637.746C225.536 636.783 226.74 636.542 227.703 637.264Z" fill="#F5662C"/>
<path d="M229.63 631.003L232.761 633.411C233.724 634.133 233.724 635.337 233.002 636.301C232.279 637.264 231.075 637.264 230.112 636.541L226.981 634.133C226.018 633.411 226.018 632.207 226.741 631.244C227.463 630.521 228.667 630.28 229.63 631.003Z" fill="white"/>
<path d="M229.63 631.002L231.316 632.447L228.667 635.819L226.981 634.374C226.018 633.651 226.018 632.447 226.741 631.484C227.463 630.521 228.667 630.28 229.63 631.002Z" fill="#F5662C"/>
<path d="M221.443 642.321L220.961 638.468C220.961 637.264 221.684 636.301 222.888 636.301C224.092 636.301 225.055 637.023 225.055 638.227L225.537 642.08C225.537 643.284 224.814 644.247 223.61 644.247C222.647 644.247 221.684 643.284 221.443 642.321Z" fill="white"/>
<path d="M221.443 642.321L221.202 640.154L225.296 639.672L225.537 641.839C225.537 643.043 224.814 644.007 223.61 644.007C222.647 644.247 221.684 643.284 221.443 642.321Z" fill="#F5662C"/>
<path d="M235.41 613.664H219.275C218.553 613.664 218.071 614.146 218.071 614.868V619.203C218.071 619.925 218.553 620.407 219.275 620.407H235.41C236.132 620.407 236.614 619.925 236.614 619.203V614.868C236.614 614.146 236.132 613.664 235.41 613.664Z" fill="#5B1C0D"/>
<path d="M220.239 614.627C219.998 614.627 219.757 614.868 219.757 615.109V618.962C219.757 619.203 219.998 619.444 220.239 619.444C220.48 619.444 220.721 619.203 220.721 618.962V615.109C220.721 614.868 220.48 614.627 220.239 614.627Z" fill="#36140C"/>
<path d="M222.165 614.627C221.924 614.627 221.683 614.868 221.683 615.109V618.962C221.683 619.203 221.924 619.444 222.165 619.444C222.406 619.444 222.646 619.203 222.646 618.962V615.109C222.646 614.868 222.406 614.627 222.165 614.627Z" fill="#36140C"/>
<path d="M223.851 614.627C223.61 614.627 223.37 614.868 223.37 615.109V618.962C223.37 619.203 223.61 619.444 223.851 619.444C224.092 619.444 224.333 619.203 224.333 618.962V615.109C224.333 614.868 224.092 614.627 223.851 614.627Z" fill="#36140C"/>
<path d="M225.777 614.627C225.536 614.627 225.295 614.868 225.295 615.109V618.962C225.295 619.203 225.536 619.444 225.777 619.444C226.018 619.444 226.259 619.203 226.259 618.962V615.109C226.018 614.868 226.018 614.627 225.777 614.627Z" fill="#36140C"/>
<path d="M227.463 614.627C227.222 614.627 226.981 614.868 226.981 615.109V618.962C226.981 619.203 227.222 619.444 227.463 619.444C227.704 619.444 227.945 619.203 227.945 618.962V615.109C227.945 614.868 227.704 614.627 227.463 614.627Z" fill="#36140C"/>
<path d="M229.15 614.627C228.909 614.627 228.668 614.868 228.668 615.109V618.962C228.668 619.203 228.909 619.444 229.15 619.444C229.39 619.444 229.631 619.203 229.631 618.962V615.109C229.631 614.868 229.39 614.627 229.15 614.627Z" fill="#36140C"/>
<path d="M231.075 614.627C230.835 614.627 230.594 614.868 230.594 615.109V618.962C230.594 619.203 230.835 619.444 231.075 619.444C231.316 619.444 231.557 619.203 231.557 618.962V615.109C231.557 614.868 231.316 614.627 231.075 614.627Z" fill="#36140C"/>
<path d="M232.762 614.627C232.521 614.627 232.28 614.868 232.28 615.109V618.962C232.28 619.203 232.521 619.444 232.762 619.444C233.003 619.444 233.244 619.203 233.244 618.962V615.109C233.244 614.868 233.003 614.627 232.762 614.627Z" fill="#36140C"/>
<path d="M234.446 614.627C234.206 614.627 233.965 614.868 233.965 615.109V618.962C233.965 619.203 234.206 619.444 234.446 619.444C234.687 619.444 234.928 619.203 234.928 618.962V615.109C234.928 614.868 234.928 614.627 234.446 614.627Z" fill="#36140C"/>
<path opacity="0.5" d="M222.646 621.852C221.924 621.852 221.442 622.333 221.442 623.056V638.468C221.442 639.19 221.924 639.672 222.646 639.672C223.369 639.672 223.851 639.19 223.851 638.468V623.056C223.61 622.333 223.128 621.852 222.646 621.852Z" fill="#FFBF66"/>
<path d="M241.189 613.664V644.488C241.189 644.97 241.671 645.452 242.153 645.452H256.361C256.842 645.452 257.324 644.97 257.324 644.488V613.664H241.189Z" fill="#F69E3D"/>
<path d="M251.785 640.154H247.932C246.728 640.154 245.765 641.117 245.765 642.321C245.765 643.525 246.728 644.488 247.932 644.488H251.785C252.989 644.488 253.952 643.525 253.952 642.321C253.952 641.117 252.989 640.154 251.785 640.154Z" fill="white"/>
<path d="M251.785 640.154H249.618V644.248H251.785C252.99 644.248 253.953 643.284 253.953 642.08C253.953 641.117 252.99 640.154 251.785 640.154Z" fill="#F5662C"/>
<path d="M253.23 635.096H249.377C248.173 635.096 247.21 636.06 247.21 637.264C247.21 638.468 248.173 639.431 249.377 639.431H253.23C254.434 639.431 255.398 638.468 255.398 637.264C255.398 636.06 254.434 635.096 253.23 635.096Z" fill="white"/>
<path d="M253.23 635.096H251.063V639.19H253.23C254.434 639.19 255.398 638.227 255.398 637.023C255.398 636.06 254.434 635.096 253.23 635.096Z" fill="#F5662C"/>
<path d="M249.618 637.264L252.748 639.672C253.711 640.395 253.711 641.599 252.989 642.562C252.267 643.525 251.063 643.525 250.099 642.803L246.969 640.395C246.005 639.672 246.005 638.468 246.728 637.505C247.45 636.782 248.895 636.542 249.618 637.264Z" fill="white"/>
<path d="M249.618 637.264L251.303 638.709L248.654 642.081L246.969 640.636C246.005 639.913 246.005 638.709 246.728 637.746C247.45 636.783 248.895 636.542 249.618 637.264Z" fill="#F5662C"/>
<path d="M251.545 631.003L254.675 633.411C255.639 634.133 255.639 635.337 254.916 636.301C254.194 637.264 252.99 637.264 252.027 636.541L248.896 634.133C247.933 633.411 247.933 632.207 248.655 631.244C249.378 630.521 250.822 630.28 251.545 631.003Z" fill="white"/>
<path d="M251.545 631.002L253.231 632.447L250.582 635.819L248.896 634.374C247.933 633.651 247.933 632.447 248.655 631.484C249.378 630.521 250.822 630.28 251.545 631.002Z" fill="#F5662C"/>
<path d="M243.597 642.321L243.116 638.468C243.116 637.264 243.838 636.301 245.042 636.301C246.246 636.301 247.21 637.023 247.21 638.227L247.691 642.08C247.691 643.284 246.969 644.247 245.765 644.247C244.561 644.247 243.597 643.284 243.597 642.321Z" fill="white"/>
<path d="M243.597 642.321L243.356 640.154L247.45 639.672L247.691 641.839C247.691 643.043 246.969 644.007 245.765 644.007C244.561 644.247 243.597 643.284 243.597 642.321Z" fill="#F5662C"/>
<path d="M257.324 613.664H241.189C240.467 613.664 239.985 614.146 239.985 614.868V619.203C239.985 619.925 240.467 620.407 241.189 620.407H257.324C258.046 620.407 258.528 619.925 258.528 619.203V614.868C258.769 614.146 258.046 613.664 257.324 613.664Z" fill="#5B1C0D"/>
<path d="M242.393 614.627C242.152 614.627 241.912 614.868 241.912 615.109V618.962C241.912 619.203 242.152 619.444 242.393 619.444C242.634 619.444 242.875 619.203 242.875 618.962V615.109C242.875 614.868 242.634 614.627 242.393 614.627Z" fill="#36140C"/>
<path d="M244.079 614.627C243.838 614.627 243.598 614.868 243.598 615.109V618.962C243.598 619.203 243.838 619.444 244.079 619.444C244.32 619.444 244.561 619.203 244.561 618.962V615.109C244.561 614.868 244.32 614.627 244.079 614.627Z" fill="#36140C"/>
<path d="M246.005 614.627C245.764 614.627 245.523 614.868 245.523 615.109V618.962C245.523 619.203 245.764 619.444 246.005 619.444C246.246 619.444 246.487 619.203 246.487 618.962V615.109C246.487 614.868 246.246 614.627 246.005 614.627Z" fill="#36140C"/>
<path d="M247.692 614.627C247.451 614.627 247.21 614.868 247.21 615.109V618.962C247.21 619.203 247.451 619.444 247.692 619.444C247.932 619.444 248.173 619.203 248.173 618.962V615.109C248.173 614.868 247.932 614.627 247.692 614.627Z" fill="#36140C"/>
<path d="M249.377 614.627C249.136 614.627 248.895 614.868 248.895 615.109V618.962C248.895 619.203 249.136 619.444 249.377 619.444C249.617 619.444 249.858 619.203 249.858 618.962V615.109C249.858 614.868 249.617 614.627 249.377 614.627Z" fill="#36140C"/>
<path d="M251.304 614.627C251.063 614.627 250.822 614.868 250.822 615.109V618.962C250.822 619.203 251.063 619.444 251.304 619.444C251.545 619.444 251.786 619.203 251.786 618.962V615.109C251.786 614.868 251.545 614.627 251.304 614.627Z" fill="#36140C"/>
<path d="M252.988 614.627C252.748 614.627 252.507 614.868 252.507 615.109V618.962C252.507 619.203 252.748 619.444 252.988 619.444C253.229 619.444 253.47 619.203 253.47 618.962V615.109C253.47 614.868 253.229 614.627 252.988 614.627Z" fill="#36140C"/>
<path d="M254.916 614.627C254.675 614.627 254.434 614.868 254.434 615.109V618.962C254.434 619.203 254.675 619.444 254.916 619.444C255.157 619.444 255.397 619.203 255.397 618.962V615.109C255.157 614.868 255.157 614.627 254.916 614.627Z" fill="#36140C"/>
<path d="M256.601 614.627C256.36 614.627 256.119 614.868 256.119 615.109V618.962C256.119 619.203 256.36 619.444 256.601 619.444C256.842 619.444 257.082 619.203 257.082 618.962V615.109C257.082 614.868 256.842 614.627 256.601 614.627Z" fill="#36140C"/>
<path opacity="0.5" d="M244.561 621.852C243.838 621.852 243.356 622.333 243.356 623.056V638.468C243.356 639.19 243.838 639.672 244.561 639.672C245.283 639.672 245.765 639.19 245.765 638.468V623.056C245.765 622.333 245.283 621.852 244.561 621.852Z" fill="#FFBF66"/>
<path d="M263.104 613.664V644.488C263.104 644.97 263.586 645.452 264.067 645.452H278.275C278.757 645.452 279.239 644.97 279.239 644.488V613.664H263.104Z" fill="#F69E3D"/>
<path d="M273.94 640.154H270.087C268.883 640.154 267.92 641.117 267.92 642.321C267.92 643.525 268.883 644.488 270.087 644.488H273.94C275.144 644.488 276.108 643.525 276.108 642.321C275.867 641.117 275.144 640.154 273.94 640.154Z" fill="white"/>
<path d="M273.941 640.154H271.773V644.248H273.941C275.145 644.248 276.108 643.284 276.108 642.08C275.867 641.117 275.145 640.154 273.941 640.154Z" fill="#F5662C"/>
<path d="M275.386 635.096H271.533C270.328 635.096 269.365 636.06 269.365 637.264C269.365 638.468 270.328 639.431 271.533 639.431H275.386C276.59 639.431 277.553 638.468 277.553 637.264C277.553 636.06 276.59 635.096 275.386 635.096Z" fill="white"/>
<path d="M275.386 635.096H273.218V639.19H275.386C276.59 639.19 277.553 638.227 277.553 637.023C277.553 636.06 276.59 635.096 275.386 635.096Z" fill="#F5662C"/>
<path d="M271.773 637.264L274.903 639.672C275.867 640.395 275.867 641.599 275.144 642.562C274.422 643.525 273.218 643.525 272.255 642.803L269.124 640.395C268.161 639.672 268.161 638.468 268.883 637.505C269.606 636.782 270.81 636.542 271.773 637.264Z" fill="white"/>
<path d="M271.773 637.264L273.459 638.709L270.81 642.081L269.124 640.636C268.161 639.913 268.161 638.709 268.883 637.746C269.606 636.783 270.81 636.542 271.773 637.264Z" fill="#F5662C"/>
<path d="M273.7 631.003L276.831 633.411C277.794 634.133 277.794 635.337 277.072 636.301C276.349 637.264 275.145 637.264 274.182 636.541L271.051 634.133C270.088 633.411 270.088 632.207 270.81 631.244C271.533 630.521 272.737 630.28 273.7 631.003Z" fill="white"/>
<path d="M273.7 631.002L275.386 632.447L272.737 635.819L271.051 634.374C270.088 633.651 270.088 632.447 270.81 631.484C271.533 630.521 272.737 630.28 273.7 631.002Z" fill="#F5662C"/>
<path d="M265.512 642.321L265.031 638.468C265.031 637.264 265.753 636.301 266.957 636.301C268.161 636.301 269.125 637.023 269.125 638.227L269.606 642.08C269.606 643.284 268.884 644.247 267.68 644.247C266.716 644.247 265.753 643.284 265.512 642.321Z" fill="white"/>
<path d="M265.513 642.321L265.272 640.154L269.366 639.672L269.607 641.839C269.607 643.043 268.884 644.007 267.68 644.007C266.717 644.247 265.754 643.284 265.513 642.321Z" fill="#F5662C"/>
<path d="M279.479 613.664H263.345C262.622 613.664 262.141 614.146 262.141 614.868V619.203C262.141 619.925 262.622 620.407 263.345 620.407H279.479C280.202 620.407 280.683 619.925 280.683 619.203V614.868C280.683 614.146 280.202 613.664 279.479 613.664Z" fill="#5B1C0D"/>
<path d="M264.309 614.627C264.068 614.627 263.827 614.868 263.827 615.109V618.962C263.827 619.203 264.068 619.444 264.309 619.444C264.55 619.444 264.79 619.203 264.79 618.962V615.109C264.79 614.868 264.55 614.627 264.309 614.627Z" fill="#36140C"/>
<path d="M266.235 614.627C265.994 614.627 265.753 614.868 265.753 615.109V618.962C265.753 619.203 265.994 619.444 266.235 619.444C266.475 619.444 266.716 619.203 266.716 618.962V615.109C266.716 614.868 266.475 614.627 266.235 614.627Z" fill="#36140C"/>
<path d="M267.921 614.627C267.68 614.627 267.439 614.868 267.439 615.109V618.962C267.439 619.203 267.68 619.444 267.921 619.444C268.161 619.444 268.402 619.203 268.402 618.962V615.109C268.402 614.868 268.161 614.627 267.921 614.627Z" fill="#36140C"/>
<path d="M269.607 614.627C269.366 614.627 269.125 614.868 269.125 615.109V618.962C269.125 619.203 269.366 619.444 269.607 619.444C269.848 619.444 270.089 619.203 270.089 618.962V615.109C270.089 614.868 269.848 614.627 269.607 614.627Z" fill="#36140C"/>
<path d="M271.533 614.627C271.292 614.627 271.051 614.868 271.051 615.109V618.962C271.051 619.203 271.292 619.444 271.533 619.444C271.774 619.444 272.015 619.203 272.015 618.962V615.109C272.015 614.868 271.774 614.627 271.533 614.627Z" fill="#36140C"/>
<path d="M273.219 614.627C272.978 614.627 272.737 614.868 272.737 615.109V618.962C272.737 619.203 272.978 619.444 273.219 619.444C273.46 619.444 273.701 619.203 273.701 618.962V615.109C273.701 614.868 273.46 614.627 273.219 614.627Z" fill="#36140C"/>
<path d="M275.145 614.627C274.904 614.627 274.664 614.868 274.664 615.109V618.962C274.664 619.203 274.904 619.444 275.145 619.444C275.386 619.444 275.627 619.203 275.627 618.962V615.109C275.627 614.868 275.386 614.627 275.145 614.627Z" fill="#36140C"/>
<path d="M276.831 614.627C276.59 614.627 276.35 614.868 276.35 615.109V618.962C276.35 619.203 276.59 619.444 276.831 619.444C277.072 619.444 277.313 619.203 277.313 618.962V615.109C277.313 614.868 277.072 614.627 276.831 614.627Z" fill="#36140C"/>
<path d="M278.516 614.627C278.275 614.627 278.035 614.868 278.035 615.109V618.962C278.035 619.203 278.275 619.444 278.516 619.444C278.757 619.444 278.998 619.203 278.998 618.962V615.109C278.998 614.868 278.757 614.627 278.516 614.627Z" fill="#36140C"/>
<path opacity="0.5" d="M266.716 621.852C265.993 621.852 265.512 622.333 265.512 623.056V638.468C265.512 639.19 265.993 639.672 266.716 639.672C267.438 639.672 267.92 639.19 267.92 638.468V623.056C267.679 622.333 267.197 621.852 266.716 621.852Z" fill="#FFBF66"/>
<path d="M186.765 581.877V612.701C186.765 613.183 187.247 613.664 187.728 613.664H201.936C202.418 613.664 202.9 613.183 202.9 612.701V581.877H186.765Z" fill="#F69E3D"/>
<path d="M197.602 608.366H193.749C192.545 608.366 191.582 609.33 191.582 610.534C191.582 611.738 192.545 612.701 193.749 612.701H197.602C198.806 612.701 199.769 611.738 199.769 610.534C199.528 609.33 198.806 608.366 197.602 608.366Z" fill="white"/>
<path d="M197.602 608.366H195.435V612.46H197.602C198.806 612.46 199.769 611.497 199.769 610.293C199.528 609.33 198.806 608.366 197.602 608.366Z" fill="#F5662C"/>
<path d="M199.047 603.309H195.194C193.99 603.309 193.027 604.272 193.027 605.476C193.027 606.68 193.99 607.644 195.194 607.644H199.047C200.251 607.644 201.215 606.68 201.215 605.476C201.215 604.272 200.251 603.309 199.047 603.309Z" fill="white"/>
<path d="M199.047 603.309H196.88V607.403H199.047C200.251 607.403 201.215 606.44 201.215 605.235C201.215 604.272 200.251 603.309 199.047 603.309Z" fill="#F5662C"/>
<path d="M195.435 605.477L198.565 607.885C199.528 608.607 199.528 609.811 198.806 610.775C198.083 611.738 196.879 611.738 195.916 611.015L192.786 608.607C191.822 607.885 191.822 606.681 192.545 605.718C193.267 604.995 194.471 604.754 195.435 605.477Z" fill="white"/>
<path d="M195.435 605.476L197.12 606.921L194.471 610.293L192.786 608.848C191.822 608.125 191.822 606.921 192.545 605.958C193.267 604.995 194.471 604.754 195.435 605.476Z" fill="#F5662C"/>
<path d="M197.361 599.215L200.492 601.624C201.455 602.346 201.455 603.55 200.733 604.513C200.01 605.477 198.806 605.477 197.843 604.754L194.712 602.346C193.749 601.624 193.749 600.419 194.472 599.456C195.194 598.734 196.398 598.493 197.361 599.215Z" fill="white"/>
<path d="M197.361 599.215L199.047 600.66L196.398 604.031L194.712 602.586C193.749 601.864 193.749 600.66 194.472 599.697C195.194 598.733 196.398 598.493 197.361 599.215Z" fill="#F5662C"/>
<path d="M189.174 610.534L188.692 606.68C188.692 605.476 189.415 604.513 190.619 604.513C191.823 604.513 192.786 605.236 192.786 606.44L193.268 610.293C193.268 611.497 192.545 612.46 191.341 612.46C190.378 612.46 189.415 611.497 189.174 610.534Z" fill="white"/>
<path d="M189.174 610.533L188.934 608.366L193.027 607.884L193.268 610.052C193.268 611.256 192.546 612.219 191.342 612.219C190.378 612.46 189.415 611.497 189.174 610.533Z" fill="#F5662C"/>
<path d="M203.141 581.877H187.006C186.284 581.877 185.802 582.358 185.802 583.081V587.416C185.802 588.138 186.284 588.62 187.006 588.62H203.141C203.863 588.62 204.345 588.138 204.345 587.416V583.081C204.345 582.358 203.863 581.877 203.141 581.877Z" fill="#5B1C0D"/>
<path d="M187.97 582.84C187.729 582.84 187.488 583.081 187.488 583.322V587.175C187.488 587.415 187.729 587.656 187.97 587.656C188.211 587.656 188.452 587.415 188.452 587.175V583.322C188.452 583.081 188.211 582.84 187.97 582.84Z" fill="#36140C"/>
<path d="M189.896 582.84C189.655 582.84 189.415 583.081 189.415 583.322V587.175C189.415 587.415 189.655 587.656 189.896 587.656C190.137 587.656 190.378 587.415 190.378 587.175V583.322C190.378 583.081 190.137 582.84 189.896 582.84Z" fill="#36140C"/>
<path d="M191.582 582.84C191.341 582.84 191.101 583.081 191.101 583.322V587.175C191.101 587.415 191.341 587.656 191.582 587.656C191.823 587.656 192.064 587.415 192.064 587.175V583.322C192.064 583.081 191.823 582.84 191.582 582.84Z" fill="#36140C"/>
<path d="M193.268 582.84C193.027 582.84 192.787 583.081 192.787 583.322V587.175C192.787 587.415 193.027 587.656 193.268 587.656C193.509 587.656 193.75 587.415 193.75 587.175V583.322C193.75 583.081 193.509 582.84 193.268 582.84Z" fill="#36140C"/>
<path d="M195.195 582.84C194.954 582.84 194.713 583.081 194.713 583.322V587.175C194.713 587.415 194.954 587.656 195.195 587.656C195.435 587.656 195.676 587.415 195.676 587.175V583.322C195.676 583.081 195.435 582.84 195.195 582.84Z" fill="#36140C"/>
<path d="M196.881 582.84C196.64 582.84 196.399 583.081 196.399 583.322V587.175C196.399 587.415 196.64 587.656 196.881 587.656C197.121 587.656 197.362 587.415 197.362 587.175V583.322C197.362 583.081 197.121 582.84 196.881 582.84Z" fill="#36140C"/>
<path d="M198.807 582.84C198.566 582.84 198.325 583.081 198.325 583.322V587.175C198.325 587.415 198.566 587.656 198.807 587.656C199.048 587.656 199.288 587.415 199.288 587.175V583.322C199.048 583.081 199.048 582.84 198.807 582.84Z" fill="#36140C"/>
<path d="M200.493 582.84C200.252 582.84 200.011 583.081 200.011 583.322V587.175C200.011 587.415 200.252 587.656 200.493 587.656C200.734 587.656 200.974 587.415 200.974 587.175V583.322C200.974 583.081 200.734 582.84 200.493 582.84Z" fill="#36140C"/>
<path d="M202.178 582.84C201.937 582.84 201.696 583.081 201.696 583.322V587.175C201.696 587.415 201.937 587.656 202.178 587.656C202.419 587.656 202.66 587.415 202.66 587.175V583.322C202.66 583.081 202.419 582.84 202.178 582.84Z" fill="#36140C"/>
<path opacity="0.5" d="M190.377 590.064C189.655 590.064 189.173 590.546 189.173 591.268V606.68C189.173 607.403 189.655 607.885 190.377 607.885C191.1 607.885 191.581 607.403 191.581 606.68V591.268C191.341 590.546 190.859 590.064 190.377 590.064Z" fill="#FFBF66"/>
<path d="M209.884 581.877V612.701C209.884 613.183 210.365 613.664 210.847 613.664H225.055C225.537 613.664 226.018 613.183 226.018 612.701V581.877H209.884Z" fill="#F69E3D"/>
<path d="M220.479 608.366H216.626C215.422 608.366 214.459 609.33 214.459 610.534C214.459 611.738 215.422 612.701 216.626 612.701H220.479C221.683 612.701 222.647 611.738 222.647 610.534C222.647 609.33 221.683 608.366 220.479 608.366Z" fill="white"/>
<path d="M220.479 608.366H218.312V612.46H220.479C221.683 612.46 222.647 611.497 222.647 610.293C222.647 609.33 221.683 608.366 220.479 608.366Z" fill="#F5662C"/>
<path d="M221.924 603.309H218.071C216.867 603.309 215.904 604.272 215.904 605.476C215.904 606.68 216.867 607.644 218.071 607.644H221.924C223.128 607.644 224.091 606.68 224.091 605.476C224.091 604.272 223.128 603.309 221.924 603.309Z" fill="white"/>
<path d="M221.925 603.309H219.757V607.403H221.925C223.129 607.403 224.092 606.44 224.092 605.235C224.092 604.272 223.129 603.309 221.925 603.309Z" fill="#F5662C"/>
<path d="M218.311 605.477L221.442 607.885C222.405 608.607 222.405 609.811 221.683 610.775C220.96 611.738 219.756 611.738 218.793 611.015L215.663 608.607C214.699 607.885 214.699 606.681 215.422 605.718C216.144 604.995 217.348 604.754 218.311 605.477Z" fill="white"/>
<path d="M218.311 605.476L219.997 606.921L217.348 610.293L215.663 608.848C214.699 608.125 214.699 606.921 215.422 605.958C216.144 604.995 217.348 604.754 218.311 605.476Z" fill="#F5662C"/>
<path d="M220.239 599.215L223.369 601.624C224.333 602.346 224.333 603.55 223.61 604.513C222.888 605.477 221.684 605.477 220.72 604.754L217.59 602.346C216.627 601.624 216.627 600.419 217.349 599.456C218.071 598.734 219.275 598.493 220.239 599.215Z" fill="white"/>
<path d="M220.239 599.215L221.924 600.66L219.275 604.031L217.59 602.586C216.627 601.864 216.627 600.66 217.349 599.697C218.071 598.733 219.275 598.493 220.239 599.215Z" fill="#F5662C"/>
<path d="M212.051 610.534L211.57 606.68C211.57 605.476 212.292 604.513 213.496 604.513C214.7 604.513 215.664 605.236 215.664 606.44L216.145 610.293C216.145 611.497 215.423 612.46 214.219 612.46C213.256 612.46 212.292 611.497 212.051 610.534Z" fill="white"/>
<path d="M212.052 610.533L211.811 608.366L215.905 607.884L216.146 610.052C216.146 611.256 215.423 612.219 214.219 612.219C213.256 612.46 212.293 611.497 212.052 610.533Z" fill="#F5662C"/>
<path d="M226.018 581.877H209.884C209.161 581.877 208.68 582.358 208.68 583.081V587.416C208.68 588.138 209.161 588.62 209.884 588.62H226.018C226.741 588.62 227.222 588.138 227.222 587.416V583.081C227.222 582.358 226.741 581.877 226.018 581.877Z" fill="#5B1C0D"/>
<path d="M210.847 582.84C210.607 582.84 210.366 583.081 210.366 583.322V587.175C210.366 587.415 210.607 587.656 210.847 587.656C211.088 587.656 211.329 587.415 211.329 587.175V583.322C211.329 583.081 211.329 582.84 210.847 582.84Z" fill="#36140C"/>
<path d="M212.774 582.84C212.533 582.84 212.292 583.081 212.292 583.322V587.175C212.292 587.415 212.533 587.656 212.774 587.656C213.014 587.656 213.255 587.415 213.255 587.175V583.322C213.255 583.081 213.014 582.84 212.774 582.84Z" fill="#36140C"/>
<path d="M214.46 582.84C214.219 582.84 213.978 583.081 213.978 583.322V587.175C213.978 587.415 214.219 587.656 214.46 587.656C214.7 587.656 214.941 587.415 214.941 587.175V583.322C214.941 583.081 214.7 582.84 214.46 582.84Z" fill="#36140C"/>
<path d="M216.385 582.84C216.145 582.84 215.904 583.081 215.904 583.322V587.175C215.904 587.415 216.145 587.656 216.385 587.656C216.626 587.656 216.867 587.415 216.867 587.175V583.322C216.867 583.081 216.626 582.84 216.385 582.84Z" fill="#36140C"/>
<path d="M218.072 582.84C217.831 582.84 217.59 583.081 217.59 583.322V587.175C217.59 587.415 217.831 587.656 218.072 587.656C218.313 587.656 218.554 587.415 218.554 587.175V583.322C218.554 583.081 218.313 582.84 218.072 582.84Z" fill="#36140C"/>
<path d="M219.758 582.84C219.517 582.84 219.276 583.081 219.276 583.322V587.175C219.276 587.415 219.517 587.656 219.758 587.656C219.999 587.656 220.24 587.415 220.24 587.175V583.322C220.24 583.081 219.999 582.84 219.758 582.84Z" fill="#36140C"/>
<path d="M221.684 582.84C221.443 582.84 221.202 583.081 221.202 583.322V587.175C221.202 587.415 221.443 587.656 221.684 587.656C221.925 587.656 222.165 587.415 222.165 587.175V583.322C222.165 583.081 221.925 582.84 221.684 582.84Z" fill="#36140C"/>
<path d="M223.37 582.84C223.129 582.84 222.889 583.081 222.889 583.322V587.175C222.889 587.415 223.129 587.656 223.37 587.656C223.611 587.656 223.852 587.415 223.852 587.175V583.322C223.852 583.081 223.611 582.84 223.37 582.84Z" fill="#36140C"/>
<path d="M225.296 582.84C225.055 582.84 224.814 583.081 224.814 583.322V587.175C224.814 587.415 225.055 587.656 225.296 587.656C225.537 587.656 225.778 587.415 225.778 587.175V583.322C225.778 583.081 225.537 582.84 225.296 582.84Z" fill="#36140C"/>
<path opacity="0.5" d="M213.255 590.064C212.532 590.064 212.051 590.546 212.051 591.268V606.68C212.051 607.403 212.532 607.885 213.255 607.885C213.977 607.885 214.459 607.403 214.459 606.68V591.268C214.459 590.546 213.736 590.064 213.255 590.064Z" fill="#FFBF66"/>
<path d="M232.761 581.877V612.701C232.761 613.183 233.242 613.664 233.724 613.664H247.932C248.414 613.664 248.895 613.183 248.895 612.701V581.877H232.761Z" fill="#F69E3D"/>
<path d="M243.357 608.366H239.504C238.3 608.366 237.336 609.33 237.336 610.534C237.336 611.738 238.3 612.701 239.504 612.701H243.357C244.561 612.701 245.524 611.738 245.524 610.534C245.524 609.33 244.561 608.366 243.357 608.366Z" fill="white"/>
<path d="M243.357 608.366H241.189V612.46H243.357C244.561 612.46 245.524 611.497 245.524 610.293C245.524 609.33 244.561 608.366 243.357 608.366Z" fill="#F5662C"/>
<path d="M244.802 603.309H240.949C239.744 603.309 238.781 604.272 238.781 605.476C238.781 606.68 239.744 607.644 240.949 607.644H244.802C246.006 607.644 246.969 606.68 246.969 605.476C246.969 604.272 246.006 603.309 244.802 603.309Z" fill="white"/>
<path d="M244.802 603.309H242.635V607.403H244.802C246.006 607.403 246.969 606.44 246.969 605.235C246.969 604.272 246.006 603.309 244.802 603.309Z" fill="#F5662C"/>
<path d="M241.189 605.477L244.319 607.885C245.283 608.607 245.283 609.811 244.56 610.775C243.838 611.738 242.634 611.738 241.671 611.015L238.54 608.607C237.577 607.885 237.577 606.681 238.299 605.718C239.022 604.995 240.466 604.754 241.189 605.477Z" fill="white"/>
<path d="M241.189 605.476L242.875 606.921L240.226 610.293L238.54 608.848C237.577 608.125 237.577 606.921 238.299 605.958C239.022 604.995 240.466 604.754 241.189 605.476Z" fill="#F5662C"/>
<path d="M243.116 599.215L246.247 601.624C247.21 602.346 247.21 603.55 246.488 604.513C245.765 605.477 244.561 605.477 243.598 604.754L240.467 602.346C239.504 601.624 239.504 600.419 240.226 599.456C240.949 598.734 242.394 598.493 243.116 599.215Z" fill="white"/>
<path d="M243.116 599.215L244.802 600.66L242.153 604.031L240.467 602.586C239.504 601.864 239.504 600.66 240.226 599.697C240.949 598.733 242.394 598.493 243.116 599.215Z" fill="#F5662C"/>
<path d="M235.169 610.534L234.687 606.68C234.687 605.476 235.409 604.513 236.614 604.513C237.818 604.513 238.781 605.236 238.781 606.44L239.262 610.293C239.262 611.497 238.54 612.46 237.336 612.46C236.132 612.46 235.169 611.497 235.169 610.534Z" fill="white"/>
<path d="M235.169 610.533L234.928 608.366L239.022 607.884L239.263 610.052C239.263 611.256 238.54 612.219 237.336 612.219C236.132 612.46 235.169 611.497 235.169 610.533Z" fill="#F5662C"/>
<path d="M248.896 581.877H232.761C232.039 581.877 231.557 582.358 231.557 583.081V587.416C231.557 588.138 232.039 588.62 232.761 588.62H248.896C249.618 588.62 250.1 588.138 250.1 587.416V583.081C250.341 582.358 249.618 581.877 248.896 581.877Z" fill="#5B1C0D"/>
<path d="M233.965 582.84C233.724 582.84 233.483 583.081 233.483 583.322V587.175C233.483 587.415 233.724 587.656 233.965 587.656C234.205 587.656 234.446 587.415 234.446 587.175V583.322C234.446 583.081 234.205 582.84 233.965 582.84Z" fill="#36140C"/>
<path d="M235.651 582.84C235.41 582.84 235.169 583.081 235.169 583.322V587.175C235.169 587.415 235.41 587.656 235.651 587.656C235.891 587.656 236.132 587.415 236.132 587.175V583.322C236.132 583.081 235.891 582.84 235.651 582.84Z" fill="#36140C"/>
<path d="M237.577 582.84C237.336 582.84 237.095 583.081 237.095 583.322V587.175C237.095 587.415 237.336 587.656 237.577 587.656C237.818 587.656 238.058 587.415 238.058 587.175V583.322C237.818 583.081 237.818 582.84 237.577 582.84Z" fill="#36140C"/>
<path d="M239.263 582.84C239.022 582.84 238.781 583.081 238.781 583.322V587.175C238.781 587.415 239.022 587.656 239.263 587.656C239.504 587.656 239.744 587.415 239.744 587.175V583.322C239.744 583.081 239.504 582.84 239.263 582.84Z" fill="#36140C"/>
<path d="M240.948 582.84C240.707 582.84 240.466 583.081 240.466 583.322V587.175C240.466 587.415 240.707 587.656 240.948 587.656C241.189 587.656 241.43 587.415 241.43 587.175V583.322C241.43 583.081 241.189 582.84 240.948 582.84Z" fill="#36140C"/>
<path d="M242.875 582.84C242.634 582.84 242.394 583.081 242.394 583.322V587.175C242.394 587.415 242.634 587.656 242.875 587.656C243.116 587.656 243.357 587.415 243.357 587.175V583.322C243.357 583.081 243.116 582.84 242.875 582.84Z" fill="#36140C"/>
<path d="M244.56 582.84C244.319 582.84 244.079 583.081 244.079 583.322V587.175C244.079 587.415 244.319 587.656 244.56 587.656C244.801 587.656 245.042 587.415 245.042 587.175V583.322C245.042 583.081 244.801 582.84 244.56 582.84Z" fill="#36140C"/>
<path d="M246.246 582.84C246.005 582.84 245.765 583.081 245.765 583.322V587.175C245.765 587.415 246.005 587.656 246.246 587.656C246.487 587.656 246.728 587.415 246.728 587.175V583.322C246.728 583.081 246.728 582.84 246.246 582.84Z" fill="#36140C"/>
<path d="M248.173 582.84C247.932 582.84 247.691 583.081 247.691 583.322V587.175C247.691 587.415 247.932 587.656 248.173 587.656C248.413 587.656 248.654 587.415 248.654 587.175V583.322C248.654 583.081 248.413 582.84 248.173 582.84Z" fill="#36140C"/>
<path opacity="0.5" d="M236.132 590.064C235.41 590.064 234.928 590.546 234.928 591.268V606.68C234.928 607.403 235.41 607.885 236.132 607.885C236.855 607.885 237.336 607.403 237.336 606.68V591.268C237.336 590.546 236.855 590.064 236.132 590.064Z" fill="#FFBF66"/>
<path d="M255.638 581.877V612.701C255.638 613.183 256.12 613.664 256.601 613.664H270.809C271.291 613.664 271.773 613.183 271.773 612.701V581.877H255.638Z" fill="#F69E3D"/>
<path d="M266.475 608.366H262.622C261.418 608.366 260.455 609.33 260.455 610.534C260.455 611.738 261.418 612.701 262.622 612.701H266.475C267.679 612.701 268.642 611.738 268.642 610.534C268.401 609.33 267.438 608.366 266.475 608.366Z" fill="white"/>
<path d="M266.475 608.366H264.308V612.46H266.475C267.679 612.46 268.642 611.497 268.642 610.293C268.401 609.33 267.438 608.366 266.475 608.366Z" fill="#F5662C"/>
<path d="M267.92 603.309H264.067C262.863 603.309 261.9 604.272 261.9 605.476C261.9 606.68 262.863 607.644 264.067 607.644H267.92C269.124 607.644 270.088 606.68 270.088 605.476C269.847 604.272 268.884 603.309 267.92 603.309Z" fill="white"/>
<path d="M267.92 603.309H265.753V607.403H267.92C269.124 607.403 270.088 606.44 270.088 605.235C269.847 604.272 268.884 603.309 267.92 603.309Z" fill="#F5662C"/>
<path d="M264.308 605.477L267.438 607.885C268.401 608.607 268.401 609.811 267.679 610.775C266.957 611.738 265.752 611.738 264.789 611.015L261.659 608.607C260.695 607.885 260.695 606.681 261.418 605.718C261.899 604.995 263.344 604.754 264.308 605.477Z" fill="white"/>
<path d="M264.308 605.476L265.993 606.921L263.344 610.293L261.659 608.848C260.695 608.125 260.695 606.921 261.418 605.958C261.899 604.995 263.344 604.754 264.308 605.476Z" fill="#F5662C"/>
<path d="M266.234 599.215L269.365 601.624C270.328 602.346 270.328 603.55 269.606 604.513C268.883 605.477 267.679 605.477 266.716 604.754L263.585 602.346C262.622 601.624 262.622 600.419 263.345 599.456C263.826 598.734 265.271 598.493 266.234 599.215Z" fill="white"/>
<path d="M266.234 599.215L267.92 600.66L265.271 604.031L263.585 602.586C262.622 601.864 262.622 600.66 263.345 599.697C263.826 598.733 265.271 598.493 266.234 599.215Z" fill="#F5662C"/>
<path d="M258.047 610.534L257.565 606.68C257.565 605.476 258.288 604.513 259.492 604.513C260.696 604.513 261.659 605.236 261.659 606.44L262.141 610.293C262.141 611.497 261.418 612.46 260.214 612.46C259.251 612.46 258.047 611.497 258.047 610.534Z" fill="white"/>
<path d="M258.047 610.533L257.807 608.366L261.9 607.884L262.141 610.052C262.141 611.256 261.419 612.219 260.215 612.219C259.252 612.46 258.047 611.497 258.047 610.533Z" fill="#F5662C"/>
<path d="M272.014 581.877H255.879C255.157 581.877 254.675 582.358 254.675 583.081V587.416C254.675 588.138 255.157 588.62 255.879 588.62H272.014C272.736 588.62 273.218 588.138 273.218 587.416V583.081C273.218 582.358 272.736 581.877 272.014 581.877Z" fill="#5B1C0D"/>
<path d="M256.843 582.84C256.602 582.84 256.361 583.081 256.361 583.322V587.175C256.361 587.415 256.602 587.656 256.843 587.656C257.084 587.656 257.325 587.415 257.325 587.175V583.322C257.325 583.081 257.084 582.84 256.843 582.84Z" fill="#36140C"/>
<path d="M258.529 582.84C258.289 582.84 258.048 583.081 258.048 583.322V587.175C258.048 587.415 258.289 587.656 258.529 587.656C258.77 587.656 259.011 587.415 259.011 587.175V583.322C259.011 583.081 258.77 582.84 258.529 582.84Z" fill="#36140C"/>
<path d="M260.455 582.84C260.214 582.84 259.974 583.081 259.974 583.322V587.175C259.974 587.415 260.214 587.656 260.455 587.656C260.696 587.656 260.937 587.415 260.937 587.175V583.322C260.937 583.081 260.696 582.84 260.455 582.84Z" fill="#36140C"/>
<path d="M262.141 582.84C261.9 582.84 261.66 583.081 261.66 583.322V587.175C261.66 587.415 261.9 587.656 262.141 587.656C262.382 587.656 262.623 587.415 262.623 587.175V583.322C262.623 583.081 262.382 582.84 262.141 582.84Z" fill="#36140C"/>
<path d="M264.068 582.84C263.827 582.84 263.586 583.081 263.586 583.322V587.175C263.586 587.415 263.827 587.656 264.068 587.656C264.308 587.656 264.549 587.415 264.549 587.175V583.322C264.549 583.081 264.308 582.84 264.068 582.84Z" fill="#36140C"/>
<path d="M265.754 582.84C265.513 582.84 265.272 583.081 265.272 583.322V587.175C265.272 587.415 265.513 587.656 265.754 587.656C265.994 587.656 266.235 587.415 266.235 587.175V583.322C266.235 583.081 265.994 582.84 265.754 582.84Z" fill="#36140C"/>
<path d="M267.439 582.84C267.198 582.84 266.957 583.081 266.957 583.322V587.175C266.957 587.415 267.198 587.656 267.439 587.656C267.679 587.656 267.92 587.415 267.92 587.175V583.322C267.92 583.081 267.679 582.84 267.439 582.84Z" fill="#36140C"/>
<path d="M269.366 582.84C269.125 582.84 268.884 583.081 268.884 583.322V587.175C268.884 587.415 269.125 587.656 269.366 587.656C269.607 587.656 269.848 587.415 269.848 587.175V583.322C269.848 583.081 269.607 582.84 269.366 582.84Z" fill="#36140C"/>
<path d="M271.051 582.84C270.81 582.84 270.569 583.081 270.569 583.322V587.175C270.569 587.415 270.81 587.656 271.051 587.656C271.292 587.656 271.533 587.415 271.533 587.175V583.322C271.533 583.081 271.292 582.84 271.051 582.84Z" fill="#36140C"/>
<path opacity="0.5" d="M259.009 590.064C258.287 590.064 257.805 590.546 257.805 591.268V606.68C257.805 607.403 258.287 607.885 259.009 607.885C259.732 607.885 260.213 607.403 260.213 606.68V591.268C260.213 590.546 259.732 590.064 259.009 590.064Z" fill="#FFBF66"/>
<path d="M331.495 645.452H293.688V582.359L331.495 569.595V645.452Z" fill="#FFFEFF"/>
<path d="M324.271 583.563C326.92 583.563 329.328 583.803 331.737 584.526V569.595H293.929V604.995C299.227 592.232 310.786 583.563 324.271 583.563Z" fill="#FFCD52"/>
<path d="M324.031 625.223C324.031 631.484 318.973 636.541 312.712 636.541C306.451 636.541 301.394 631.484 301.394 625.223C301.394 618.962 306.451 613.905 312.712 613.905C318.973 613.905 324.031 618.962 324.031 625.223Z" fill="#A4E2EF"/>
<path d="M377.009 645.452H338.96V582.358L377.009 569.595V645.452Z" fill="#FFFEFF"/>
<path d="M369.544 583.562C372.193 583.562 374.601 583.803 377.009 584.526V569.595H339.201V604.995C344.499 592.232 356.058 583.562 369.544 583.562Z" fill="#FFCD52"/>
<path d="M369.303 625.223C369.303 631.484 364.246 636.541 357.985 636.541C351.724 636.541 346.667 631.484 346.667 625.223C346.667 618.962 351.724 613.905 357.985 613.905C364.246 613.905 369.303 618.962 369.303 625.223Z" fill="#A4E2EF"/>
<path d="M422.283 645.452H384.475V582.358L422.283 569.595V645.452Z" fill="#FFFEFF"/>
<path d="M414.818 583.563C417.467 583.563 419.875 583.803 422.283 584.526V569.595H384.475V604.995C390.014 592.232 401.573 583.563 414.818 583.563Z" fill="#FFCD52"/>
<path d="M414.577 625.223C414.577 631.484 409.52 636.541 403.259 636.541C396.998 636.541 391.94 631.484 391.94 625.223C391.94 618.962 396.998 613.905 403.259 613.905C409.52 613.905 414.577 618.962 414.577 625.223Z" fill="#A4E2EF"/>
<path d="M467.555 645.452H429.748V582.358L467.555 569.595V645.452Z" fill="#FFFEFF"/>
<path d="M460.331 583.562C462.98 583.562 465.388 583.803 467.797 584.526V569.595H429.989V604.995C435.287 592.232 446.846 583.562 460.331 583.562Z" fill="#FFCD52"/>
<path d="M459.849 625.223C459.849 631.484 454.792 636.541 448.531 636.541C442.27 636.541 437.213 631.484 437.213 625.223C437.213 618.962 442.27 613.905 448.531 613.905C454.792 613.905 459.849 618.962 459.849 625.223Z" fill="#A4E2EF"/>
<path d="M706.924 590.065V583.563H689.104V590.065C683.806 594.64 680.916 600.901 680.916 607.403V642.321C680.916 644.007 682.361 645.211 684.287 645.211H711.981C713.908 645.211 715.352 644.007 715.352 642.321V607.403C715.112 600.901 712.222 594.881 706.924 590.065Z" fill="#2591B8"/>
<path d="M709.573 640.154C710.536 640.154 711.259 639.432 711.259 638.469V609.571C711.259 606.681 710.536 603.551 709.091 600.902C708.128 599.457 706.683 598.253 704.757 598.253H691.03C689.345 598.253 687.9 598.975 686.936 600.42C685.251 603.069 684.528 606.2 684.528 609.33V638.228C684.528 639.191 685.251 639.914 686.214 639.914H709.573V640.154Z" fill="#1D718F"/>
<path d="M711.74 605.477C710.536 607.162 707.406 607.162 704.516 605.236C701.626 603.309 700.181 600.42 701.385 598.493C702.589 596.807 705.72 596.807 708.61 598.734C711.499 600.901 712.944 603.791 711.74 605.477Z" fill="#53B7DB"/>
<path d="M688.381 597.53C687.418 597.53 686.695 598.253 686.695 599.216V641.599C686.695 642.562 687.418 643.285 688.381 643.285C689.344 643.285 690.067 642.562 690.067 641.599V599.216C690.067 598.253 689.344 597.53 688.381 597.53Z" fill="#53B7DB"/>
<path d="M709.814 581.877H685.732V585.248H709.814V581.877Z" fill="#2591B8"/>
<path d="M709.814 577.06H685.732V581.877H709.814V577.06Z" fill="#CDEFFB"/>
<path d="M708.369 577.061H687.418L690.79 561.649H704.998L708.369 577.061Z" fill="#5BE3EF"/>
<path d="M748.825 590.065V583.563H731.005V590.065C725.707 594.64 722.817 600.901 722.817 607.403V642.321C722.817 644.007 724.262 645.211 726.189 645.211H753.882C755.809 645.211 757.254 644.007 757.254 642.321V607.403C757.013 600.901 753.882 594.881 748.825 590.065Z" fill="#2591B8"/>
<path d="M751.474 640.154C752.438 640.154 753.16 639.432 753.16 638.469V609.571C753.16 606.681 752.438 603.551 750.993 600.902C750.029 599.457 748.585 598.253 746.658 598.253H732.932C731.246 598.253 729.801 598.975 728.838 600.42C727.152 603.069 726.43 606.2 726.43 609.33V638.228C726.43 639.191 727.152 639.914 728.115 639.914H751.474V640.154Z" fill="#1D718F"/>
<path d="M753.642 605.477C752.438 607.162 749.307 607.162 746.417 605.236C743.528 603.309 742.083 600.42 743.287 598.493C744.491 596.807 747.621 596.807 750.511 598.734C753.401 600.901 754.605 603.791 753.642 605.477Z" fill="#53B7DB"/>
<path d="M730.282 597.53C729.319 597.53 728.597 598.253 728.597 599.216V641.599C728.597 642.562 729.319 643.285 730.282 643.285C731.246 643.285 731.968 642.562 731.968 641.599V599.216C731.968 598.253 731.246 597.53 730.282 597.53Z" fill="#53B7DB"/>
<path d="M751.715 581.877H727.634V585.248H751.715V581.877Z" fill="#2591B8"/>
<path d="M751.715 577.06H727.634V581.877H751.715V577.06Z" fill="#CDEFFB"/>
<path d="M750.271 577.061H729.32L732.691 561.649H746.658L750.271 577.061Z" fill="#5BE3EF"/>
<path d="M790.487 590.065V583.563H772.667V590.065C767.369 594.64 764.479 600.901 764.479 607.403V642.321C764.479 644.007 765.924 645.211 767.85 645.211H795.544C797.471 645.211 798.915 644.007 798.915 642.321V607.403C798.915 600.901 795.785 594.881 790.487 590.065Z" fill="#2591B8"/>
<path d="M793.377 640.154C794.34 640.154 795.063 639.432 795.063 638.469V609.571C795.063 606.681 794.34 603.551 792.896 600.902C791.932 599.457 790.487 598.253 788.561 598.253H774.834C773.149 598.253 771.704 598.975 770.741 600.42C769.055 603.069 768.333 606.2 768.333 609.33V638.228C768.333 639.191 769.055 639.914 770.018 639.914H793.377V640.154Z" fill="#1D718F"/>
<path d="M795.544 605.477C794.34 607.162 791.21 607.162 788.32 605.236C785.43 603.309 783.985 600.42 785.19 598.493C786.394 596.807 789.524 596.807 792.414 598.734C795.304 600.901 796.508 603.791 795.544 605.477Z" fill="#53B7DB"/>
<path d="M772.185 597.53C771.222 597.53 770.5 598.253 770.5 599.216V641.599C770.5 642.562 771.222 643.285 772.185 643.285C773.148 643.285 773.871 642.562 773.871 641.599V599.216C773.871 598.253 773.148 597.53 772.185 597.53Z" fill="#53B7DB"/>
<path d="M793.618 581.877H769.537V585.248H793.618V581.877Z" fill="#2591B8"/>
<path d="M793.618 577.06H769.537V581.877H793.618V577.06Z" fill="#CDEFFB"/>
<path d="M792.172 577.061H771.221L774.593 561.649H788.56L792.172 577.061Z" fill="#5BE3EF"/>
<path d="M535.223 610.293H478.15V645.452H535.223V610.293Z" fill="#8FD6E3"/>
<path d="M535.223 626.427H478.15V635.338H535.223V626.427Z" fill="white"/>
<path d="M537.39 609.57H475.983V615.832H537.39V609.57Z" fill="#3BA5BB"/>
<path d="M601.929 610.293H544.856V645.452H601.929V610.293Z" fill="#8FD6E3"/>
<path d="M601.929 626.427H544.856V635.338H601.929V626.427Z" fill="white"/>
<path d="M603.856 609.57H542.448V615.831H603.856V609.57Z" fill="#3BA5BB"/>
<path d="M566.048 574.412H508.975V609.57H566.048V574.412Z" fill="#8FD6E3"/>
<path d="M566.048 590.546H508.975V599.456H566.048V590.546Z" fill="white"/>
<path d="M568.216 573.689H506.808V579.95H568.216V573.689Z" fill="#3BA5BB"/>
<path d="M629.623 618.722V640.154C629.623 641.599 629.142 643.044 628.419 644.248C627.938 644.97 627.215 645.452 626.252 645.452H615.897C614.934 645.452 614.211 644.97 613.729 644.248C613.007 643.044 612.525 641.599 612.525 640.154V618.722C612.525 616.795 613.248 614.869 614.693 613.424L615.897 612.22H626.733L627.937 613.424C628.901 615.109 629.623 616.795 629.623 618.722Z" fill="#E3EDF5"/>
<path d="M616.377 643.525C615.896 643.525 615.173 643.284 614.932 642.562C614.451 641.839 614.21 640.876 614.21 639.913V618.962C614.21 617.276 614.932 615.59 616.136 614.386C616.377 614.146 616.618 614.146 616.859 614.146H625.287C625.528 614.146 625.769 614.146 626.01 614.386C627.214 615.59 627.936 617.276 627.936 618.962V639.913C627.936 641.117 627.696 642.08 626.973 643.043C626.732 643.284 626.491 643.284 626.251 643.284H616.377V643.525Z" fill="#C9D2D9"/>
<path d="M627.214 616.554C626.732 617.277 625.769 617.517 624.806 617.036C623.843 616.554 623.361 615.591 623.602 614.868C624.084 614.146 625.047 613.905 626.01 614.387C626.973 614.868 627.455 615.832 627.214 616.554Z" fill="white"/>
<path d="M627.455 613.664H614.451L615.655 612.46H626.492L627.455 613.664Z" fill="#AFB7BD"/>
<path d="M624.325 603.55L623.603 603.309C623.362 603.309 623.362 603.068 623.362 602.828V597.289C623.362 596.085 622.398 594.881 621.194 594.881C619.75 594.64 618.545 595.844 618.545 597.289V603.068C618.545 603.309 618.305 603.55 618.305 603.55L617.823 603.791C617.582 603.791 617.582 604.032 617.582 604.032L616.137 607.403C616.137 607.644 615.896 608.126 615.896 608.366V612.46H626.733V608.366C626.733 608.126 626.733 607.644 626.492 607.403L625.047 604.032C624.566 603.791 624.566 603.791 624.325 603.55Z" fill="#E3EDF5"/>
<path d="M616.859 611.497C616.618 611.497 616.618 611.256 616.618 611.256V608.607L616.859 607.884L618.304 604.995C618.304 604.995 618.304 604.754 618.545 604.754C619.267 604.513 619.749 603.791 619.749 603.068V597.529C619.749 596.807 620.471 596.085 621.194 596.085C621.194 596.085 621.194 596.085 621.434 596.085C622.157 596.085 622.639 596.807 622.639 597.529V602.827C622.639 603.55 623.12 604.272 623.843 604.513C623.843 604.513 624.083 604.513 624.083 604.754L625.287 607.644C625.287 607.884 625.528 608.125 625.528 608.366V611.015C625.528 611.256 625.287 611.256 625.287 611.256H616.859V611.497Z" fill="#C9D2D9"/>
<path d="M622.879 597.771C622.639 598.252 622.157 598.252 621.434 598.012C620.953 597.771 620.712 597.289 620.953 596.808C621.194 596.326 621.675 596.326 622.398 596.567C622.879 596.808 623.12 597.289 622.879 597.771Z" fill="white"/>
<path d="M621.917 604.273C620.713 604.273 619.75 604.513 619.75 604.754C619.75 604.995 620.713 605.236 621.917 605.236C623.121 605.236 624.084 604.995 624.084 604.754C624.325 604.513 623.121 604.273 621.917 604.273Z" fill="white"/>
<path d="M629.382 621.13H612.284V637.746H629.382V621.13Z" fill="#55D9E6"/>
<path d="M629.382 621.13H612.284V623.297H629.382V621.13Z" fill="#3FA1BA"/>
<path d="M629.382 635.578H612.284V637.746H629.382V635.578Z" fill="#3FA1BA"/>
<path d="M620.953 624.501C620.953 624.501 614.933 634.133 620.953 634.133C626.973 634.133 620.953 624.501 620.953 624.501Z" fill="#3FA1BA"/>
<path d="M622.879 631.003C622.879 630.522 622.398 628.836 621.435 629.317C620.712 629.799 621.194 631.726 621.916 631.966C622.157 631.966 622.398 631.966 622.639 631.726C622.639 631.726 622.879 631.244 622.879 631.003Z" fill="#5AB9D1"/>
<path d="M650.573 618.722V640.154C650.573 641.599 650.091 643.044 649.369 644.248C648.887 644.97 648.165 645.452 647.201 645.452H636.847C635.883 645.452 635.161 644.97 634.679 644.248C633.957 643.044 633.475 641.599 633.475 640.154V618.722C633.475 616.795 634.198 614.869 635.642 613.424L636.847 612.22H647.683L648.887 613.424C649.85 615.109 650.573 616.795 650.573 618.722Z" fill="#E3EDF5"/>
<path d="M637.329 643.525C636.847 643.525 636.125 643.284 635.884 642.562C635.402 641.839 635.162 640.876 635.162 639.913V618.962C635.162 617.276 635.884 615.59 637.088 614.386C637.329 614.146 637.57 614.146 637.811 614.146H646.239C646.48 614.146 646.721 614.146 646.962 614.386C648.166 615.59 648.888 617.276 648.888 618.962V639.913C648.888 641.117 648.647 642.08 647.925 643.043C647.684 643.284 647.443 643.284 647.202 643.284H637.329V643.525Z" fill="#C9D2D9"/>
<path d="M648.165 616.554C647.684 617.277 646.72 617.517 645.757 617.036C644.794 616.554 644.312 615.591 644.553 614.868C645.035 614.146 645.998 613.905 646.961 614.387C648.165 614.868 648.647 615.832 648.165 616.554Z" fill="white"/>
<path d="M648.647 613.664H635.643L636.847 612.46H647.683L648.647 613.664Z" fill="#AFB7BD"/>
<path d="M645.516 603.55L644.793 603.309C644.553 603.309 644.553 603.068 644.553 602.828V597.289C644.553 596.085 643.589 594.881 642.385 594.881C640.94 594.64 639.736 595.844 639.736 597.289V603.068C639.736 603.309 639.496 603.55 639.496 603.55L639.014 603.791C638.773 603.791 638.773 604.032 638.773 604.032L637.328 607.403C637.328 607.644 637.087 608.126 637.087 608.366V612.46H647.924V608.366C647.924 608.126 647.924 607.644 647.683 607.403L646.238 604.032C645.757 603.791 645.516 603.791 645.516 603.55Z" fill="#E3EDF5"/>
<path d="M638.05 611.497C637.81 611.497 637.81 611.256 637.81 611.256V608.607L638.05 607.884L639.495 604.995C639.495 604.995 639.495 604.754 639.736 604.754C640.459 604.513 640.94 603.791 640.94 603.068V597.529C640.94 596.807 641.663 596.085 642.385 596.085C642.385 596.085 642.385 596.085 642.626 596.085C643.348 596.085 643.83 596.807 643.83 597.529V602.827C643.83 603.55 644.312 604.272 645.034 604.513C645.034 604.513 645.275 604.513 645.275 604.754L646.479 607.644C646.479 607.884 646.72 608.125 646.72 608.366V611.015C646.72 611.256 646.479 611.256 646.479 611.256H638.05V611.497Z" fill="#C9D2D9"/>
<path d="M644.071 597.771C643.83 598.252 643.348 598.252 642.626 598.012C642.144 597.771 641.903 597.289 642.144 596.808C642.385 596.326 642.867 596.326 643.589 596.567C644.071 596.808 644.312 597.289 644.071 597.771Z" fill="white"/>
<path d="M643.108 604.273C641.904 604.273 640.941 604.513 640.941 604.754C640.941 604.995 641.904 605.236 643.108 605.236C644.312 605.236 645.276 604.995 645.276 604.754C645.276 604.513 644.312 604.273 643.108 604.273Z" fill="white"/>
<path d="M650.573 621.13H633.475V637.746H650.573V621.13Z" fill="#55D9E6"/>
<path d="M650.573 621.13H633.475V623.297H650.573V621.13Z" fill="#3FA1BA"/>
<path d="M650.573 635.578H633.475V637.746H650.573V635.578Z" fill="#3FA1BA"/>
<path d="M642.144 624.501C642.144 624.501 636.124 634.133 642.144 634.133C648.165 634.133 642.144 624.501 642.144 624.501Z" fill="#3FA1BA"/>
<path d="M643.831 631.003C643.831 630.522 643.349 628.836 642.386 629.317C641.422 629.799 642.145 631.726 642.867 631.966C643.108 631.966 643.349 631.966 643.59 631.726C643.831 631.485 643.831 631.244 643.831 631.003Z" fill="#5AB9D1"/>
<path d="M671.765 618.722V640.154C671.765 641.599 671.284 643.044 670.561 644.248C670.08 644.97 669.357 645.452 668.394 645.452H658.039C657.076 645.452 656.353 644.97 655.872 644.248C655.149 643.044 654.667 641.599 654.667 640.154V618.722C654.667 616.795 655.39 614.869 656.835 613.424L658.039 612.22H668.875L670.08 613.424C671.043 615.109 671.765 616.795 671.765 618.722Z" fill="#E3EDF5"/>
<path d="M658.521 643.525C658.04 643.525 657.317 643.284 657.076 642.562C656.595 641.839 656.354 640.876 656.354 639.913V618.962C656.354 617.276 657.076 615.59 658.281 614.386C658.521 614.146 658.762 614.146 659.003 614.146H667.431C667.672 614.146 667.913 614.146 668.154 614.386C669.358 615.59 670.08 617.276 670.08 618.962V639.913C670.08 641.117 669.84 642.08 669.117 643.043C668.876 643.284 668.636 643.284 668.395 643.284H658.521V643.525Z" fill="#C9D2D9"/>
<path d="M669.358 616.554C668.876 617.277 667.913 617.517 666.95 617.036C665.986 616.554 665.505 615.591 665.745 614.868C666.227 614.146 667.19 613.905 668.154 614.387C669.358 614.868 669.839 615.832 669.358 616.554Z" fill="white"/>
<path d="M669.598 613.664H656.594L657.798 612.46H668.634L669.598 613.664Z" fill="#AFB7BD"/>
<path d="M666.467 603.55L665.745 603.309C665.504 603.309 665.504 603.068 665.504 602.828V597.289C665.504 596.085 664.541 594.881 663.337 594.881C661.892 594.64 660.688 595.844 660.688 597.289V603.068C660.688 603.309 660.447 603.55 660.447 603.55L659.965 603.791C659.724 603.791 659.724 604.032 659.724 604.032L658.279 607.403C658.279 607.644 658.039 608.126 658.039 608.366V612.46H668.875V608.366C668.875 608.126 668.875 607.644 668.634 607.403L667.19 604.032C666.708 603.791 666.708 603.791 666.467 603.55Z" fill="#E3EDF5"/>
<path d="M659.003 611.497C658.762 611.497 658.762 611.256 658.762 611.256V608.607L659.003 607.884L660.447 604.995C660.447 604.995 660.447 604.754 660.688 604.754C661.411 604.513 661.892 603.791 661.892 603.068V597.529C661.892 596.807 662.615 596.085 663.337 596.085C663.337 596.085 663.337 596.085 663.578 596.085C664.3 596.085 664.782 596.807 664.782 597.529V602.827C664.782 603.55 665.264 604.272 665.986 604.513C665.986 604.513 666.227 604.513 666.227 604.754L667.431 607.644C667.431 607.884 667.672 608.125 667.672 608.366V611.015C667.672 611.256 667.431 611.256 667.431 611.256H659.003V611.497Z" fill="#C9D2D9"/>
<path d="M665.023 597.771C664.782 598.252 664.301 598.252 663.578 598.012C663.096 597.771 662.856 597.289 663.096 596.808C663.337 596.326 663.819 596.326 664.541 596.567C665.023 596.808 665.264 597.289 665.023 597.771Z" fill="white"/>
<path d="M664.059 604.273C662.855 604.273 661.892 604.513 661.892 604.754C661.892 604.995 662.855 605.236 664.059 605.236C665.263 605.236 666.227 604.995 666.227 604.754C666.468 604.513 665.504 604.273 664.059 604.273Z" fill="white"/>
<path d="M671.765 621.13H654.667V637.746H671.765V621.13Z" fill="#55D9E6"/>
<path d="M671.765 621.13H654.667V623.297H671.765V621.13Z" fill="#3FA1BA"/>
<path d="M671.765 635.578H654.667V637.746H671.765V635.578Z" fill="#3FA1BA"/>
<path d="M663.096 624.501C663.096 624.501 657.075 634.133 663.096 634.133C669.116 634.133 663.096 624.501 663.096 624.501Z" fill="#3FA1BA"/>
<path d="M665.023 631.003C665.023 630.522 664.541 628.836 663.578 629.317C662.615 629.799 663.337 631.726 664.06 631.966C664.3 631.966 664.541 631.966 664.782 631.726C665.023 631.485 665.023 631.244 665.023 631.003Z" fill="#5AB9D1"/>
<path d="M248.415 721.791V767.545C248.415 768.508 249.137 769.231 250.101 769.231H273.701C274.664 769.231 275.386 768.508 275.386 767.545V721.791H248.415Z" fill="#24B4CE"/>
<path d="M252.267 724.68V763.451C252.267 764.174 252.749 764.655 253.471 764.655H270.328C271.051 764.655 271.532 764.174 271.532 763.451V724.68H252.267Z" fill="#1B94B5"/>
<path opacity="0.5" d="M254.194 729.978C253.23 729.978 252.267 730.941 252.267 731.905V757.431C252.267 758.394 253.23 759.357 254.194 759.357C255.157 759.357 256.12 758.394 256.12 757.431V731.905C255.879 730.701 255.157 729.978 254.194 729.978Z" fill="#FFBF66"/>
<path d="M277.312 721.791H246.729V726.848H277.312V721.791Z" fill="#262424"/>
<path d="M215.182 721.791V767.545C215.182 768.508 215.905 769.231 216.868 769.231H240.468C241.431 769.231 242.153 768.508 242.153 767.545V721.791H215.182Z" fill="#24B4CE"/>
<path d="M219.034 724.68V763.451C219.034 764.174 219.516 764.655 220.238 764.655H237.095C237.818 764.655 238.299 764.174 238.299 763.451V724.68H219.034Z" fill="#1B94B5"/>
<path opacity="0.5" d="M220.961 729.978C219.997 729.978 219.034 730.941 219.034 731.905V757.431C219.034 758.394 219.997 759.357 220.961 759.357C221.924 759.357 222.887 758.394 222.887 757.431V731.905C222.646 730.701 221.924 729.978 220.961 729.978Z" fill="#FFBF66"/>
<path d="M244.079 721.791H213.496V726.848H244.079V721.791Z" fill="#262424"/>
<path d="M181.949 721.791V767.545C181.949 768.508 182.672 769.231 183.635 769.231H207.235C208.198 769.231 208.92 768.508 208.92 767.545V721.791H181.949Z" fill="#24B4CE"/>
<path d="M185.802 724.68V763.451C185.802 764.174 186.284 764.655 187.006 764.655H203.863C204.586 764.655 205.067 764.174 205.067 763.451V724.68H185.802Z" fill="#1B94B5"/>
<path opacity="0.5" d="M187.488 729.978C186.524 729.978 185.561 730.941 185.561 731.905V757.431C185.561 758.394 186.524 759.357 187.488 759.357C188.451 759.357 189.414 758.394 189.414 757.431V731.905C189.414 730.701 188.692 729.978 187.488 729.978Z" fill="#FFBF66"/>
<path d="M210.606 721.791H180.023V726.848H210.606V721.791Z" fill="#262424"/>
<path d="M305.487 735.758H285.499V768.99H305.487V735.758Z" fill="#F69E3D"/>
<path d="M298.262 725.644H292.724V715.77C292.724 714.326 293.928 712.881 295.613 712.881C297.058 712.881 298.503 714.085 298.503 715.77V725.644H298.262Z" fill="#5B1C0D"/>
<path d="M305.487 732.146H285.499V738.889H305.487V732.146Z" fill="#5B1C0D"/>
<path d="M293.688 732.146V761.043C293.688 762.248 294.651 763.211 295.614 763.211C296.577 763.211 297.541 762.248 297.541 761.043V732.146H293.688Z" fill="#5B1C0D"/>
<path d="M300.911 725.644H290.316L284.777 730.942V734.795H306.45V730.942L300.911 725.644Z" fill="#E6E6E6"/>
<path d="M288.148 733.35V729.497L292.242 725.644H290.316L284.777 730.942V734.795H306.45V733.35H288.148Z" fill="#CFCFCF"/>
<path d="M288.39 737.203C287.908 737.203 287.667 737.444 287.667 737.926V765.138C287.667 765.619 287.908 765.86 288.39 765.86C288.872 765.86 289.112 765.619 289.112 765.138V737.926C289.112 737.444 288.872 737.203 288.39 737.203Z" fill="white"/>
<path d="M333.421 735.758H313.434V768.99H333.421V735.758Z" fill="#F69E3D"/>
<path d="M326.197 725.644H320.658V715.77C320.658 714.326 321.862 712.881 323.548 712.881C324.993 712.881 326.438 714.085 326.438 715.77V725.644H326.197Z" fill="#5B1C0D"/>
<path d="M333.421 732.146H313.434V738.889H333.421V732.146Z" fill="#5B1C0D"/>
<path d="M321.621 732.146V761.043C321.621 762.248 322.584 763.211 323.548 763.211C324.511 763.211 325.474 762.248 325.474 761.043V732.146H321.621Z" fill="#5B1C0D"/>
<path d="M328.846 725.644H318.009L312.471 730.942V734.795H334.385V730.942L328.846 725.644Z" fill="#E6E6E6"/>
<path d="M316.083 733.35V729.497L319.936 725.644H318.009L312.471 730.942V734.795H334.385V733.35H316.083Z" fill="#CFCFCF"/>
<path d="M316.083 737.203C315.602 737.203 315.361 737.444 315.361 737.926V765.138C315.361 765.619 315.602 765.86 316.083 765.86C316.565 765.86 316.806 765.619 316.806 765.138V737.926C316.806 737.444 316.565 737.203 316.083 737.203Z" fill="white"/>
<path d="M361.356 735.758H341.368V768.99H361.356V735.758Z" fill="#F69E3D"/>
<path d="M354.131 725.644H348.593V715.77C348.593 714.326 349.797 712.881 351.483 712.881C352.927 712.881 354.372 714.085 354.372 715.77V725.644H354.131Z" fill="#5B1C0D"/>
<path d="M361.356 732.146H341.368V738.889H361.356V732.146Z" fill="#5B1C0D"/>
<path d="M349.316 732.146V761.043C349.316 762.248 350.279 763.211 351.242 763.211C352.206 763.211 353.169 762.248 353.169 761.043V732.146H349.316Z" fill="#5B1C0D"/>
<path d="M356.781 725.644H345.944L340.405 730.942V734.795H362.079V730.942L356.781 725.644Z" fill="#E6E6E6"/>
<path d="M344.017 733.35V729.497L347.871 725.644H345.944L340.405 730.942V734.795H362.079V733.35H344.017Z" fill="#CFCFCF"/>
<path d="M344.018 737.203C343.536 737.203 343.295 737.444 343.295 737.926V765.138C343.295 765.619 343.536 765.86 344.018 765.86C344.499 765.86 344.74 765.619 344.74 765.138V737.926C344.74 737.444 344.499 737.203 344.018 737.203Z" fill="white"/>
<path d="M486.819 754.541V766.1C486.819 767.786 488.505 769.23 490.432 769.23H500.787C502.954 769.23 504.399 767.786 504.399 766.1V754.541H486.819Z" fill="#EEFFFF"/>
<path d="M504.64 762.006H486.819V763.451H504.64V762.006Z" fill="#B0BDBD"/>
<path d="M515.236 679.648L513.068 707.101L510.178 742.26L509.215 753.578C508.974 756.708 507.048 759.117 504.399 759.117H486.82C484.411 759.117 482.485 756.708 482.003 753.578L481.04 742.26L478.15 707.101L475.983 679.648C475.983 678.685 476.465 677.721 477.428 677.721H513.791C514.513 677.721 515.236 678.444 515.236 679.648Z" fill="#26AFC2"/>
<path opacity="0.47" d="M514.995 678.444C515.236 678.685 515.236 679.167 515.236 679.648L507.771 744.909C507.53 747.317 505.603 749.243 503.436 749.243H488.024C485.857 749.243 484.171 747.317 483.689 744.909L476.224 679.648C476.224 679.167 476.224 678.926 476.465 678.444C476.224 678.685 476.224 679.167 476.224 679.648L482.244 753.337C482.485 756.468 484.412 758.876 487.061 758.876H504.64C507.048 758.876 508.975 756.468 509.456 753.337L515.477 679.648C515.236 679.167 514.995 678.685 514.995 678.444Z" fill="#A8A8A8"/>
<path d="M507.53 718.901C505.363 733.831 502.955 745.872 501.751 745.872C500.787 745.631 501.51 733.349 503.677 718.419C505.844 703.488 508.253 691.448 509.457 691.448C510.42 691.689 509.697 703.97 507.53 718.901Z" fill="#4FC6D6"/>
<path d="M533.057 754.541V766.1C533.057 767.786 534.742 769.231 536.669 769.231H547.024C549.191 769.231 550.636 767.786 550.636 766.1V754.541H533.057Z" fill="#EEFFFF"/>
<path d="M550.877 762.006H533.057V763.451H550.877V762.006Z" fill="#B0BDBD"/>
<path d="M561.472 679.648L559.305 707.101L556.415 742.26L555.452 753.578C555.211 756.708 553.285 759.117 550.636 759.117H533.056C530.648 759.117 528.722 756.708 528.24 753.578L527.277 742.26L524.387 707.101L522.22 679.648C522.22 678.685 522.701 677.721 523.665 677.721H560.028C560.991 677.721 561.472 678.444 561.472 679.648Z" fill="#26AFC2"/>
<path opacity="0.47" d="M561.232 678.444C561.473 678.685 561.473 679.167 561.473 679.648L554.008 744.909C553.767 747.317 551.84 749.243 549.673 749.243H534.261C532.093 749.243 530.408 747.317 529.926 744.909L522.461 679.648C522.461 679.167 522.461 678.926 522.702 678.444C522.461 678.685 522.461 679.167 522.461 679.648L528.481 753.337C528.722 756.468 530.649 758.876 533.298 758.876H550.877C553.285 758.876 555.212 756.468 555.693 753.337L561.714 679.648C561.473 679.167 561.473 678.685 561.232 678.444Z" fill="#A8A8A8"/>
<path d="M553.767 718.901C551.6 733.831 549.192 745.872 547.987 745.872C547.024 745.631 547.747 733.349 549.914 718.419C552.081 703.488 554.489 691.448 555.694 691.448C556.657 691.689 555.934 703.97 553.767 718.901Z" fill="#4FC6D6"/>
<path d="M378.936 754.541V766.1C378.936 767.786 380.38 769.231 382.066 769.231H390.495C392.18 769.231 393.625 767.786 393.625 766.1V754.541H378.936Z" fill="#3EB0A8"/>
<path d="M393.625 762.006H378.936V763.451H393.625V762.006Z" fill="#23635F"/>
<path d="M402.053 709.509L400.127 726.607L397.719 748.521L396.996 755.504C396.755 757.431 395.07 758.876 393.143 758.876H378.935C377.009 758.876 375.323 757.431 375.082 755.504L374.36 748.521L371.951 726.607L370.025 709.509C370.025 708.786 370.507 708.305 371.229 708.305H400.849C401.572 708.305 402.053 708.786 402.053 709.509Z" fill="#EEFFFF"/>
<path d="M400.126 726.607L397.959 748.521H374.359L372.192 726.607H400.126Z" fill="#3EB0A8"/>
<path opacity="0.47" d="M401.812 708.786C401.812 709.027 402.053 709.268 402.053 709.509L396.033 750.206C395.792 751.651 394.347 752.855 392.661 752.855H380.139C378.453 752.855 377.008 751.651 376.767 750.206L370.747 709.509L375.563 755.504C375.804 757.431 377.49 758.876 379.416 758.876H393.624C395.551 758.876 397.237 757.431 397.477 755.504L402.294 709.509C402.053 709.268 402.053 709.027 401.812 708.786Z" fill="#A8A8A8"/>
<path d="M391.938 715.77H388.326V713.844V712.158H383.992V713.844V715.77H380.379V720.105H383.992V722.272V723.717H388.326V722.272V720.105H391.938V715.77Z" fill="#FFB544"/>
<path d="M393.866 731.664H378.213C377.731 731.664 377.25 732.145 377.25 732.627C377.25 733.108 377.731 733.59 378.213 733.59H393.866C394.347 733.59 394.829 733.108 394.829 732.627C395.07 732.145 394.588 731.664 393.866 731.664Z" fill="#56DBB3"/>
<path d="M393.866 735.998H378.213C377.731 735.998 377.25 736.48 377.25 736.962C377.25 737.443 377.731 737.925 378.213 737.925H393.866C394.347 737.925 394.829 737.443 394.829 736.962C395.07 736.48 394.588 735.998 393.866 735.998Z" fill="#56DBB3"/>
<path d="M414.336 754.541V766.1C414.336 767.786 415.781 769.231 417.467 769.231H425.895C427.581 769.231 429.026 767.786 429.026 766.1V754.541H414.336Z" fill="#3EB0A8"/>
<path d="M429.026 762.006H414.336V763.451H429.026V762.006Z" fill="#23635F"/>
<path d="M437.454 709.509L435.527 726.607L433.119 748.521L432.396 755.504C432.156 757.431 430.47 758.876 428.543 758.876H414.335C412.409 758.876 410.723 757.431 410.482 755.504L409.76 748.521L407.352 726.607L405.425 709.509C405.425 708.786 405.907 708.305 406.629 708.305H436.249C436.972 708.305 437.454 708.786 437.454 709.509Z" fill="#EEFFFF"/>
<path d="M435.526 726.607L433.359 748.521H409.759L407.351 726.607H435.526Z" fill="#3EB0A8"/>
<path opacity="0.47" d="M437.212 708.786C437.212 709.027 437.453 709.268 437.453 709.509L431.432 750.206C431.192 751.651 429.747 752.855 428.061 752.855H415.539C413.853 752.855 412.408 751.651 412.167 750.206L406.147 709.509L410.963 755.504C411.204 757.431 412.89 758.876 414.816 758.876H429.024C430.951 758.876 432.636 757.431 432.877 755.504L437.694 709.509C437.453 709.268 437.453 709.027 437.212 708.786Z" fill="#A8A8A8"/>
<path d="M427.339 715.77H423.727V713.844V712.158H419.392V713.844V715.77H415.78V720.105H419.392V722.272V723.717H423.727V722.272V720.105H427.339V715.77Z" fill="#FFB544"/>
<path d="M429.266 731.664H413.854C413.372 731.664 412.891 732.145 412.891 732.627C412.891 733.108 413.372 733.59 413.854 733.59H429.507C429.988 733.59 430.47 733.108 430.47 732.627C430.47 732.145 429.988 731.664 429.266 731.664Z" fill="#56DBB3"/>
<path d="M429.266 735.998H413.854C413.372 735.998 412.891 736.48 412.891 736.962C412.891 737.443 413.372 737.925 413.854 737.925H429.507C429.988 737.925 430.47 737.443 430.47 736.962C430.47 736.48 429.988 735.998 429.266 735.998Z" fill="#56DBB3"/>
<path d="M449.735 754.541V766.1C449.735 767.786 451.18 769.231 452.865 769.231H461.294C462.98 769.231 464.425 767.786 464.425 766.1V754.541H449.735Z" fill="#3EB0A8"/>
<path d="M464.425 762.006H449.735V763.451H464.425V762.006Z" fill="#23635F"/>
<path d="M472.852 709.509L470.926 726.607L468.518 748.521L467.795 755.504C467.555 757.431 465.869 758.876 463.942 758.876H449.734C447.808 758.876 446.122 757.431 445.881 755.504L445.159 748.521L442.751 726.607L440.824 709.509C440.824 708.786 441.306 708.305 442.028 708.305H471.648C472.371 708.305 472.852 708.786 472.852 709.509Z" fill="#EEFFFF"/>
<path d="M470.925 726.607L468.517 748.521H445.158L442.75 726.607H470.925Z" fill="#3EB0A8"/>
<path opacity="0.47" d="M472.611 708.786C472.611 709.027 472.852 709.268 472.852 709.509L466.831 750.206C466.591 751.651 465.146 752.855 463.46 752.855H450.938C449.252 752.855 447.807 751.651 447.566 750.206L441.546 709.509L446.362 755.504C446.603 757.431 448.289 758.876 450.215 758.876H464.423C466.35 758.876 468.035 757.431 468.276 755.504L473.093 709.509C472.852 709.268 472.852 709.027 472.611 708.786Z" fill="#A8A8A8"/>
<path d="M462.738 715.77H459.126V713.844V712.158H454.791V713.844V715.77H451.179V720.105H454.791V722.272V723.717H459.126V722.272V720.105H462.738V715.77Z" fill="#FFB544"/>
<path d="M464.665 731.664H449.012C448.53 731.664 448.048 732.145 448.048 732.627C448.048 733.108 448.53 733.59 449.012 733.59H464.665C465.146 733.59 465.628 733.108 465.628 732.627C465.869 732.145 465.387 731.664 464.665 731.664Z" fill="#56DBB3"/>
<path d="M464.665 735.998H449.012C448.53 735.998 448.048 736.48 448.048 736.962C448.048 737.443 448.53 737.925 449.012 737.925H464.665C465.146 737.925 465.628 737.443 465.628 736.962C465.869 736.48 465.387 735.998 464.665 735.998Z" fill="#56DBB3"/>
<path d="M659.484 726.607H583.146V768.749H659.484V726.607Z" fill="white"/>
<path d="M650.092 734.313H592.538C591.574 734.313 590.852 735.035 590.852 735.998C590.852 736.962 591.574 737.684 592.538 737.684H650.092C651.056 737.684 651.778 736.962 651.778 735.998C652.019 735.035 651.056 734.313 650.092 734.313Z" fill="#BAC1CF"/>
<path d="M641.664 743.464H592.778C591.815 743.464 591.093 744.186 591.093 745.15C591.093 746.113 591.815 746.835 592.778 746.835H641.664C642.627 746.835 643.349 746.113 643.349 745.15C643.349 744.186 642.627 743.464 641.664 743.464Z" fill="#BAC1CF"/>
<path d="M604.097 756.95C604.097 759.839 601.688 762.488 598.558 762.488C595.427 762.488 593.019 760.08 593.019 756.95C593.019 754.06 595.427 751.411 598.558 751.411C601.688 751.411 604.097 754.06 604.097 756.95Z" fill="#FF7F70"/>
<path d="M583.146 726.607L588.684 724.68H654.186L659.484 726.607H583.146Z" fill="#BAC1CF"/>
<path d="M739.193 726.607H662.855V768.749H739.193V726.607Z" fill="white"/>
<path d="M729.802 734.313H672.247C671.284 734.313 670.562 735.035 670.562 735.998C670.562 736.962 671.284 737.684 672.247 737.684H729.802C730.765 737.684 731.487 736.962 731.487 735.998C731.728 735.035 730.765 734.313 729.802 734.313Z" fill="#BAC1CF"/>
<path d="M721.374 743.464H672.488C671.525 743.464 670.803 744.186 670.803 745.15C670.803 746.113 671.525 746.835 672.488 746.835H721.374C722.337 746.835 723.059 746.113 723.059 745.15C723.059 744.186 722.337 743.464 721.374 743.464Z" fill="#BAC1CF"/>
<path d="M683.806 756.95C683.806 759.839 681.398 762.488 678.267 762.488C675.377 762.488 672.729 760.08 672.729 756.95C672.729 754.06 675.137 751.411 678.267 751.411C681.398 751.652 683.806 754.06 683.806 756.95Z" fill="#FF7F70"/>
<path d="M662.855 726.607L668.394 724.68H733.895L739.193 726.607H662.855Z" fill="#BAC1CF"/>
<path d="M707.165 682.538H630.827V724.68H707.165V682.538Z" fill="white"/>
<path d="M697.774 690.244H640.219C639.256 690.244 638.534 690.966 638.534 691.929C638.534 692.893 639.256 693.615 640.219 693.615H697.774C698.737 693.615 699.46 692.893 699.46 691.929C699.46 690.966 698.737 690.244 697.774 690.244Z" fill="#BAC1CF"/>
<path d="M689.105 699.395H640.219C639.256 699.395 638.534 700.117 638.534 701.08C638.534 702.044 639.256 702.766 640.219 702.766H689.105C690.068 702.766 690.79 702.044 690.79 701.08C691.031 700.117 690.068 699.395 689.105 699.395Z" fill="#BAC1CF"/>
<path d="M651.537 712.88C651.537 715.77 649.129 718.419 645.999 718.419C642.868 718.419 640.46 716.011 640.46 712.88C640.46 709.991 642.868 707.342 645.999 707.342C649.129 707.342 651.537 709.75 651.537 712.88Z" fill="#FF7F70"/>
<path d="M630.827 682.538L636.366 680.611H701.867L707.165 682.538H630.827Z" fill="#BAC1CF"/>
<path d="M786.152 729.015V765.859C786.152 767.545 784.466 768.99 782.54 768.99H753.401C751.475 768.99 749.789 767.545 749.789 765.859V729.015C749.789 728.774 749.789 728.533 749.789 728.533C749.789 725.162 750.511 721.791 751.956 718.419C753.401 714.807 755.569 711.676 758.458 709.027V703.729H777.242V709.027C782.54 713.844 785.67 721.791 785.911 728.533C786.152 728.533 786.152 728.774 786.152 729.015Z" fill="white"/>
<path d="M780.613 701.803H755.328V705.415H780.613V701.803Z" fill="#2591B8"/>
<path d="M786.393 690.485V686.391H758.218V690.485H764.72V697.709H758.218V701.803H764.72H772.426H779.169V697.709H772.426V690.485H786.393Z" fill="#CDEFFB"/>
<path d="M786.152 729.015V751.652H750.03V729.015C750.03 728.774 750.03 728.533 750.03 728.533H786.152C786.152 728.533 786.152 728.774 786.152 729.015Z" fill="#2591B8"/>
<path d="M786.152 729.015V731.905H750.03V729.015C750.03 728.774 750.03 728.533 750.03 728.533H786.152C786.152 728.533 786.152 728.774 786.152 729.015Z" fill="#1D718F"/>
<path d="M786.152 749.725H750.03V753.097H786.152V749.725Z" fill="#1D718F"/>
<path d="M828.536 729.015V765.859C828.536 767.545 826.85 768.99 824.924 768.99H795.785C793.859 768.99 792.173 767.545 792.173 765.859V729.015C792.173 728.774 792.173 728.533 792.173 728.533C792.173 725.162 792.895 721.791 794.34 718.419C795.785 714.807 797.952 711.676 800.842 709.027V703.729H819.626V709.027C824.924 713.844 828.054 721.791 828.295 728.533C828.536 728.533 828.536 728.774 828.536 729.015Z" fill="white"/>
<path d="M823.238 701.803H797.952V705.415H823.238V701.803Z" fill="#2591B8"/>
<path d="M828.776 690.485V686.391H800.601V690.485H807.103V697.709H800.601V701.803H807.103H814.809H821.552V697.709H814.809V690.485H828.776Z" fill="#CDEFFB"/>
<path d="M828.536 729.015V751.652H792.414V729.015C792.414 728.774 792.414 728.533 792.414 728.533H828.536C828.536 728.533 828.536 728.774 828.536 729.015Z" fill="#2591B8"/>
<path d="M828.536 729.015V731.905H792.414V729.015C792.414 728.774 792.414 728.533 792.414 728.533H828.536C828.536 728.533 828.536 728.774 828.536 729.015Z" fill="#1D718F"/>
<path d="M828.536 749.725H792.414V753.097H828.536V749.725Z" fill="#1D718F"/>
<path opacity="0.3" d="M889.702 554.906H110.669V875.911H889.702V554.906Z" fill="white"/>
<path opacity="0.52" d="M445.401 554.906L285.741 875.911H192.787L352.446 554.906H445.401Z" fill="white"/>
<path opacity="0.52" d="M806.621 554.906L646.721 875.911H553.767L713.667 554.906H806.621Z" fill="white"/>
<path opacity="0.52" d="M555.935 554.906L396.034 875.911H349.557L509.458 554.906H555.935Z" fill="white"/>
<path d="M248.896 360.809L172.558 367.311V323.242L248.896 316.74V360.809Z" fill="#668588"/>
<path d="M248.896 316.74L260.214 329.504L257.565 359.846L248.896 360.809V316.74Z" fill="#799FA2"/>
<path d="M349.316 467.25L346.426 483.625H300.912L307.414 448.225L349.316 467.25Z" fill="#A2C9C8"/>
<path d="M307.414 448.225L300.912 483.625H132.342L126.081 448.225H307.414Z" fill="#668588"/>
<path d="M143.901 448.225L153.052 365.385L266.475 359.365L288.871 448.225H143.901Z" fill="#668588"/>
<path d="M266.475 359.365L281.646 376.221L301.152 410.417C301.152 410.417 328.123 419.809 334.866 443.649V460.506L307.895 448.225H289.352L266.475 359.365Z" fill="#799FA2"/>
<path d="M238.782 327.818V351.418L218.313 353.345L210.125 354.067L199.289 354.789L185.803 355.993L182.672 356.234V332.635L201.697 330.949L215.182 329.745L226.019 328.781L234.207 328.059L238.782 327.818Z" fill="#8AD4A1"/>
<path d="M215.182 329.745L199.288 354.79L185.802 355.994L201.696 330.949L215.182 329.745Z" fill="#C2EDCF"/>
<path d="M234.206 328.059L218.312 353.345L210.125 354.067L226.018 328.782L234.206 328.059Z" fill="#C2EDCF"/>
</g>
<defs>
<clipPath id="clip0_701_4327">
<rect width="914.612" height="852" fill="white" transform="translate(43 74)"/>
</clipPath>
</defs>
</svg>
