<svg width="48" height="48" viewBox="0 0 48 48" fill="none" xmlns="http://www.w3.org/2000/svg">
<g clip-path="url(#clip0_607_4560)">
<path d="M10.5 24L29.4 5.10005C30.6 3.90005 32.4 3.00005 34.5 3.00005C36.6 3.00005 38.4 3.90005 39.9 5.10005C42.9 8.10005 42.9 12.9 39.9 15.6L31.5 24H35.7L41.7 18C45.9 13.8 45.9 7.20005 41.7 3.30005C39.6 1.20005 36.9 0.300049 34.2 0.300049C31.5 0.300049 29.1 0.900049 27 3.00005L8.1 22.2001C7.2 22.8 6.6 23.7 6 24.9C7.5 24.3 9 24 10.5 24Z" fill="#F9F9F9"/>
<path d="M21.9 16.8L14.7 24H28.8L21.9 16.8ZM37.5 27H10.5C4.8 27 0 31.8 0 37.5C0 43.2 4.8 48 10.5 48H37.5C43.2 48 48 43.2 48 37.5C48 31.8 43.2 27 37.5 27ZM37.5 45H24V33H10.5C7.2 33 4.5 34.8 3 36.6C3.6 33 6.6 30 10.5 30H37.5C41.7 30 45 33.3 45 37.5C45 41.7 41.7 45 37.5 45Z" fill="#F9F9F9"/>
</g>
<defs>
<clipPath id="clip0_607_4560">
<rect width="48" height="48" fill="white"/>
</clipPath>
</defs>
</svg>
