<svg width="32" height="32" viewBox="0 0 32 32" fill="none" xmlns="http://www.w3.org/2000/svg">
<path d="M26.5416 18.625C26.5416 19.2549 26.2914 19.859 25.846 20.3044C25.4006 20.7498 24.7965 21 24.1666 21C23.5367 21 22.9326 20.7498 22.4872 20.3044C22.0418 19.859 21.7916 19.2549 21.7916 18.625C21.7916 17.9951 22.0418 17.391 22.4872 16.9456C22.9326 16.5002 23.5367 16.25 24.1666 16.25C24.7965 16.25 25.4006 16.5002 25.846 16.9456C26.2914 17.391 26.5416 17.9951 26.5416 18.625Z" fill="white"/>
<path fill-rule="evenodd" clip-rule="evenodd" d="M24.1667 17.0417C23.7467 17.0417 23.344 17.2085 23.0471 17.5055C22.7501 17.8024 22.5833 18.2051 22.5833 18.625C22.5833 19.045 22.7501 19.4477 23.0471 19.7446C23.344 20.0416 23.7467 20.2084 24.1667 20.2084C24.5866 20.2084 24.9893 20.0416 25.2863 19.7446C25.5832 19.4477 25.75 19.045 25.75 18.625C25.75 18.2051 25.5832 17.8024 25.2863 17.5055C24.9893 17.2085 24.5866 17.0417 24.1667 17.0417ZM21 18.625C21 17.7852 21.3336 16.9797 21.9275 16.3859C22.5214 15.792 23.3268 15.4584 24.1667 15.4584C25.0065 15.4584 25.812 15.792 26.4058 16.3859C26.9997 16.9797 27.3333 17.7852 27.3333 18.625C27.3333 19.4649 26.9997 20.2703 26.4058 20.8642C25.812 21.4581 25.0065 21.7917 24.1667 21.7917C23.3268 21.7917 22.5214 21.4581 21.9275 20.8642C21.3336 20.2703 21 19.4649 21 18.625Z" fill="white"/>
<path d="M17.8334 26.8298C17.8334 24.5324 22.053 23.375 24.1667 23.375C26.2805 23.375 30.5 24.5324 30.5 26.8298V30.5H17.8334V26.8298Z" fill="white"/>
<path fill-rule="evenodd" clip-rule="evenodd" d="M19.6495 26.4364C19.4254 26.662 19.4167 26.7855 19.4167 26.8298V28.9167H28.9167V26.8298C28.9167 26.7855 28.9088 26.662 28.684 26.4364C28.4465 26.1965 28.0467 25.9345 27.4917 25.6922C26.3739 25.2022 25.0059 24.9583 24.1667 24.9583C23.3275 24.9583 21.9595 25.2037 20.8417 25.6914C20.2867 25.9337 19.8877 26.1965 19.6495 26.4364V26.4364ZM24.1667 23.375C22.053 23.375 17.8334 24.5324 17.8334 26.8298V30.5H30.5V26.8298C30.5 24.5324 26.2805 23.375 24.1667 23.375Z" fill="white"/>
<path fill-rule="evenodd" clip-rule="evenodd" d="M9.12496 27.3333C9.12496 27.7585 9.26746 28.1575 9.51842 28.4401C9.75671 28.7085 10.1312 28.9167 10.7083 28.9167H18.625V30.5H10.7083C9.70208 30.5 8.88904 30.1145 8.33567 29.4922C7.79496 28.8842 7.54163 28.0957 7.54163 27.3333V23.375H9.12496V27.3333Z" fill="white"/>
<path fill-rule="evenodd" clip-rule="evenodd" d="M8.33333 21.4639L12.8514 25.982L11.732 27.1014L8.33333 23.7028L4.93471 27.1014L3.81529 25.982L8.33333 21.4639ZM5.95833 3.58333C5.95833 3.16341 6.12515 2.76068 6.42208 2.46375C6.71901 2.16681 7.12174 2 7.54167 2H13.875C14.2949 2 14.6977 2.16681 14.9946 2.46375C15.2915 2.76068 15.4583 3.16341 15.4583 3.58333V4.375H19.4167V19.4167H2V4.375H5.95833V3.58333ZM5.95833 5.95833H3.58333V7.54167H5.95833V5.95833ZM5.95833 9.125H3.58333V17.8333H7.54167V13.0833H13.875V17.8333H17.8333V9.125H15.4583V9.91667C15.4583 10.3366 15.2915 10.7393 14.9946 11.0363C14.6977 11.3332 14.2949 11.5 13.875 11.5H7.54167C7.12174 11.5 6.71901 11.3332 6.42208 11.0363C6.12515 10.7393 5.95833 10.3366 5.95833 9.91667V9.125ZM15.4583 7.54167H17.8333V5.95833H15.4583V7.54167ZM12.2917 17.8333V14.6667H9.125V17.8333H12.2917ZM9.91667 5.95833V3.58333H11.5V5.95833H13.875V7.54167H11.5V9.91667H9.91667V7.54167H7.54167V5.95833H9.91667Z" fill="white"/>
</svg>
