<svg width="48" height="48" viewBox="0 0 48 48" fill="none" xmlns="http://www.w3.org/2000/svg">
<path d="M38.82 14.82L29.16 5.16C28.42 4.42 27.4 4 26.34 4H12C9.8 4 8.02 5.8 8.02 8L8 40C8 42.2 9.78 44 11.98 44H36C38.2 44 40 42.2 40 40V17.66C40 16.6 39.58 15.58 38.82 14.82ZM29.6 30H26V36C26 37.1 25.1 38 24 38C22.9 38 22 37.1 22 36V30H18.42C17.52 30 17.08 28.92 17.72 28.3L23.32 22.72C23.72 22.34 24.34 22.34 24.74 22.72L30.32 28.3C30.92 28.92 30.48 30 29.6 30ZM28 18C26.9 18 26 17.1 26 16V7L37 18H28Z" fill="#5A189A"/>
</svg>
